<svg width="154" height="28" viewBox="0 0 154 28" fill="none" xmlns="http://www.w3.org/2000/svg">
<path d="M23.1526 21.1943H31.1477L11.3422 1.38867H3.34705L23.1526 21.1943Z" fill="#1E1E1E" fill-opacity="0.5"/>
<path d="M15.4497 1.38867L34.5419 20.4809V1.38867H29.3752V7.41644L23.3474 1.38867L15.4497 1.38867Z" fill="#1E1E1E" fill-opacity="0.5"/>
<path d="M0 2.05176V21.1942H5.16667V15.1664L11.1944 21.1942H19.1425L0 2.05176Z" fill="#1E1E1E" fill-opacity="0.5"/>
<path d="M47.0098 18.2165H51.6391V20.9445H43.4758V6.43652H47.0098V18.2165Z" fill="#1E1E1E" fill-opacity="0.5"/>
<path d="M57.9541 21.1098C56.8243 21.1098 55.8047 20.8687 54.8954 20.3864C53.9998 19.9042 53.2903 19.2153 52.7667 18.3198C52.257 17.4242 52.0021 16.3771 52.0021 15.1784C52.0021 13.9936 52.2638 12.9533 52.7874 12.0578C53.311 11.1484 54.0274 10.4526 54.9367 9.9704C55.8461 9.48818 56.8656 9.24707 57.9954 9.24707C59.1252 9.24707 60.1447 9.48818 61.0541 9.9704C61.9634 10.4526 62.6798 11.1484 63.2034 12.0578C63.727 12.9533 63.9887 13.9936 63.9887 15.1784C63.9887 16.3633 63.7201 17.4104 63.1827 18.3198C62.6592 19.2153 61.9358 19.9042 61.0127 20.3864C60.1034 20.8687 59.0838 21.1098 57.9541 21.1098ZM57.9541 18.0511C58.6292 18.0511 59.201 17.8031 59.6694 17.3071C60.1516 16.8111 60.3927 16.1016 60.3927 15.1784C60.3927 14.2553 60.1585 13.5458 59.6901 13.0498C59.2354 12.5538 58.6705 12.3058 57.9954 12.3058C57.3065 12.3058 56.7347 12.5538 56.2801 13.0498C55.8254 13.532 55.5981 14.2416 55.5981 15.1784C55.5981 16.1016 55.8185 16.8111 56.2594 17.3071C56.7141 17.8031 57.279 18.0511 57.9541 18.0511Z" fill="#1E1E1E" fill-opacity="0.5"/>
<path d="M69.6249 9.24707C70.4378 9.24707 71.1474 9.4124 71.7536 9.74307C72.3736 10.0737 72.8489 10.5078 73.1796 11.0451V9.4124H76.7136V20.9238C76.7136 21.9847 76.5 22.9422 76.0729 23.7964C75.6596 24.6644 75.0189 25.3533 74.1509 25.8631C73.2967 26.3729 72.2289 26.6278 70.9476 26.6278C69.2391 26.6278 67.8545 26.2213 66.7936 25.4084C65.7327 24.6093 65.1265 23.5209 64.9749 22.1431H68.4676C68.5778 22.584 68.8396 22.9284 69.2529 23.1764C69.6663 23.4382 70.176 23.5691 70.7823 23.5691C71.5125 23.5691 72.0911 23.3556 72.5183 22.9284C72.9591 22.5151 73.1796 21.8469 73.1796 20.9238V19.2911C72.8351 19.8284 72.3598 20.2693 71.7536 20.6138C71.1474 20.9444 70.4378 21.1098 69.6249 21.1098C68.6743 21.1098 67.8131 20.8687 67.0416 20.3864C66.27 19.8904 65.6569 19.1947 65.2023 18.2991C64.7614 17.3898 64.5409 16.3427 64.5409 15.1578C64.5409 13.9729 64.7614 12.9327 65.2023 12.0371C65.6569 11.1416 66.27 10.4526 67.0416 9.9704C67.8131 9.48818 68.6743 9.24707 69.6249 9.24707ZM73.1796 15.1784C73.1796 14.2967 72.9316 13.6009 72.4356 13.0911C71.9534 12.5813 71.3609 12.3264 70.6583 12.3264C69.9556 12.3264 69.3563 12.5813 68.8603 13.0911C68.378 13.5871 68.1369 14.276 68.1369 15.1578C68.1369 16.0396 68.378 16.7422 68.8603 17.2658C69.3563 17.7756 69.9556 18.0304 70.6583 18.0304C71.3609 18.0304 71.9534 17.7756 72.4356 17.2658C72.9316 16.756 73.1796 16.0602 73.1796 15.1784Z" fill="#1E1E1E" fill-opacity="0.5"/>
<path d="M83.8996 21.1098C82.7698 21.1098 81.7503 20.8687 80.8409 20.3864C79.9454 19.9042 79.2358 19.2153 78.7123 18.3198C78.2025 17.4242 77.9476 16.3771 77.9476 15.1784C77.9476 13.9936 78.2094 12.9533 78.7329 12.0578C79.2565 11.1484 79.9729 10.4526 80.8823 9.9704C81.7916 9.48818 82.8112 9.24707 83.9409 9.24707C85.0707 9.24707 86.0903 9.48818 86.9996 9.9704C87.9089 10.4526 88.6254 11.1484 89.1489 12.0578C89.6725 12.9533 89.9343 13.9936 89.9343 15.1784C89.9343 16.3633 89.6656 17.4104 89.1283 18.3198C88.6047 19.2153 87.8814 19.9042 86.9583 20.3864C86.0489 20.8687 85.0294 21.1098 83.8996 21.1098ZM83.8996 18.0511C84.5747 18.0511 85.1465 17.8031 85.6149 17.3071C86.0972 16.8111 86.3383 16.1016 86.3383 15.1784C86.3383 14.2553 86.1041 13.5458 85.6356 13.0498C85.1809 12.5538 84.6161 12.3058 83.9409 12.3058C83.2521 12.3058 82.6803 12.5538 82.2256 13.0498C81.7709 13.532 81.5436 14.2416 81.5436 15.1784C81.5436 16.1016 81.7641 16.8111 82.2049 17.3071C82.6596 17.8031 83.2245 18.0511 83.8996 18.0511Z" fill="#1E1E1E" fill-opacity="0.5"/>
<path d="M92.9665 8.21396C92.3465 8.21396 91.8367 8.03484 91.4371 7.67662C91.0514 7.30462 90.8585 6.84996 90.8585 6.31262C90.8585 5.76151 91.0514 5.30685 91.4371 4.94863C91.8367 4.57663 92.3465 4.39062 92.9665 4.39062C93.5727 4.39062 94.0687 4.57663 94.4545 4.94863C94.854 5.30685 95.0538 5.76151 95.0538 6.31262C95.0538 6.84996 94.854 7.30462 94.4545 7.67662C94.0687 8.03484 93.5727 8.21396 92.9665 8.21396ZM94.7231 9.41263V20.9446H91.1891V9.41263H94.7231Z" fill="#1E1E1E" fill-opacity="0.5"/>
<path d="M100.198 11.0451C100.543 10.5078 101.018 10.0737 101.624 9.74307C102.23 9.4124 102.94 9.24707 103.753 9.24707C104.704 9.24707 105.565 9.48818 106.336 9.9704C107.108 10.4526 107.714 11.1416 108.155 12.0371C108.61 12.9327 108.837 13.9729 108.837 15.1578C108.837 16.3427 108.61 17.3898 108.155 18.2991C107.714 19.1947 107.108 19.8904 106.336 20.3864C105.565 20.8687 104.704 21.1098 103.753 21.1098C102.954 21.1098 102.244 20.9444 101.624 20.6138C101.018 20.2831 100.543 19.856 100.198 19.3324V26.4418H96.6642V9.4124H100.198V11.0451ZM105.241 15.1578C105.241 14.276 104.993 13.5871 104.497 13.0911C104.015 12.5813 103.415 12.3264 102.699 12.3264C101.996 12.3264 101.397 12.5813 100.901 13.0911C100.419 13.6009 100.178 14.2967 100.178 15.1784C100.178 16.0602 100.419 16.756 100.901 17.2658C101.397 17.7756 101.996 18.0304 102.699 18.0304C103.402 18.0304 104.001 17.7756 104.497 17.2658C104.993 16.7422 105.241 16.0396 105.241 15.1578Z" fill="#1E1E1E" fill-opacity="0.5"/>
<path d="M114.762 21.1098C113.756 21.1098 112.861 20.9376 112.076 20.5931C111.29 20.2487 110.67 19.7802 110.216 19.1878C109.761 18.5816 109.506 17.9064 109.451 17.1624H112.944C112.985 17.562 113.171 17.8858 113.502 18.1338C113.832 18.3818 114.239 18.5058 114.721 18.5058C115.162 18.5058 115.499 18.4231 115.734 18.2578C115.982 18.0787 116.106 17.8513 116.106 17.5758C116.106 17.2451 115.933 17.004 115.589 16.8524C115.244 16.6871 114.686 16.508 113.915 16.3151C113.088 16.1222 112.399 15.9224 111.848 15.7158C111.297 15.4953 110.822 15.1578 110.422 14.7031C110.023 14.2347 109.823 13.6078 109.823 12.8224C109.823 12.1611 110.002 11.5618 110.36 11.0244C110.732 10.4733 111.27 10.0393 111.972 9.7224C112.689 9.40551 113.536 9.24707 114.514 9.24707C115.961 9.24707 117.098 9.60529 117.924 10.3217C118.765 11.0382 119.247 11.9889 119.371 13.1738H116.106C116.05 12.7742 115.871 12.4573 115.568 12.2231C115.279 11.9889 114.893 11.8718 114.411 11.8718C113.998 11.8718 113.681 11.9544 113.46 12.1198C113.24 12.2713 113.13 12.4849 113.13 12.7604C113.13 13.0911 113.302 13.3391 113.646 13.5044C114.004 13.6698 114.556 13.8351 115.3 14.0004C116.154 14.2209 116.85 14.4413 117.387 14.6618C117.924 14.8684 118.393 15.2129 118.792 15.6951C119.206 16.1636 119.419 16.7973 119.433 17.5964C119.433 18.2716 119.24 18.8778 118.854 19.4151C118.482 19.9387 117.938 20.352 117.222 20.6551C116.519 20.9582 115.699 21.1098 114.762 21.1098Z" fill="#1E1E1E" fill-opacity="0.5"/>
<path d="M132.362 9.4126V20.9446H128.828V19.374C128.47 19.8838 127.981 20.2971 127.361 20.614C126.755 20.9171 126.08 21.0686 125.336 21.0686C124.454 21.0686 123.675 20.8758 123 20.49C122.325 20.0904 121.802 19.5186 121.43 18.7746C121.058 18.0306 120.872 17.1558 120.872 16.15V9.4126H124.385V15.6746C124.385 16.4462 124.585 17.0455 124.984 17.4726C125.384 17.8998 125.921 18.1133 126.596 18.1133C127.285 18.1133 127.829 17.8998 128.229 17.4726C128.629 17.0455 128.828 16.4462 128.828 15.6746V9.4126H132.362Z" fill="#1E1E1E" fill-opacity="0.5"/>
<path d="M148.995 9.28857C150.428 9.28857 151.565 9.72257 152.405 10.5905C153.26 11.4585 153.687 12.6641 153.687 14.2072V20.9445H150.173V14.6825C150.173 13.9385 149.974 13.3668 149.574 12.9672C149.188 12.5539 148.651 12.3472 147.962 12.3472C147.273 12.3472 146.729 12.5539 146.329 12.9672C145.944 13.3668 145.751 13.9385 145.751 14.6825V20.9445H142.237V14.6825C142.237 13.9385 142.038 13.3668 141.638 12.9672C141.252 12.5539 140.715 12.3472 140.026 12.3472C139.337 12.3472 138.793 12.5539 138.393 12.9672C138.008 13.3668 137.815 13.9385 137.815 14.6825V20.9445H134.281V9.41257H137.815V10.8592C138.173 10.377 138.641 9.99813 139.22 9.72257C139.799 9.43324 140.453 9.28857 141.183 9.28857C142.051 9.28857 142.823 9.47457 143.498 9.84657C144.187 10.2186 144.724 10.749 145.11 11.4379C145.51 10.8041 146.054 10.2875 146.743 9.88791C147.432 9.48835 148.183 9.28857 148.995 9.28857Z" fill="#1E1E1E" fill-opacity="0.5"/>
</svg>
