<svg width="168" height="42" viewBox="0 0 168 42" fill="none" xmlns="http://www.w3.org/2000/svg">
<g clip-path="url(#clip0_2_556)">
<path d="M49.0306 29.2938H60.9826V25.6938H53.2786V12.1338H49.0306V29.2938Z" fill="#1E1E1E" fill-opacity="0.5"/>
<path d="M68.0638 26.8934C66.3598 26.8934 65.4718 25.4054 65.4718 23.1734C65.4718 20.9414 66.3598 19.4294 68.0638 19.4294C69.7678 19.4294 70.6798 20.9414 70.6798 23.1734C70.6798 25.4054 69.7678 26.8934 68.0638 26.8934ZM68.0878 29.6774C72.0478 29.6774 74.6398 26.8694 74.6398 23.1734C74.6398 19.4774 72.0478 16.6694 68.0878 16.6694C64.1518 16.6694 61.5118 19.4774 61.5118 23.1734C61.5118 26.8694 64.1518 29.6774 68.0878 29.6774Z" fill="#1E1E1E" fill-opacity="0.5"/>
<path d="M81.4942 33.5415C83.3182 33.5415 84.9262 33.1335 86.0062 32.1735C86.9902 31.2855 87.6382 29.9415 87.6382 28.0935V17.0055H83.8942V18.3255H83.8462C83.1262 17.2935 82.0222 16.6455 80.3902 16.6455C77.3422 16.6455 75.2302 19.1895 75.2302 22.7895C75.2302 26.5575 77.7982 28.6215 80.5582 28.6215C82.0462 28.6215 82.9822 28.0215 83.7022 27.2055H83.7982V28.4295C83.7982 29.9175 83.1022 30.7815 81.4462 30.7815C80.1502 30.7815 79.5022 30.2295 79.2862 29.5815H75.4942C75.8782 32.1495 78.1102 33.5415 81.4942 33.5415ZM81.4702 25.7175C80.0062 25.7175 79.0462 24.5175 79.0462 22.6695C79.0462 20.7975 80.0062 19.5975 81.4702 19.5975C83.1022 19.5975 83.9662 20.9895 83.9662 22.6455C83.9662 24.3735 83.1742 25.7175 81.4702 25.7175Z" fill="#1E1E1E" fill-opacity="0.5"/>
<path d="M95.3365 26.8934C93.6325 26.8934 92.7446 25.4054 92.7446 23.1734C92.7446 20.9414 93.6325 19.4294 95.3365 19.4294C97.0405 19.4294 97.9525 20.9414 97.9525 23.1734C97.9525 25.4054 97.0405 26.8934 95.3365 26.8934ZM95.3605 29.6774C99.3205 29.6774 101.913 26.8694 101.913 23.1734C101.913 19.4774 99.3205 16.6694 95.3605 16.6694C91.4245 16.6694 88.7845 19.4774 88.7845 23.1734C88.7845 26.8694 91.4245 29.6774 95.3605 29.6774Z" fill="#1E1E1E" fill-opacity="0.5"/>
<path d="M103.055 29.2938H106.967V17.0058H103.055V29.2938ZM103.055 15.3018H106.967V12.1338H103.055V15.3018Z" fill="#1E1E1E" fill-opacity="0.5"/>
<path d="M108.664 33.3495H112.576V28.0215H112.624C113.392 29.0535 114.52 29.6775 116.104 29.6775C119.32 29.6775 121.456 27.1335 121.456 23.1495C121.456 19.4535 119.464 16.6455 116.2 16.6455C114.52 16.6455 113.32 17.3895 112.48 18.4935H112.408V17.0055H108.664V33.3495ZM115.096 26.6535C113.416 26.6535 112.456 25.2855 112.456 23.2935C112.456 21.3015 113.32 19.7895 115.024 19.7895C116.704 19.7895 117.496 21.1815 117.496 23.2935C117.496 25.3815 116.584 26.6535 115.096 26.6535Z" fill="#1E1E1E" fill-opacity="0.5"/>
<path d="M127.826 29.6775C131.042 29.6775 133.418 28.2855 133.418 25.5975C133.418 22.4535 130.874 21.9015 128.714 21.5415C127.154 21.2535 125.762 21.1335 125.762 20.2695C125.762 19.5015 126.506 19.1415 127.466 19.1415C128.546 19.1415 129.29 19.4775 129.434 20.5815H133.034C132.842 18.1575 130.97 16.6455 127.49 16.6455C124.586 16.6455 122.186 17.9895 122.186 20.5815C122.186 23.4615 124.466 24.0375 126.602 24.3975C128.234 24.6855 129.722 24.8055 129.722 25.9095C129.722 26.7015 128.978 27.1335 127.802 27.1335C126.506 27.1335 125.69 26.5335 125.546 25.3095H121.85C121.97 28.0215 124.226 29.6775 127.826 29.6775Z" fill="#1E1E1E" fill-opacity="0.5"/>
<path d="M138.731 29.6534C140.435 29.6534 141.515 28.9814 142.403 27.7814H142.475V29.2934H146.219V17.0054H142.307V23.8694C142.307 25.3334 141.491 26.3414 140.147 26.3414C138.899 26.3414 138.299 25.5974 138.299 24.2534V17.0054H134.411V25.0694C134.411 27.8054 135.899 29.6534 138.731 29.6534Z" fill="#1E1E1E" fill-opacity="0.5"/>
<path d="M147.921 29.2935H151.833V22.4055C151.833 20.9415 152.553 19.9095 153.777 19.9095C154.953 19.9095 155.505 20.6775 155.505 21.9975V29.2935H159.417V22.4055C159.417 20.9415 160.113 19.9095 161.361 19.9095C162.537 19.9095 163.089 20.6775 163.089 21.9975V29.2935H167.001V21.3015C167.001 18.5415 165.609 16.6455 162.825 16.6455C161.241 16.6455 159.921 17.3175 158.961 18.8055H158.913C158.289 17.4855 157.065 16.6455 155.457 16.6455C153.681 16.6455 152.505 17.4855 151.737 18.7575H151.665V17.0055H147.921V29.2935Z" fill="#1E1E1E" fill-opacity="0.5"/>
<path fill-rule="evenodd" clip-rule="evenodd" d="M9.05407 4.39132C7.62341 5.39168 6.32971 6.57443 5.20666 7.90585C9.79596 7.47978 15.6265 8.1755 22.3957 11.5601C29.6243 15.1743 35.4451 15.2965 39.4961 14.5151C39.1285 13.4022 38.6657 12.3326 38.1176 11.3158C33.4803 11.8049 27.5353 11.1575 20.6069 7.69343C16.2073 5.49363 12.3291 4.58746 9.05407 4.39132ZM35.4087 7.4601C31.7466 3.36845 26.4247 0.793457 20.5013 0.793457C18.7618 0.793457 17.074 1.01556 15.465 1.43294C17.6442 2.02754 19.9592 2.89744 22.3957 4.11572C27.4683 6.65198 31.8477 7.46861 35.4087 7.4601ZM40.3622 18.4215C35.4682 19.3879 28.7101 19.1894 20.6069 15.1378C13.0313 11.35 7.00177 11.3977 2.93524 12.3014C2.72534 12.348 2.52038 12.397 2.32037 12.448C1.78796 13.6059 1.36298 14.8235 1.05804 16.0879C1.38373 16.0009 1.72027 15.9182 2.0675 15.841C7.00091 14.7447 13.9714 14.7923 22.3957 19.0045C29.9714 22.7923 36.0009 22.7446 40.0675 21.8409C40.2068 21.81 40.3441 21.778 40.4791 21.745C40.4939 21.4297 40.5013 21.1124 40.5013 20.7934C40.5013 19.9909 40.4541 19.1994 40.3622 18.4215ZM39.8261 25.9657C34.9796 26.813 28.4183 26.4878 20.6069 22.5822C13.0313 18.7944 7.00177 18.8421 2.93524 19.7458C2.03259 19.9463 1.22058 20.1906 0.504273 20.4485C0.50232 20.5632 0.501343 20.6782 0.501343 20.7934C0.501343 31.8391 9.45563 40.7934 20.5013 40.7934C29.7584 40.7934 37.5466 34.5043 39.8261 25.9657Z" fill="#1E1E1E" fill-opacity="0.5"/>
</g>
<defs>
<clipPath id="clip0_2_556">
<rect width="167" height="41" fill="white" transform="translate(0.399902 0.5)"/>
</clipPath>
</defs>
</svg>
