<svg width="173" height="40" viewBox="0 0 173 40" fill="none" xmlns="http://www.w3.org/2000/svg">
<path fill-rule="evenodd" clip-rule="evenodd" d="M15.8 28C14.474 28 13.2022 27.4732 12.2645 26.5355C11.3268 25.5979 10.8 24.3261 10.8 23V0H0.800049V23C0.800049 31.284 7.51605 38 15.8 38H26.8V28H15.8ZM45.8 10C44.6182 10 43.4478 10.2328 42.3559 10.6851C41.264 11.1374 40.2718 11.8003 39.4361 12.636C38.6004 13.4718 37.9374 14.4639 37.4851 15.5558C37.0328 16.6478 36.8 17.8181 36.8 19C36.8 20.1819 37.0328 21.3522 37.4851 22.4442C37.9374 23.5361 38.6004 24.5282 39.4361 25.364C40.2718 26.1997 41.264 26.8626 42.3559 27.3149C43.4478 27.7672 44.6182 28 45.8 28C48.187 28 50.4762 27.0518 52.164 25.364C53.8518 23.6761 54.8 21.3869 54.8 19C54.8 16.6131 53.8518 14.3239 52.164 12.636C50.4762 10.9482 48.187 10 45.8 10ZM26.8 19C26.8 8.507 35.307 0 45.8 0C56.293 0 64.8 8.507 64.8 19C64.8 29.493 56.293 38 45.8 38C35.307 38 26.8 29.493 26.8 19ZM153.8 10C151.413 10 149.124 10.9482 147.436 12.636C145.748 14.3239 144.8 16.6131 144.8 19C144.8 21.3869 145.748 23.6761 147.436 25.364C149.124 27.0518 151.413 28 153.8 28C156.187 28 158.476 27.0518 160.164 25.364C161.852 23.6761 162.8 21.3869 162.8 19C162.8 16.6131 161.852 14.3239 160.164 12.636C158.476 10.9482 156.187 10 153.8 10ZM134.8 19C134.8 8.507 143.307 0 153.8 0C164.293 0 172.8 8.507 172.8 19C172.8 29.493 164.293 38 153.8 38C143.307 38 134.8 29.493 134.8 19ZM85.8 0C75.3071 0 66.8 8.507 66.8 19C66.8 29.493 75.3071 38 85.8 38H113.8C115.769 38 117.668 37.7 119.454 37.144L124.8 40L130.568 29.196C132.033 26.4457 132.8 23.3773 132.8 20.261V19C132.8 8.507 124.293 0 113.8 0H85.8ZM122.8 19C122.8 16.6131 121.852 14.3239 120.164 12.636C118.476 10.9482 116.187 10 113.8 10H85.8C84.6181 10 83.4478 10.2328 82.3559 10.6851C81.264 11.1374 80.2718 11.8003 79.4361 12.636C78.6004 13.4718 77.9374 14.4639 77.4851 15.5558C77.0328 16.6478 76.8 17.8181 76.8 19C76.8 20.1819 77.0328 21.3522 77.4851 22.4442C77.9374 23.5361 78.6004 24.5282 79.4361 25.364C80.2718 26.1997 81.264 26.8626 82.3559 27.3149C83.4478 27.7672 84.6181 28 85.8 28H113.8C116.175 28.0001 118.454 27.0615 120.139 25.3888C121.825 23.716 122.782 21.4448 122.8 19.07V19Z" fill="#1E1E1E" fill-opacity="0.5"/>
</svg>
