<svg width="203" height="40" viewBox="0 0 203 40" fill="none" xmlns="http://www.w3.org/2000/svg">
<g clip-path="url(#clip0_2_543)">
<path fill-rule="evenodd" clip-rule="evenodd" d="M26.1558 11.6853C24.5113 10.5865 22.5779 10 20.6001 10V0C24.5557 0 28.4225 1.17298 31.7115 3.37061C35.0005 5.56823 37.5639 8.69181 39.0777 12.3463C40.5914 16.0008 40.9875 20.0222 40.2158 23.9018C39.4441 27.7814 37.5393 31.3451 34.7422 34.1421C31.9452 36.9392 28.3815 38.844 24.5019 39.6157C20.6223 40.3874 16.6009 39.9913 12.9464 38.4776C9.2919 36.9638 6.16833 34.4004 3.97071 31.1114C1.77308 27.8224 0.600098 23.9556 0.600098 20H10.6001C10.6001 21.9778 11.1866 23.9112 12.2854 25.5557C13.3842 27.2002 14.946 28.4819 16.7733 29.2388C18.6005 29.9957 20.6112 30.1937 22.551 29.8078C24.4908 29.422 26.2726 28.4696 27.6712 27.0711C29.0697 25.6725 30.0221 23.8907 30.4079 21.9509C30.7938 20.0111 30.5958 18.0004 29.8389 16.1732C29.082 14.3459 27.8003 12.7841 26.1558 11.6853Z" fill="#1E1E1E" fill-opacity="0.5"/>
<path fill-rule="evenodd" clip-rule="evenodd" d="M10.6001 5.28493e-06C10.6001 1.31322 10.3414 2.61358 9.83889 3.82684C9.33634 5.04009 8.59975 6.14248 7.67116 7.07107C6.74258 7.99966 5.64019 8.73625 4.42693 9.2388C3.21367 9.74134 1.91331 10 0.600098 10L0.600098 20C3.22653 20 5.82725 19.4827 8.25377 18.4776C10.6803 17.4725 12.8851 15.9993 14.7422 14.1421C16.5994 12.285 18.0726 10.0802 19.0777 7.65367C20.0828 5.22715 20.6001 2.62643 20.6001 0L10.6001 5.28493e-06Z" fill="#1E1E1E" fill-opacity="0.5"/>
<path d="M126.219 14.4526H121.367V29.8649H126.219V14.4526Z" fill="#1E1E1E" fill-opacity="0.5"/>
<path d="M121.907 11.5666C122.414 12.074 123.048 12.3277 123.809 12.3277C124.57 12.3277 125.194 12.074 125.68 11.5666C126.167 11.0381 126.41 10.4038 126.41 9.66385C126.41 8.90277 126.167 8.26849 125.68 7.76111C125.194 7.25369 124.57 7 123.809 7C123.048 7 122.414 7.25369 121.907 7.76111C121.42 8.26849 121.177 8.90277 121.177 9.66385C121.177 10.4038 121.42 11.0381 121.907 11.5666Z" fill="#1E1E1E" fill-opacity="0.5"/>
<path d="M51.7563 29.8647V7.47559H56.7352V25.4884H66.6614V29.8647H51.7563Z" fill="#1E1E1E" fill-opacity="0.5"/>
<path fill-rule="evenodd" clip-rule="evenodd" d="M75.6274 30.2135C74.0418 30.2135 72.6042 29.8647 71.3145 29.167C70.046 28.4482 69.0418 27.4757 68.3018 26.2494C67.5619 25.0232 67.1919 23.649 67.1919 22.1268C67.1919 20.6046 67.5619 19.241 68.3018 18.0359C69.0418 16.8308 70.046 15.8794 71.3145 15.1818C72.583 14.4629 74.0207 14.1035 75.6274 14.1035C77.2342 14.1035 78.6718 14.4524 79.9403 15.15C81.2088 15.8477 82.2131 16.8097 82.953 18.0359C83.693 19.241 84.063 20.6046 84.063 22.1268C84.063 23.649 83.693 25.0232 82.953 26.2494C82.2131 27.4757 81.2088 28.4482 79.9403 29.167C78.6718 29.8647 77.2342 30.2135 75.6274 30.2135ZM75.6274 25.8055C76.3251 25.8055 76.9382 25.6575 77.4668 25.3615C77.9953 25.0444 78.397 24.611 78.6718 24.0613C78.9678 23.4905 79.1158 22.8456 79.1158 22.1268C79.1158 21.408 78.9678 20.7843 78.6718 20.2558C78.3758 19.7061 77.9636 19.2833 77.435 18.9873C76.9276 18.6701 76.3251 18.5116 75.6274 18.5116C74.9509 18.5116 74.3484 18.6701 73.8198 18.9873C73.2913 19.2833 72.879 19.7061 72.583 20.2558C72.287 20.8055 72.1391 21.4397 72.1391 22.1585C72.1391 22.8562 72.287 23.4905 72.583 24.0613C72.879 24.611 73.2913 25.0444 73.8198 25.3615C74.3484 25.6575 74.9509 25.8055 75.6274 25.8055Z" fill="#1E1E1E" fill-opacity="0.5"/>
<path fill-rule="evenodd" clip-rule="evenodd" d="M87.9057 35.8902C89.1953 36.4821 90.6858 36.7781 92.3772 36.7781C94.0262 36.7781 95.4956 36.4504 96.7852 35.795C98.0749 35.1396 99.0896 34.2306 99.8296 33.0678C100.569 31.905 100.94 30.5308 100.94 28.9451V14.4525H96.1826V15.488C95.8288 15.1902 95.427 14.9402 94.9776 14.7379C94.153 14.3362 93.2122 14.1353 92.1552 14.1353C90.7387 14.1353 89.4807 14.4736 88.3814 15.1501C87.2819 15.8055 86.4152 16.7146 85.7809 17.8774C85.1466 19.0191 84.8296 20.3087 84.8296 21.7464C84.8296 23.1629 85.1466 24.4525 85.7809 25.6153C86.4152 26.7781 87.2819 27.6978 88.3814 28.3743C89.4807 29.0508 90.7387 29.3891 92.1552 29.3891C93.1911 29.3891 94.1319 29.1883 94.9776 28.7866C95.3872 28.592 95.7572 28.3627 96.0875 28.0986V29.072C96.0875 30.1502 95.7387 30.9853 95.041 31.5773C94.3645 32.1693 93.4237 32.4652 92.2186 32.4652C91.2461 32.4652 90.411 32.2961 89.7133 31.9578C89.0368 31.6196 88.4236 31.1227 87.8739 30.4673L84.893 33.4483C85.6329 34.5054 86.6372 35.3194 87.9057 35.8902ZM94.819 24.6322C94.3327 24.9282 93.7514 25.0762 93.0748 25.0762C92.3983 25.0762 91.8063 24.9282 91.2989 24.6322C90.8126 24.3362 90.4321 23.9345 90.1573 23.4271C89.8824 22.8986 89.745 22.3383 89.745 21.7464C89.745 21.1121 89.8824 20.5413 90.1573 20.0339C90.4321 19.5265 90.8232 19.1248 91.3306 18.8288C91.838 18.5328 92.4194 18.3848 93.0748 18.3848C93.7514 18.3848 94.3327 18.5328 94.819 18.8288C95.3264 19.1248 95.7069 19.5265 95.9607 20.0339C96.2355 20.5413 96.3729 21.1121 96.3729 21.7464C96.3729 22.3806 96.2355 22.9514 95.9607 23.4588C95.7069 23.9451 95.3264 24.3362 94.819 24.6322Z" fill="#1E1E1E" fill-opacity="0.5"/>
<path fill-rule="evenodd" clip-rule="evenodd" d="M111.151 30.2135C109.565 30.2135 108.127 29.8647 106.838 29.167C105.569 28.4482 104.565 27.4757 103.825 26.2494C103.085 25.0232 102.715 23.649 102.715 22.1268C102.715 20.6046 103.085 19.241 103.825 18.0359C104.565 16.8308 105.569 15.8794 106.838 15.1818C108.106 14.4629 109.544 14.1035 111.151 14.1035C112.757 14.1035 114.195 14.4524 115.463 15.15C116.732 15.8477 117.736 16.8097 118.476 18.0359C119.216 19.241 119.586 20.6046 119.586 22.1268C119.586 23.649 119.216 25.0232 118.476 26.2494C117.736 27.4757 116.732 28.4482 115.463 29.167C114.195 29.8647 112.757 30.2135 111.151 30.2135ZM111.151 25.8055C111.848 25.8055 112.461 25.6575 112.99 25.3615C113.518 25.0444 113.92 24.611 114.195 24.0613C114.491 23.4905 114.639 22.8456 114.639 22.1268C114.639 21.408 114.491 20.7843 114.195 20.2558C113.899 19.7061 113.487 19.2833 112.958 18.9873C112.451 18.6701 111.848 18.5116 111.151 18.5116C110.474 18.5116 109.871 18.6701 109.343 18.9873C108.814 19.2833 108.402 19.7061 108.106 20.2558C107.81 20.8055 107.662 21.4397 107.662 22.1585C107.662 22.8562 107.81 23.4905 108.106 24.0613C108.402 24.611 108.814 25.0444 109.343 25.3615C109.871 25.6575 110.474 25.8055 111.151 25.8055Z" fill="#1E1E1E" fill-opacity="0.5"/>
<path fill-rule="evenodd" clip-rule="evenodd" d="M137.881 30.1819C136.846 30.1819 135.894 29.9811 135.027 29.5794C134.571 29.368 134.159 29.1156 133.791 28.8222V36.3659H129.002V14.4525H133.854V15.5162C134.206 15.2283 134.597 14.9794 135.027 14.7696C135.894 14.3467 136.846 14.1353 137.881 14.1353C139.34 14.1353 140.63 14.4842 141.75 15.1819C142.892 15.8795 143.78 16.8309 144.414 18.036C145.07 19.2411 145.397 20.6153 145.397 22.1586C145.397 23.702 145.07 25.0762 144.414 26.2813C143.78 27.4864 142.892 28.4377 141.75 29.1354C140.63 29.8331 139.34 30.1819 137.881 30.1819ZM136.994 25.8056C137.691 25.8056 138.294 25.647 138.801 25.3299C139.33 25.0128 139.742 24.5793 140.038 24.0297C140.334 23.48 140.482 22.8563 140.482 22.1586C140.482 21.4398 140.334 20.8056 140.038 20.2559C139.742 19.7062 139.33 19.2834 138.801 18.9874C138.294 18.6702 137.702 18.5117 137.025 18.5117C136.349 18.5117 135.746 18.6702 135.218 18.9874C134.71 19.2834 134.309 19.7062 134.013 20.2559C133.717 20.8056 133.569 21.4398 133.569 22.1586C133.569 22.8563 133.706 23.48 133.981 24.0297C134.277 24.5793 134.689 25.0128 135.218 25.3299C135.746 25.647 136.338 25.8056 136.994 25.8056Z" fill="#1E1E1E" fill-opacity="0.5"/>
<path d="M150.146 29.8963C151.034 30.1289 151.932 30.2451 152.841 30.2451C154.765 30.2451 156.287 29.8012 157.408 28.9132C158.549 28.0253 159.12 26.8308 159.12 25.3297C159.12 24.3572 158.941 23.5749 158.581 22.983C158.222 22.3699 157.757 21.8836 157.186 21.5242C156.615 21.1648 156.012 20.8793 155.378 20.6679C154.744 20.4565 154.141 20.2768 153.571 20.1288C153 19.9808 152.535 19.8117 152.175 19.6214C151.816 19.4311 151.636 19.1774 151.636 18.8603C151.636 18.5643 151.774 18.3423 152.048 18.1943C152.323 18.0252 152.735 17.9407 153.285 17.9407C153.856 17.9407 154.437 18.0569 155.029 18.2895C155.642 18.522 156.192 18.9238 156.678 19.4946L159.437 16.7039C158.74 15.8159 157.831 15.1499 156.71 14.706C155.611 14.2409 154.406 14.0083 153.095 14.0083C151.848 14.0083 150.759 14.2197 149.829 14.6425C148.898 15.0654 148.179 15.6468 147.672 16.3867C147.165 17.1055 146.911 17.9618 146.911 18.9555C146.911 19.8857 147.091 20.6574 147.45 21.2705C147.809 21.8624 148.275 22.3276 148.845 22.6658C149.416 23.0041 150.019 23.2684 150.653 23.4586C151.287 23.6489 151.89 23.8286 152.461 23.9978C153.031 24.1458 153.497 24.3255 153.856 24.5369C154.237 24.7272 154.427 25.0126 154.427 25.3931C154.427 25.6891 154.268 25.9216 153.951 26.0908C153.655 26.2599 153.222 26.3445 152.651 26.3445C151.826 26.3445 151.065 26.1965 150.368 25.9005C149.67 25.5834 149.067 25.15 148.56 24.6003L145.801 27.391C146.33 27.9618 146.964 28.4693 147.704 28.9132C148.465 29.336 149.279 29.6637 150.146 29.8963Z" fill="#1E1E1E" fill-opacity="0.5"/>
<path d="M167.968 30.2137C166.552 30.2137 165.294 29.9283 164.195 29.3575C163.116 28.7655 162.271 27.9621 161.658 26.9473C161.044 25.9114 160.738 24.7275 160.738 23.3955V14.4526H165.59V23.3321C165.59 23.8606 165.674 24.3152 165.844 24.6957C166.034 25.0763 166.309 25.3723 166.668 25.5837C167.028 25.7951 167.461 25.9008 167.968 25.9008C168.687 25.9008 169.258 25.6788 169.681 25.2348C170.104 24.7697 170.315 24.1355 170.315 23.3321V14.4526H175.167V23.3638C175.167 24.7169 174.861 25.9114 174.247 26.9473C173.634 27.9621 172.789 28.7655 171.71 29.3575C170.632 29.9283 169.385 30.2137 167.968 30.2137Z" fill="#1E1E1E" fill-opacity="0.5"/>
<path d="M182.431 14.4525H177.579V29.8648H182.431V20.8584C182.431 20.3299 182.537 19.8859 182.748 19.5265C182.981 19.1671 183.288 18.8922 183.668 18.702C184.049 18.4905 184.482 18.3848 184.968 18.3848C185.666 18.3848 186.247 18.6068 186.712 19.0508C187.199 19.4736 187.442 20.0762 187.442 20.8584V29.8648H192.294V20.8584C192.294 20.3299 192.4 19.8859 192.611 19.5265C192.844 19.1671 193.15 18.8922 193.531 18.702C193.911 18.4905 194.345 18.3848 194.831 18.3848C195.529 18.3848 196.11 18.6068 196.575 19.0508C197.061 19.4736 197.304 20.0762 197.304 20.8584V29.8648H202.157V20.3193C202.157 19.0297 201.882 17.9303 201.332 17.0212C200.803 16.0909 200.074 15.3827 199.144 14.8965C198.235 14.389 197.188 14.1353 196.004 14.1353C194.799 14.1353 193.71 14.3996 192.738 14.9282C192.106 15.2649 191.554 15.6995 191.081 16.2319C190.64 15.675 190.104 15.2193 189.471 14.8647C188.626 14.3785 187.664 14.1353 186.586 14.1353C185.444 14.1353 184.419 14.3785 183.51 14.8647C183.114 15.067 182.755 15.3093 182.431 15.5916V14.4525Z" fill="#1E1E1E" fill-opacity="0.5"/>
</g>
<defs>
<clipPath id="clip0_2_543">
<rect width="202" height="40" fill="white" transform="translate(0.600098)"/>
</clipPath>
</defs>
</svg>
