<svg width="107" height="62" viewBox="0 0 107 62" fill="none" xmlns="http://www.w3.org/2000/svg">
<path d="M78.5749 34.2132H55.5056C55.1216 34.2132 54.8123 34.5233 54.8123 34.9083V60.5907C54.8123 60.9756 55.1243 61.2857 55.5056 61.2857H78.5749C78.9588 61.2857 79.2681 60.9756 79.2681 60.5907V55.7172C79.2681 55.3323 78.9588 55.0222 78.5749 55.0222H61.0569V40.4714H78.5749C78.9588 40.4714 79.2681 40.1613 79.2681 39.7763V34.9029C79.2681 34.518 78.9588 34.2079 78.5749 34.2079V34.2132Z" fill="#E11F27"/>
<path d="M28.0794 34.2132C27.6955 34.2132 27.3862 34.526 27.3862 34.9083V60.5907C27.3862 60.9756 27.6981 61.2857 28.0794 61.2857H51.1861C51.5673 61.2857 51.8793 60.9756 51.8793 60.5907V55.7172C51.8793 55.3323 51.57 55.0222 51.1861 55.0222H33.6308V50.8786H51.1861C51.57 50.8786 51.8793 50.5685 51.8793 50.1835V45.3101C51.8793 44.9251 51.57 44.615 51.1861 44.615H33.6308V40.4714H51.1861C51.57 40.4714 51.8793 40.1613 51.8793 39.7763V34.9029C51.8793 34.5206 51.57 34.2079 51.1861 34.2079H28.0794V34.2132Z" fill="#E11F27"/>
<path d="M23.8186 34.2134H0.637259C0.2853 34.2134 0 34.5235 0 34.9084V39.7792C0 40.1641 0.2853 40.4742 0.637259 40.4742H9.10561V60.5908C9.10561 60.9758 9.41757 61.2859 9.79886 61.2859H14.657C15.0409 61.2859 15.3502 60.9758 15.3502 60.5908V40.4742H23.8186C24.1705 40.4742 24.4558 40.1614 24.4558 39.7792V34.9084C24.4558 34.5235 24.1705 34.2134 23.8186 34.2134Z" fill="#E11F27"/>
<path d="M105.961 34.2132H101.103C100.719 34.2132 100.41 34.526 100.41 34.9083V44.6204H88.4457V34.9083C88.4457 34.5233 88.1364 34.2132 87.7525 34.2132H82.8944C82.5104 34.2132 82.2011 34.526 82.2011 34.9083V60.5933C82.2011 60.9783 82.5131 61.2884 82.8944 61.2884H87.7525C88.1364 61.2884 88.4457 60.9783 88.4457 60.5933V50.8839H100.41V60.596C100.41 60.981 100.722 61.2911 101.103 61.2911H105.961C106.345 61.2911 106.654 60.981 106.654 60.596V34.9109C106.654 34.526 106.342 34.2159 105.961 34.2159V34.2132Z" fill="#E11F27"/>
<path d="M23.7626 0.70874H0.693253C0.309297 0.70874 0 1.01884 0 1.4038V16.7485C0 17.1335 0.309297 17.4436 0.693253 17.4436H18.2192V21.491H0.693253C0.309297 21.491 0 21.8011 0 22.186V27.0488C0 27.4337 0.309297 27.7438 0.693253 27.7438H23.7626C24.1465 27.7438 24.4558 27.4337 24.4558 27.0488V11.8858C24.4558 11.5009 24.1465 11.1907 23.7626 11.1907H6.23661V6.96159H23.7626C24.1465 6.96159 24.4558 6.65149 24.4558 6.26653V1.4038C24.4558 1.01884 24.1465 0.70874 23.7626 0.70874Z" fill="white"/>
<path d="M105.961 6.96159C106.345 6.96159 106.654 6.65149 106.654 6.26653V1.4038C106.654 1.01884 106.345 0.70874 105.961 0.70874H82.8917C82.5078 0.70874 82.1985 1.01884 82.1985 1.4038V27.0488C82.1985 27.4337 82.5078 27.7438 82.8917 27.7438H105.961C106.345 27.7438 106.654 27.4337 106.654 27.0488V22.186C106.654 21.8011 106.345 21.491 105.961 21.491H88.4351V17.3527H105.961C106.345 17.3527 106.654 17.0426 106.654 16.6576V11.7949C106.654 11.41 106.345 11.0999 105.961 11.0999H88.4351V6.96159H105.961Z" fill="white"/>
<path d="M78.5749 0.70874H55.5056C55.1216 0.70874 54.8123 1.01884 54.8123 1.4038V27.0488C54.8123 27.4337 55.1216 27.7438 55.5056 27.7438H60.3557C60.7396 27.7438 61.0489 27.4337 61.0489 27.0488V17.3527H78.5749C78.9588 17.3527 79.2681 17.0426 79.2681 16.6576V11.7949C79.2681 11.41 78.9588 11.0999 78.5749 11.0999H61.0489V6.96159H78.5749C78.9588 6.96159 79.2681 6.65149 79.2681 6.26653V1.4038C79.2681 1.01884 78.9588 0.70874 78.5749 0.70874Z" fill="white"/>
<path d="M44.0802 1.14716C44.0002 0.885178 43.7736 0.70874 43.5176 0.70874H35.7905C35.5345 0.70874 35.3079 0.885178 35.2279 1.14716L27.4555 26.9151C27.3328 27.3241 27.6155 27.7411 28.0181 27.7411H33.0655C33.3748 27.7411 33.6441 27.538 33.7294 27.2412L39.6541 6.82258L45.5787 27.2412C45.664 27.538 45.936 27.7411 46.2426 27.7411H51.2901C51.69 27.7411 51.9753 27.3214 51.8527 26.9151L44.0802 1.14716Z" fill="white"/>
</svg>
