<svg width="51" height="66" viewBox="0 0 51 66" fill="none" xmlns="http://www.w3.org/2000/svg">
<path d="M49.0749 64.4985L49.2609 17.5408L2.11719 64.3125L49.0749 64.4985ZM17.8716 57.8592L42.683 33.2436L42.5851 57.9571L17.8716 57.8592Z" stroke="black" stroke-width="1.5"/>
<path d="M10.9793 40.4154C9.60014 41.7937 7.75146 42.5562 5.7854 42.5562H2V38.7732C2 36.8083 2.76295 34.9608 4.14212 33.5825L28.3511 9.38866L35.1589 16.1923L10.9793 40.4154ZM41.6733 9.71124L37.2717 14.1101L30.4639 7.30652L34.8655 2.90764C36.7435 1.03079 39.7953 1.03079 41.6733 2.90764C43.5514 4.7845 43.5514 7.83438 41.6733 9.71124Z" stroke="black" stroke-width="1.5"/>
</svg>
