<svg width="18" height="17" viewBox="0 0 18 17" fill="none" xmlns="http://www.w3.org/2000/svg">
<path d="M1 7.75C0.585786 7.75 0.25 8.08579 0.25 8.5C0.25 8.91421 0.585786 9.25 1 9.25V7.75ZM17.5303 9.03033C17.8232 8.73744 17.8232 8.26256 17.5303 7.96967L12.7574 3.1967C12.4645 2.90381 11.9896 2.90381 11.6967 3.1967C11.4038 3.48959 11.4038 3.96447 11.6967 4.25736L15.9393 8.5L11.6967 12.7426C11.4038 13.0355 11.4038 13.5104 11.6967 13.8033C11.9896 14.0962 12.4645 14.0962 12.7574 13.8033L17.5303 9.03033ZM1 9.25H17V7.75L1 7.75V9.25Z" fill="white"/>
</svg>
