<svg width="10" height="11" viewBox="0 0 10 11" fill="none" xmlns="http://www.w3.org/2000/svg">
<path d="M0.356689 9.32046C0.060537 9.56896 0.0219083 10.0105 0.27041 10.3066C0.518911 10.6028 0.96044 10.6414 1.25659 10.3929L0.356689 9.32046ZM10.6965 2.20425C10.7302 1.81912 10.4453 1.4796 10.0602 1.4459L3.78416 0.89682C3.39903 0.863126 3.05951 1.14802 3.02581 1.53315C2.99212 1.91828 3.27701 2.2578 3.66214 2.29149L9.24083 2.77956L8.75276 8.35826C8.71906 8.74338 9.00396 9.08291 9.38908 9.1166C9.77421 9.15029 10.1137 8.8654 10.1474 8.48027L10.6965 2.20425ZM1.25659 10.3929L10.4491 2.67947L9.54922 1.60701L0.356689 9.32046L1.25659 10.3929Z" fill="#E11F27"/>
</svg>
