<svg width="23" height="13" viewBox="0 0 23 13" fill="none" xmlns="http://www.w3.org/2000/svg">
<path d="M1.29907 5.75C0.884859 5.75 0.549072 6.08579 0.549072 6.5C0.549072 6.91421 0.884859 7.25 1.29907 7.25V5.75ZM21.8764 7.03033C22.1693 6.73744 22.1693 6.26256 21.8764 5.96967L17.1034 1.1967C16.8105 0.903806 16.3356 0.903806 16.0427 1.1967C15.7499 1.48959 15.7499 1.96447 16.0427 2.25736L20.2854 6.5L16.0427 10.7426C15.7499 11.0355 15.7499 11.5104 16.0427 11.8033C16.3356 12.0962 16.8105 12.0962 17.1034 11.8033L21.8764 7.03033ZM1.29907 7.25H21.346V5.75H1.29907V7.25Z" fill="#1E1E1E"/>
</svg>
