<svg width="22" height="13" viewBox="0 0 22 13" fill="none" xmlns="http://www.w3.org/2000/svg">
<path d="M20.991 5.75C21.4052 5.75 21.741 6.08579 21.741 6.5C21.741 6.91421 21.4052 7.25 20.991 7.25V5.75ZM0.413664 7.03033C0.120771 6.73744 0.120771 6.26256 0.413664 5.96967L5.18664 1.1967C5.47953 0.903806 5.9544 0.903806 6.2473 1.1967C6.54019 1.48959 6.54019 1.96447 6.2473 2.25736L2.00465 6.5L6.2473 10.7426C6.54019 11.0355 6.54019 11.5104 6.2473 11.8033C5.9544 12.0962 5.47953 12.0962 5.18664 11.8033L0.413664 7.03033ZM20.991 7.25H0.943995V5.75H20.991V7.25Z" fill="#1E1E1E"/>
</svg>
