<svg width="48" height="56" viewBox="0 0 48 56" fill="none" xmlns="http://www.w3.org/2000/svg">
<g clip-path="url(#clip0_1_1010)">
<mask id="mask0_1_1010" style="mask-type:luminance" maskUnits="userSpaceOnUse" x="0" y="2" width="48" height="55">
<path d="M47.354 2.43311H0.648438V56.2043H47.354V2.43311Z" fill="white"/>
</mask>
<g mask="url(#mask0_1_1010)">
<path d="M33.516 13.186V16.5012V18.1993H29.1777V13.186H25.7188V21.7773H33.4965V23.9403H25.7188V27.5183H36.975V26.3458V23.9403V21.7773V16.5012V13.186H33.516Z" fill="white"/>
<path d="M4.10739 6.01111H22.262V2.43311H0.648438V56.2043H22.262V52.6263H4.10739V6.01111Z" fill="white"/>
<path d="M25.7188 2.43311V6.01111H43.8929V31.0976V52.606H25.7188V56.2043H47.3518V2.43311H25.7188Z" fill="white"/>
<path d="M11.0234 13.186V27.5183H14.4824V23.3338H18.8012V27.5183H22.2601V13.186H11.0234ZM14.4824 20.5644V16.764H18.8012V20.5644H14.4824Z" fill="white"/>
<path d="M25.7188 31.1196V45.4519H29.1777V41.2674H33.4965V45.4519H36.9554V31.1196H25.7188ZM29.1777 38.498V34.6976H33.4965V38.498H29.1777Z" fill="white"/>
<path d="M16.2803 38.2756L22.182 31.1196H17.6287L14.4824 34.9402V31.1196H11.0234V45.4519H14.4824V41.6111L17.6482 45.4519H22.182L16.2803 38.2756Z" fill="white"/>
</g>
</g>
<defs>
<clipPath id="clip0_1_1010">
<rect width="48.003" height="55.3391" fill="white" transform="translate(0 0.253418)"/>
</clipPath>
</defs>
</svg>
