<svg width="25" height="20" viewBox="0 0 25 20" fill="none" xmlns="http://www.w3.org/2000/svg">
<path d="M23.7422 9.5V17C23.7422 18.3381 22.485 19.4998 20.6064 19.5H3.63672C1.75796 19.5 0.5 18.3382 0.5 17V9.5H23.7422ZM16.9697 0.5C17.2453 0.500005 17.4272 0.576109 17.5303 0.661133C17.6247 0.73915 17.6816 0.846217 17.6816 1V2.5H20.6064C22.485 2.50016 23.7422 3.66192 23.7422 5V6.5H0.5V5C0.5 3.66183 1.75796 2.5 3.63672 2.5H6.56055V1C6.56055 0.846294 6.61754 0.73914 6.71191 0.661133C6.81494 0.576133 6.99704 0.500049 7.27246 0.5C7.54803 0.5 7.72994 0.576106 7.83301 0.661133C7.92757 0.739162 7.98438 0.846121 7.98438 1V2.5H16.2578V1C16.2578 0.846198 16.3147 0.739152 16.4092 0.661133C16.5122 0.576105 16.6942 0.5 16.9697 0.5Z" stroke="#E11F27"/>
</svg>
