<svg width="57" height="58" viewBox="0 0 57 58" fill="none" xmlns="http://www.w3.org/2000/svg">
<path d="M31.5617 21.0777L17.0967 35.5381C15.5796 37.0552 14.7454 39.0696 14.7454 41.2123V42.7477H16.2854C18.4281 42.7477 20.4425 41.9158 21.9573 40.401L36.4246 25.9383M31.5617 21.0777L36.4246 25.9383M31.5617 21.0777L36.3879 16.2537C37.6804 14.9177 39.9698 14.9223 41.2669 16.2721C42.5662 17.4615 42.5594 19.9227 41.2485 21.1144L36.4246 25.9383M31.5617 21.0777L34.0964 23.6112L36.4246 25.9383M45.6875 1.5H11.3125C5.62688 1.5 1 6.12688 1 11.8125V46.1875C1 51.8731 5.62688 56.5 11.3125 56.5H45.6875C51.3731 56.5 56 51.8731 56 46.1875V11.8125C56 6.12688 51.3731 1.5 45.6875 1.5Z" stroke="black" stroke-width="1.5"/>
</svg>
