<svg width="57" height="58" viewBox="0 0 57 58" fill="none" xmlns="http://www.w3.org/2000/svg">
<path d="M30.686 1.69319C21.4129 0.180581 6.68492 7.77752 3.95752 16.5348M51.6473 14.2434C46.9771 7.00225 38.9942 2.08416 29.8513 1.64001L25.9936 10.3284L29.7513 16.5764L27.2512 19.0716L22.251 16.5764L18.5008 20.3193L22.251 24.0621H28.5012L38.5017 30.3001L31.0014 46.5191H26.0011V36.5382L21.0009 31.5478V26.5573L18.5008 24.0621H11.008L3.91763 16.7611C2.05255 20.4615 1 24.636 1 29.0525C1 44.1861 13.3381 56.5 28.5012 56.5C41.9519 56.5 53.1774 46.8135 55.5425 34.0629L45.997 29.0351L43.5044 19.0866L51.6473 14.2434ZM51.6473 14.2434C53.6274 18.0311 56 24.6545 56 29.0525C56 29.8535 55.5345 33.6705 55.467 34.454" stroke="black" stroke-width="1.5"/>
</svg>
