<svg width="45" height="43" viewBox="0 0 45 43" fill="none" xmlns="http://www.w3.org/2000/svg">
<path d="M33.9641 36.6256C35.2949 36.6256 36.5712 37.1543 37.5123 38.0953C38.4533 39.0364 38.982 40.3127 38.982 41.6436C38.982 40.3127 39.5107 39.0364 40.4517 38.0953C41.3928 37.1543 42.6691 36.6256 43.9999 36.6256C42.6691 36.6256 41.3928 36.0969 40.4517 35.1559C39.5107 34.2148 38.982 32.9385 38.982 31.6077C38.982 32.9385 38.4533 34.2148 37.5123 35.1559C36.5712 36.0969 35.2949 36.6256 33.9641 36.6256ZM33.9641 6.51794C35.2949 6.51794 36.5712 7.04662 37.5123 7.98767C38.4533 8.92871 38.982 10.205 38.982 11.5359C38.982 10.205 39.5107 8.92871 40.4517 7.98767C41.3928 7.04662 42.6691 6.51794 43.9999 6.51794C42.6691 6.51794 41.3928 5.98927 40.4517 5.04822C39.5107 4.10718 38.982 2.83084 38.982 1.5C38.982 2.83084 38.4533 4.10718 37.5123 5.04822C36.5712 5.98927 35.2949 6.51794 33.9641 6.51794ZM16.4012 36.6256C16.4012 32.6331 17.9873 28.8041 20.8104 25.9809C23.6336 23.1578 27.4626 21.5718 31.4551 21.5718C27.4626 21.5718 23.6336 19.9858 20.8104 17.1626C17.9873 14.3395 16.4012 10.5105 16.4012 6.51794C16.4012 10.5105 14.8152 14.3395 11.9921 17.1626C9.16894 19.9858 5.33994 21.5718 1.34741 21.5718C5.33994 21.5718 9.16894 23.1578 11.9921 25.9809C14.8152 28.8041 16.4012 32.6331 16.4012 36.6256Z" stroke="white" stroke-width="2" stroke-linecap="round" stroke-linejoin="round"/>
</svg>
