<svg width="61" height="61" viewBox="0 0 61 61" fill="none" xmlns="http://www.w3.org/2000/svg">
<path d="M60.2344 59.5H1" stroke="black" stroke-width="1.5"/>
<path d="M1.73438 59.25V5.4375C1.73438 3.26662 3.501 1.5 5.67188 1.5H34.5469C36.7178 1.5 38.4844 3.26662 38.4844 5.4375V59.25M41.1094 59.25V14.625H55.5469C57.7178 14.625 59.4844 16.3916 59.4844 18.5625V59.25" stroke="black" stroke-width="1.5"/>
<rect x="9" y="12.5" width="9" height="4" fill="#D9D9D9" stroke="black" stroke-width="0.8"/>
<rect x="9" y="23.5" width="9" height="4" fill="#D9D9D9" stroke="black" stroke-width="0.8"/>
<rect x="9" y="34.5" width="9" height="4" fill="#D9D9D9" stroke="black" stroke-width="0.8"/>
<rect x="9" y="45.5" width="9" height="4" fill="#D9D9D9" stroke="black" stroke-width="0.8"/>
<rect x="22" y="12.5" width="9" height="4" fill="#D9D9D9" stroke="black" stroke-width="0.8"/>
<rect x="22" y="23.5" width="9" height="4" fill="#D9D9D9" stroke="black" stroke-width="0.8"/>
<rect x="22" y="34.5" width="9" height="4" fill="#D9D9D9" stroke="black" stroke-width="0.8"/>
<rect x="22" y="45.5" width="9" height="4" fill="#D9D9D9" stroke="black" stroke-width="0.8"/>
<rect x="46" y="23.5" width="7" height="4" fill="#D9D9D9" stroke="black" stroke-width="0.8"/>
<rect x="46" y="34.5" width="7" height="4" fill="#D9D9D9" stroke="black" stroke-width="0.8"/>
<rect x="46" y="45.5" width="7" height="4" fill="#D9D9D9" stroke="black" stroke-width="0.8"/>
</svg>
