<svg width="16" height="16" viewBox="0 0 16 16" fill="none" xmlns="http://www.w3.org/2000/svg">
<path d="M12.1943 2.86272C12.0079 2.86272 11.8257 2.918 11.6706 3.02158C11.5156 3.12516 11.3948 3.27237 11.3235 3.44461C11.2521 3.61685 11.2335 3.80638 11.2698 3.98923C11.3062 4.17208 11.396 4.34004 11.5278 4.47187C11.6596 4.6037 11.8276 4.69347 12.0104 4.72984C12.1933 4.76621 12.3828 4.74755 12.5551 4.6762C12.7273 4.60486 12.8745 4.48404 12.9781 4.32903C13.0817 4.17402 13.137 3.99177 13.137 3.80534C13.137 3.55534 13.0376 3.31558 12.8609 3.13881C12.6841 2.96203 12.4443 2.86272 12.1943 2.86272ZM15.8077 4.76367C15.7923 4.11194 15.6702 3.46713 15.4464 2.85486C15.2475 2.33057 14.9366 1.85605 14.5352 1.4645C14.1462 1.06187 13.6708 0.752964 13.1448 0.56116C12.5342 0.330344 11.8887 0.205486 11.236 0.191967C10.4034 0.144836 10.1363 0.144836 7.99968 0.144836C5.86308 0.144836 5.59601 0.144836 4.76336 0.191967C4.11072 0.205486 3.46517 0.330344 2.85456 0.56116C2.32982 0.75538 1.85488 1.06395 1.4642 1.4645C1.06156 1.85347 0.752659 2.32891 0.560854 2.85486C0.330039 3.46548 0.205181 4.11102 0.191662 4.76367C0.144531 5.59631 0.144531 5.86339 0.144531 7.99999C0.144531 10.1366 0.144531 10.4037 0.191662 11.2363C0.205181 11.889 0.330039 12.5345 0.560854 13.1451C0.752659 13.6711 1.06156 14.1465 1.4642 14.5355C1.85488 14.936 2.32982 15.2446 2.85456 15.4388C3.46517 15.6696 4.11072 15.7945 4.76336 15.808C5.59601 15.8551 5.86308 15.8551 7.99968 15.8551C10.1363 15.8551 10.4034 15.8551 11.236 15.808C11.8887 15.7945 12.5342 15.6696 13.1448 15.4388C13.6708 15.247 14.1462 14.9381 14.5352 14.5355C14.9375 14.1447 15.2487 13.67 15.4464 13.1451C15.6702 12.5328 15.7923 11.888 15.8077 11.2363C15.8077 10.4037 15.8548 10.1366 15.8548 7.99999C15.8548 5.86339 15.8548 5.59631 15.8077 4.76367ZM14.3938 11.1421C14.3882 11.6407 14.2979 12.1347 14.1267 12.6031C14.0013 12.945 13.7998 13.2538 13.5376 13.5065C13.2826 13.7659 12.9744 13.9669 12.6342 14.0956C12.1659 14.2668 11.6718 14.3571 11.1732 14.3627C10.3877 14.4019 10.097 14.4098 8.03111 14.4098C5.9652 14.4098 5.67456 14.4098 4.88904 14.3627C4.37127 14.3728 3.85566 14.2931 3.36514 14.127C3.04009 13.9914 2.74608 13.7909 2.50108 13.5379C2.24036 13.2855 2.04143 12.9764 1.9198 12.6345C1.72738 12.1596 1.62099 11.6542 1.60559 11.1421C1.60559 10.3565 1.55846 10.0659 1.55846 7.99999C1.55846 5.93408 1.55846 5.64344 1.60559 4.85793C1.60845 4.34811 1.70153 3.84282 1.88052 3.36545C2.01881 3.03389 2.23107 2.73834 2.50108 2.50138C2.73903 2.23053 3.03415 2.01589 3.36514 1.87297C3.84384 1.69975 4.34856 1.60943 4.85762 1.60589C5.64314 1.60589 5.93378 1.55876 7.99968 1.55876C10.0656 1.55876 10.3562 1.55876 11.1417 1.60589C11.6404 1.61146 12.1344 1.70177 12.6028 1.87297C12.9598 2.00545 13.2801 2.22083 13.5376 2.50138C13.7942 2.74334 13.9952 3.03816 14.1267 3.36545C14.3014 3.84373 14.3918 4.34873 14.3938 4.85793C14.4331 5.64344 14.4409 5.93408 14.4409 7.99999C14.4409 10.0659 14.4331 10.3565 14.3938 11.1421ZM7.99968 3.9703C7.20302 3.97185 6.4247 4.20951 5.76305 4.65324C5.10141 5.09697 4.58613 5.72686 4.28234 6.46333C3.97854 7.19979 3.89986 8.00978 4.05624 8.79095C4.21261 9.57211 4.59702 10.2894 5.16089 10.8522C5.72477 11.415 6.4428 11.798 7.22427 11.9528C8.00574 12.1077 8.81557 12.0274 9.55145 11.7222C10.2873 11.417 10.9162 10.9005 11.3586 10.2379C11.8011 9.57544 12.0372 8.79665 12.0372 7.99999C12.0383 7.46985 11.9345 6.94473 11.7319 6.45485C11.5292 5.96496 11.2317 5.51997 10.8565 5.14547C10.4813 4.77097 10.0357 4.47434 9.54542 4.27266C9.05514 4.07098 8.52982 3.96822 7.99968 3.9703ZM7.99968 10.6158C7.48233 10.6158 6.9766 10.4623 6.54644 10.1749C6.11628 9.8875 5.78101 9.47897 5.58303 9.001C5.38505 8.52303 5.33325 7.99709 5.43418 7.48968C5.53511 6.98227 5.78424 6.51618 6.15006 6.15036C6.51588 5.78454 6.98197 5.53541 7.48937 5.43448C7.99678 5.33355 8.52273 5.38536 9.00069 5.58334C9.47866 5.78132 9.88719 6.11659 10.1746 6.54675C10.462 6.97691 10.6154 7.48264 10.6154 7.99999C10.6154 8.3435 10.5478 8.68364 10.4163 9.001C10.2849 9.31836 10.0922 9.60672 9.84931 9.84962C9.60641 10.0925 9.31805 10.2852 9.00069 10.4166C8.68334 10.5481 8.34319 10.6158 7.99968 10.6158Z" fill="#E11F27"/>
</svg>
