<svg width="17" height="16" viewBox="0 0 17 16" fill="none" xmlns="http://www.w3.org/2000/svg">
<path d="M12.5348 2.8629C12.3484 2.8629 12.1661 2.91819 12.0111 3.02176C11.8561 3.12534 11.7353 3.27256 11.6639 3.4448C11.5926 3.61704 11.5739 3.80657 11.6103 3.98942C11.6467 4.17227 11.7364 4.34023 11.8683 4.47205C12.0001 4.60388 12.168 4.69366 12.3509 4.73003C12.5337 4.7664 12.7233 4.74773 12.8955 4.67639C13.0678 4.60504 13.215 4.48422 13.3185 4.32921C13.4221 4.1742 13.4774 3.99195 13.4774 3.80552C13.4774 3.55552 13.3781 3.31576 13.2013 3.13899C13.0245 2.96221 12.7848 2.8629 12.5348 2.8629ZM16.1482 4.76385C16.1327 4.11212 16.0107 3.46732 15.7868 2.85505C15.588 2.33075 15.277 1.85623 14.8756 1.46469C14.4867 1.06205 14.0112 0.753147 13.4853 0.561343C12.8746 0.330527 12.2291 0.205669 11.5765 0.19215C10.7438 0.145019 10.4767 0.14502 8.34014 0.14502C6.20354 0.14502 5.93646 0.145019 5.10382 0.19215C4.45117 0.205669 3.80563 0.330527 3.19501 0.561343C2.67027 0.755563 2.19534 1.06414 1.80465 1.46469C1.40202 1.85365 1.09311 2.3291 0.901308 2.85505C0.670493 3.46566 0.545635 4.11121 0.532116 4.76385C0.484985 5.5965 0.484985 5.86357 0.484985 8.00017C0.484985 10.1368 0.484985 10.4039 0.532116 11.2365C0.545635 11.8891 0.670493 12.5347 0.901308 13.1453C1.09311 13.6712 1.40202 14.1467 1.80465 14.5357C2.19534 14.9362 2.67027 15.2448 3.19501 15.439C3.80563 15.6698 4.45117 15.7947 5.10382 15.8082C5.93646 15.8553 6.20354 15.8553 8.34014 15.8553C10.4767 15.8553 10.7438 15.8553 11.5765 15.8082C12.2291 15.7947 12.8746 15.6698 13.4853 15.439C14.0112 15.2472 14.4867 14.9383 14.8756 14.5357C15.278 14.1449 15.5891 13.6702 15.7868 13.1453C16.0107 12.533 16.1327 11.8882 16.1482 11.2365C16.1482 10.4039 16.1953 10.1368 16.1953 8.00017C16.1953 5.86357 16.1953 5.5965 16.1482 4.76385ZM14.7342 11.1422C14.7287 11.6409 14.6384 12.1349 14.4672 12.6033C14.3417 12.9451 14.1403 13.254 13.878 13.5066C13.6231 13.7661 13.3149 13.9671 12.9747 14.0958C12.5063 14.267 12.0123 14.3573 11.5136 14.3628C10.7281 14.4021 10.4375 14.41 8.37156 14.41C6.30565 14.41 6.01501 14.41 5.2295 14.3628C4.71173 14.373 4.19611 14.2933 3.7056 14.1272C3.38054 13.9916 3.08654 13.7911 2.84153 13.5381C2.58081 13.2857 2.38188 12.9766 2.26025 12.6347C2.06783 12.1598 1.96144 11.6544 1.94604 11.1422C1.94604 10.3567 1.89891 10.0661 1.89891 8.00017C1.89891 5.93427 1.89891 5.64363 1.94604 4.85811C1.94891 4.34829 2.04199 3.84301 2.22097 3.36563C2.35926 3.03408 2.57152 2.73852 2.84153 2.50157C3.07948 2.23071 3.37461 2.01608 3.7056 1.87315C4.18429 1.69993 4.68902 1.60961 5.19808 1.60608C5.98359 1.60608 6.27423 1.55895 8.34014 1.55895C10.406 1.55895 10.6967 1.55895 11.4822 1.60608C11.9808 1.61164 12.4749 1.70196 12.9433 1.87315C13.3002 2.00563 13.6206 2.22102 13.878 2.50157C14.1347 2.74352 14.3357 3.03834 14.4672 3.36563C14.6419 3.84392 14.7323 4.34891 14.7342 4.85811C14.7735 5.64363 14.7814 5.93427 14.7814 8.00017C14.7814 10.0661 14.7735 10.3567 14.7342 11.1422ZM8.34014 3.97048C7.54348 3.97203 6.76515 4.20969 6.10351 4.65342C5.44186 5.09715 4.92659 5.72705 4.62279 6.46351C4.319 7.19998 4.24032 8.00997 4.39669 8.79113C4.55306 9.5723 4.93747 10.2896 5.50135 10.8524C6.06522 11.4151 6.78326 11.7982 7.56472 11.953C8.34619 12.1079 9.15603 12.0276 9.8919 11.7224C10.6278 11.4171 11.2567 10.9006 11.6991 10.2381C12.1415 9.57562 12.3777 8.79684 12.3777 8.00017C12.3787 7.47003 12.2749 6.94492 12.0723 6.45503C11.8697 5.96514 11.5722 5.52015 11.197 5.14565C10.8217 4.77115 10.3762 4.47453 9.88587 4.27285C9.39559 4.07117 8.87028 3.96841 8.34014 3.97048ZM8.34014 10.6159C7.82279 10.6159 7.31706 10.4625 6.8869 10.1751C6.45674 9.88768 6.12147 9.47915 5.92349 9.00118C5.7255 8.52321 5.6737 7.99727 5.77463 7.48986C5.87556 6.98245 6.12469 6.51637 6.49051 6.15055C6.85633 5.78473 7.32242 5.5356 7.82983 5.43467C8.33724 5.33374 8.86318 5.38554 9.34115 5.58352C9.81912 5.7815 10.2276 6.11677 10.5151 6.54693C10.8025 6.97709 10.9559 7.48282 10.9559 8.00017C10.9559 8.34368 10.8882 8.68382 10.7568 9.00118C10.6253 9.31854 10.4327 9.6069 10.1898 9.8498C9.94687 10.0927 9.65851 10.2854 9.34115 10.4168C9.02379 10.5483 8.68365 10.6159 8.34014 10.6159Z" fill="white"/>
</svg>
