<svg width="97" height="58" viewBox="0 0 97 58" fill="none" xmlns="http://www.w3.org/2000/svg">
<path d="M2 56.5H19.7843" stroke="black" stroke-width="1.5"/>
<path d="M39.6328 56.5H57.4171" stroke="black" stroke-width="1.5"/>
<path d="M77.2812 56.5H95.0656" stroke="black" stroke-width="1.5"/>
<path d="M85.5527 22.1693L95.4788 49.8797H48.7433H2.00781L8.21164 39.54L10.6932 37.0585H12.7611C13.864 38.0236 16.318 39.7882 17.3106 39.1265C18.3032 38.4647 21.0329 37.1964 22.2737 36.6449C26.2441 39.2919 30.8211 37.7478 32.6134 36.6449L54.5336 3.14422C57.5114 0.166381 58.5316 1.90345 58.6694 3.14422L68.5956 17.2062C69.8363 18.1713 73.4759 20.1013 78.1081 20.1013C82.7403 20.1013 85.0013 21.48 85.5527 22.1693Z" stroke="black" stroke-width="1.5"/>
</svg>
