<svg width="19" height="19" viewBox="0 0 19 19" fill="none" xmlns="http://www.w3.org/2000/svg">
<path d="M9.20605 18.7061C8.13202 18.7061 7.1205 18.5384 6.17151 18.2032C5.22252 17.8679 4.35446 17.393 3.56735 16.7785L1.95629 18.3608C1.74531 18.5718 1.4768 18.6773 1.15076 18.6773C0.824709 18.6773 0.556199 18.5718 0.345227 18.3608C0.134255 18.1499 0.028769 17.8813 0.028769 17.5553C0.028769 17.2292 0.134255 16.9607 0.345227 16.7498L1.92752 15.1675C1.31378 14.3811 0.839286 13.5085 0.504032 12.5495C0.168778 11.5905 0.000767171 10.574 0 9.5C0 6.92998 0.891836 4.75313 2.67551 2.96945C4.45918 1.18578 6.63603 0.293945 9.20605 0.293945H18.4121V9.5C18.4121 12.07 17.5203 14.2469 15.7366 16.0305C13.9529 17.8142 11.7761 18.7061 9.20605 18.7061ZM9.20605 16.4045C11.124 16.4045 12.7542 15.7333 14.0968 14.3907C15.4393 13.0482 16.1106 11.4179 16.1106 9.5V2.59546H9.20605C7.28813 2.59546 5.65789 3.26673 4.31534 4.60928C2.97279 5.95183 2.30151 7.58207 2.30151 9.5C2.30151 10.248 2.41659 10.9626 2.64674 11.6439C2.87689 12.3251 3.19335 12.9434 3.59612 13.4989L9.55128 7.54371C9.76225 7.33274 10.0308 7.22725 10.3568 7.22725C10.6829 7.22725 10.9514 7.33274 11.1623 7.54371C11.3925 7.77386 11.5076 8.04736 11.5076 8.3642C11.5076 8.68104 11.3925 8.95416 11.1623 9.18354L5.20717 15.1387C5.76337 15.5415 6.3821 15.8533 7.06334 16.0743C7.74459 16.2952 8.45883 16.4053 9.20605 16.4045Z" fill="#7DBE3D"/>
</svg>
