<svg width="16" height="16" viewBox="0 0 16 16" fill="none" xmlns="http://www.w3.org/2000/svg">
<path d="M3.82184 2.4007C3.82164 2.82502 3.66225 3.23188 3.37874 3.53177C3.09523 3.83166 2.71081 4.00002 2.31007 3.99981C1.90932 3.9996 1.52507 3.83083 1.24184 3.53064C0.958608 3.23045 0.799605 2.82342 0.799805 2.3991C0.800005 1.97478 0.959393 1.56792 1.24291 1.26803C1.52642 0.968134 1.91083 0.799776 2.31158 0.799988C2.71232 0.8002 3.09658 0.968965 3.37981 1.26916C3.66304 1.56935 3.82204 1.97638 3.82184 2.4007ZM3.86717 5.18454H0.845135V15.2H3.86717V5.18454ZM8.64199 5.18454H5.63506V15.2H8.61177V9.94428C8.61177 7.01644 12.2155 6.74446 12.2155 9.94428V15.2H15.1998V8.85634C15.1998 3.92061 9.86591 4.1046 8.61177 6.52847L8.64199 5.18454Z" fill="#E11F27"/>
</svg>
