<svg width="15" height="16" viewBox="0 0 15 16" fill="none" xmlns="http://www.w3.org/2000/svg">
<path d="M3.16217 2.40052C3.16197 2.82484 3.00258 3.2317 2.71907 3.53159C2.43556 3.83148 2.05115 3.99984 1.6504 3.99963C1.24965 3.99942 0.865399 3.83065 0.582169 3.53046C0.29894 3.23027 0.139937 2.82324 0.140137 2.39892C0.140337 1.97459 0.299725 1.56773 0.583238 1.26784C0.86675 0.967951 1.25116 0.799593 1.65191 0.799805C2.05266 0.800017 2.43691 0.968782 2.72014 1.26897C3.00337 1.56917 3.16237 1.97619 3.16217 2.40052ZM3.2075 5.18436H0.185467V15.1998H3.2075V5.18436ZM7.98232 5.18436H4.97539V15.1998H7.9521V9.9441C7.9521 7.01626 11.5559 6.74428 11.5559 9.9441V15.1998H14.5401V8.85616C14.5401 3.92043 9.20624 4.10442 7.9521 6.52829L7.98232 5.18436Z" fill="white"/>
</svg>
