<svg width="22" height="28" viewBox="0 0 22 28" fill="none" xmlns="http://www.w3.org/2000/svg">
<path d="M13.8571 1V6.77778C13.8571 7.16087 14.0077 7.52827 14.2756 7.79915C14.5435 8.07004 14.9068 8.22222 15.2857 8.22222H21M13.8571 1H3.85714C3.09938 1 2.37266 1.30436 1.83684 1.84614C1.30102 2.38791 1 3.12271 1 3.88889V24.1111C1 24.8773 1.30102 25.6121 1.83684 26.1539C2.37266 26.6956 3.09938 27 3.85714 27H18.1429C18.9006 27 19.6273 26.6956 20.1632 26.1539C20.699 25.6121 21 24.8773 21 24.1111V8.22222M13.8571 1L21 8.22222M6.71429 9.66667H8.14286M6.71429 15.4444H15.2857M6.71429 21.2222H15.2857" stroke="#1E1E1E" stroke-width="1.2" stroke-linecap="round" stroke-linejoin="round"/>
</svg>
