<svg width="32" height="31" viewBox="0 0 32 31" fill="none" xmlns="http://www.w3.org/2000/svg">
<path d="M17.6316 1C24.2439 1.91658 29.4947 7.15503 30.5 13.8032M27.4207 27.024C27.0588 27.8246 26.243 28.5207 24.9734 29.1124C23.7095 29.7041 22.5835 30 21.5954 30C21.3197 30 21.0267 29.9768 20.7165 29.9362C20.4063 29.8898 20.142 29.8492 19.9294 29.8086C19.7111 29.7622 19.4296 29.6867 19.0735 29.5765C18.7173 29.4605 18.4645 29.3735 18.3094 29.3155C18.1543 29.2516 17.867 29.1472 17.4534 28.9906C17.0398 28.834 16.7813 28.7353 16.6779 28.7005C13.8514 27.6563 11.0824 25.771 8.38806 23.0444C5.68798 20.3179 3.82091 17.5275 2.78684 14.6733C2.75237 14.5689 2.66046 14.3079 2.50535 13.8902C2.35024 13.4725 2.24108 13.1882 2.18364 13.0316C2.12619 12.875 2.04001 12.6197 1.92512 12.2601C1.81022 11.9004 1.73554 11.6161 1.68958 11.3957C1.64937 11.1752 1.60341 10.9142 1.56319 10.6009C1.51723 10.2877 1.5 9.9918 1.5 9.71334C1.5 8.72134 1.79299 7.58432 2.37896 6.30226C2.96493 5.02601 3.65431 4.20224 4.4471 3.83677C5.36053 3.45389 6.23374 3.26245 7.061 3.26245C7.25058 3.26245 7.38846 3.27986 7.47463 3.31466C7.5608 3.34947 7.70442 3.5061 7.89975 3.78456C8.10082 4.06301 8.31337 4.41688 8.54891 4.84037C8.78445 5.26965 9.0085 5.68154 9.23829 6.08182C9.46234 6.4821 9.6749 6.87658 9.88746 7.27105C10.0943 7.66553 10.2264 7.90918 10.2724 8.0136C10.3241 8.10062 10.439 8.26305 10.6113 8.5125C10.7837 8.75615 10.9158 8.9766 10.9962 9.16803C11.0824 9.35947 11.1283 9.53931 11.1283 9.71914C11.1283 9.9802 10.9503 10.2993 10.5998 10.6705C10.2436 11.0418 9.85874 11.3899 9.43362 11.7031C9.0085 12.0164 8.6236 12.3529 8.26742 12.7067C7.91698 13.0606 7.73889 13.3565 7.73889 13.5827C7.73889 13.7045 7.76762 13.8496 7.83081 14.012C7.894 14.1802 7.94571 14.3137 7.99741 14.4181C8.04911 14.5225 8.12954 14.6733 8.24444 14.8648C8.35359 15.0562 8.42827 15.178 8.46274 15.2302C9.41064 16.9532 10.5022 18.4383 11.7373 19.6855C12.9724 20.9328 14.4374 22.035 16.1493 22.9922C16.201 23.027 16.3217 23.1024 16.5113 23.2126C16.7008 23.3229 16.8502 23.4041 16.9479 23.4621C17.0513 23.5143 17.1834 23.5723 17.35 23.6303C17.5166 23.6941 17.6545 23.7231 17.7809 23.7231C18.0566 23.7231 18.4358 23.4331 18.9183 22.8588C19.4009 22.2845 19.8892 21.7101 20.3948 21.1474C20.8946 20.5847 21.2967 20.3005 21.6127 20.3005C21.785 20.3005 21.9688 20.3469 22.1584 20.4281C22.348 20.5151 22.5606 20.6485 22.8076 20.8226C23.0489 20.9966 23.2097 21.1068 23.3017 21.1648L24.6747 21.919C25.5881 22.4063 26.3522 22.8356 26.9669 23.2126C27.5758 23.5897 27.909 23.845 27.9607 23.9842C27.9952 24.0712 28.0124 24.2104 28.0124 24.4019C28.0124 25.2372 27.8228 26.119 27.4437 27.0414L27.4207 27.024Z" stroke="#E11F27" stroke-width="1.5" stroke-miterlimit="10" stroke-linecap="round"/>
</svg>
