<svg width="21" height="21" viewBox="0 0 21 21" fill="none" xmlns="http://www.w3.org/2000/svg">
<path d="M16.9162 12.8336C16.2546 12.8341 15.6031 12.9956 15.0179 13.3042C14.4326 13.6127 13.9313 14.059 13.557 14.6046L7.86166 12.033C8.26619 11.0562 8.26776 9.95895 7.86604 8.98097L13.5535 6.39622C14.1082 7.19838 14.9319 7.77519 15.8754 8.02201C16.8189 8.26884 17.8196 8.16933 18.696 7.74154C19.5724 7.31374 20.2665 6.58601 20.6523 5.69033C21.0381 4.79465 21.0901 3.79036 20.7989 2.85962C20.5076 1.92889 19.8925 1.13336 19.0649 0.617333C18.2374 0.10131 17.2523 -0.101027 16.2884 0.0470265C15.3245 0.19508 14.4455 0.683716 13.811 1.4243C13.1765 2.16488 12.8284 3.10836 12.8299 4.0836C12.8336 4.31442 12.857 4.54451 12.8999 4.77135L6.85366 7.51885C6.27296 6.97479 5.54598 6.6122 4.76204 6.47564C3.9781 6.33907 3.17134 6.43447 2.44087 6.75012C1.7104 7.06577 1.08805 7.58792 0.65026 8.25241C0.212472 8.91691 -0.0216793 9.69482 -0.0234276 10.4906C-0.025176 11.2863 0.205555 12.0652 0.640418 12.7317C1.07528 13.3981 1.69534 13.9229 2.42441 14.2418C3.15348 14.5607 3.95982 14.6596 4.74435 14.5265C5.52889 14.3934 6.25745 14.034 6.84054 13.4925L12.9025 16.2295C12.8604 16.4561 12.8373 16.6859 12.8334 16.9163C12.8332 17.7241 13.0726 18.5137 13.5213 19.1854C13.9699 19.8571 14.6077 20.3806 15.3539 20.6898C16.1001 20.999 16.9213 21.08 17.7135 20.9224C18.5057 20.7649 19.2334 20.3759 19.8046 19.8048C20.3758 19.2336 20.7647 18.5059 20.9222 17.7137C21.0798 16.9215 20.9988 16.1003 20.6896 15.3541C20.3805 14.6079 19.8569 13.9701 19.1852 13.5214C18.5136 13.0728 17.7239 12.8334 16.9162 12.8336ZM16.9162 1.74997C17.3777 1.7498 17.829 1.88652 18.2129 2.14283C18.5968 2.39915 18.896 2.76355 19.0728 3.18995C19.2495 3.61635 19.2959 4.08559 19.2059 4.53833C19.116 4.99107 18.8938 5.40696 18.5675 5.73341C18.2411 6.05986 17.8253 6.2822 17.3726 6.37232C16.9199 6.46243 16.4507 6.41627 16.0242 6.23967C15.5977 6.06307 15.2332 5.76396 14.9768 5.38018C14.7203 4.9964 14.5834 4.54518 14.5834 4.0836C14.5839 3.46498 14.8298 2.87181 15.2671 2.4343C15.7045 1.99678 16.2975 1.75067 16.9162 1.74997ZM4.08341 12.8336C3.62183 12.8338 3.17056 12.6971 2.78668 12.4407C2.40281 12.1844 2.10356 11.82 1.9268 11.3936C1.75004 10.9672 1.7037 10.498 1.79365 10.0452C1.88359 9.5925 2.10578 9.17661 2.43211 8.85016C2.75844 8.52371 3.17425 8.30137 3.62695 8.21125C4.07965 8.12114 4.54891 8.1673 4.97538 8.3439C5.40184 8.5205 5.76636 8.81961 6.02282 9.20339C6.27928 9.58717 6.41616 10.0384 6.41616 10.5C6.41547 11.1185 6.1695 11.7116 5.7322 12.149C5.2949 12.5865 4.70196 12.8327 4.08341 12.8336ZM16.9162 19.25C16.4546 19.25 16.0034 19.1131 15.6197 18.8567C15.2359 18.6003 14.9368 18.2358 14.7602 17.8094C14.5835 17.383 14.5373 16.9138 14.6274 16.4611C14.7174 16.0084 14.9397 15.5926 15.266 15.2662C15.5924 14.9399 16.0082 14.7176 16.4609 14.6276C16.9136 14.5375 17.3828 14.5837 17.8092 14.7604C18.2356 14.937 18.6001 15.2361 18.8565 15.6199C19.1129 16.0036 19.2498 16.4548 19.2498 16.9163C19.2493 17.5351 19.0033 18.1284 18.5658 18.566C18.1282 19.0035 17.5349 19.2495 16.9162 19.25Z" fill="#E11F27"/>
</svg>
