<svg width="46" height="46" viewBox="0 0 46 46" fill="none" xmlns="http://www.w3.org/2000/svg">
<path d="M23.9971 26.2105L44.8047 6.92905L43.4971 2.5L23.4641 20.9689L23.9971 26.2105ZM23.9971 26.2105H23.4641H1.1875V20.9689" stroke="#1E1E1E" stroke-width="1.5"/>
<path d="M23.654 20.9686L2.49976 20.5L22.5308 1.5H44.2458" stroke="#1E1E1E" stroke-width="1.5"/>
<path d="M14.6655 26.402V38.757M14.6655 38.757L18.5966 35.9491L20.4686 34.2643L36.9421 20.0372M14.6655 38.757V39.5058M36.9421 20.0372V14.0469M36.9421 20.0372H44.0556M44.0556 20.0372L34.5085 28.8355L22.9022 39.5058M44.0556 20.0372L44.8044 24.9044L40.686 28.8355L33.5725 35.2003L27.9565 40.2546L22.9022 44.7474M22.9022 39.5058H14.6655M22.9022 39.5058V44.7474M14.6655 39.5058H9.04952M22.9022 44.7474H1V39.5058M1 39.5058H9.04952M1 39.5058L9.04952 32.0179M9.04952 39.5058V32.0179M9.04952 26.402V32.0179" stroke="#1E1E1E" stroke-width="1.5"/>
</svg>
