<svg width="23" height="23" viewBox="0 0 23 23" fill="none" xmlns="http://www.w3.org/2000/svg">
<mask id="path-1-inside-1_1_1310" fill="white">
<path d="M5.81765 8.20468L10.8235 0L15.8294 8.20468H5.81765ZM18.2647 23C16.9343 23 15.8125 22.5461 14.8993 21.6382C13.986 20.7303 13.5294 19.615 13.5294 18.2924C13.5294 16.9698 13.986 15.8545 14.8993 14.9466C15.8125 14.0387 16.9343 13.5848 18.2647 13.5848C19.5951 13.5848 20.7169 14.0387 21.6301 14.9466C22.5434 15.8545 23 16.9698 23 18.2924C23 19.615 22.5434 20.7303 21.6301 21.6382C20.7169 22.5461 19.5951 23 18.2647 23ZM0 22.3275V14.2573H8.11765V22.3275H0ZM18.2637 22.0585C19.3242 22.0585 20.2208 21.6945 20.9537 20.9667C21.6865 20.2388 22.0529 19.3477 22.0529 18.2934C22.0529 17.2391 21.6869 16.3477 20.9547 15.6192C20.2225 14.8906 19.3262 14.5263 18.2657 14.5263C17.2052 14.5263 16.3086 14.8903 15.5757 15.6181C14.8429 16.346 14.4765 17.2371 14.4765 18.2914C14.4765 19.3457 14.8426 20.2371 15.5747 20.9656C16.3069 21.6942 17.2032 22.0585 18.2637 22.0585ZM0.947059 21.386H7.17059V15.1988H0.947059V21.386ZM7.44118 7.26316H14.2059L10.8235 1.88304L7.44118 7.26316Z"/>
</mask>
<path d="M5.81765 8.20468L4.96399 7.68384L4.03609 9.20468H5.81765V8.20468ZM10.8235 0L11.6772 -0.520837L10.8235 -1.91999L9.96987 -0.520837L10.8235 0ZM15.8294 8.20468V9.20468H17.611L16.6831 7.68384L15.8294 8.20468ZM0 22.3275H-1V23.3275H0V22.3275ZM0 14.2573V13.2573H-1V14.2573H0ZM8.11765 14.2573H9.11765V13.2573H8.11765V14.2573ZM8.11765 22.3275V23.3275H9.11765V22.3275H8.11765ZM0.947059 21.386H-0.0529412V22.386H0.947059V21.386ZM7.17059 21.386V22.386H8.17059V21.386H7.17059ZM7.17059 15.1988H8.17059V14.1988H7.17059V15.1988ZM0.947059 15.1988V14.1988H-0.0529412V15.1988H0.947059ZM7.44118 7.26316L6.59458 6.73092L5.6313 8.26316H7.44118V7.26316ZM14.2059 7.26316V8.26316H16.0158L15.0525 6.73092L14.2059 7.26316ZM10.8235 1.88304L11.6701 1.35081L10.8235 0.00417278L9.97693 1.35081L10.8235 1.88304ZM5.81765 8.20468L6.6713 8.72552L11.6772 0.520837L10.8235 0L9.96987 -0.520837L4.96399 7.68384L5.81765 8.20468ZM10.8235 0L9.96987 0.520837L14.9758 8.72552L15.8294 8.20468L16.6831 7.68384L11.6772 -0.520837L10.8235 0ZM15.8294 8.20468V7.20468H5.81765V8.20468V9.20468H15.8294V8.20468ZM18.2647 23V22C17.1887 22 16.3233 21.6438 15.6043 20.929L14.8993 21.6382L14.1942 22.3473C15.3017 23.4483 16.6799 24 18.2647 24V23ZM14.8993 21.6382L15.6043 20.929C14.8855 20.2144 14.5294 19.3569 14.5294 18.2924H13.5294H12.5294C12.5294 19.8732 13.0865 21.2461 14.1942 22.3473L14.8993 21.6382ZM13.5294 18.2924H14.5294C14.5294 17.2279 14.8855 16.3704 15.6043 15.6558L14.8993 14.9466L14.1942 14.2375C13.0865 15.3387 12.5294 16.7116 12.5294 18.2924H13.5294ZM14.8993 14.9466L15.6043 15.6558C16.3233 14.941 17.1887 14.5848 18.2647 14.5848V13.5848V12.5848C16.6799 12.5848 15.3017 13.1365 14.1942 14.2375L14.8993 14.9466ZM18.2647 13.5848V14.5848C19.3407 14.5848 20.2061 14.941 20.9251 15.6558L21.6301 14.9466L22.3352 14.2375C21.2278 13.1365 19.8495 12.5848 18.2647 12.5848V13.5848ZM21.6301 14.9466L20.9251 15.6558C21.6439 16.3704 22 17.2279 22 18.2924H23H24C24 16.7116 23.4429 15.3387 22.3352 14.2375L21.6301 14.9466ZM23 18.2924H22C22 19.3569 21.6439 20.2144 20.9251 20.929L21.6301 21.6382L22.3352 22.3473C23.4429 21.2461 24 19.8732 24 18.2924H23ZM21.6301 21.6382L20.9251 20.929C20.2061 21.6438 19.3407 22 18.2647 22V23V24C19.8495 24 21.2278 23.4483 22.3352 22.3473L21.6301 21.6382ZM0 22.3275H1V14.2573H0H-1V22.3275H0ZM0 14.2573V15.2573H8.11765V14.2573V13.2573H0V14.2573ZM8.11765 14.2573H7.11765V22.3275H8.11765H9.11765V14.2573H8.11765ZM8.11765 22.3275V21.3275H0V22.3275V23.3275H8.11765V22.3275ZM18.2637 22.0585V23.0585C19.5803 23.0585 20.7327 22.5956 21.6584 21.6762L20.9537 20.9667L20.249 20.2572C19.709 20.7935 19.068 21.0585 18.2637 21.0585V22.0585ZM20.9537 20.9667L21.6584 21.6762C22.5846 20.7562 23.0529 19.6079 23.0529 18.2934H22.0529H21.0529C21.0529 19.0875 20.7885 19.7213 20.249 20.2572L20.9537 20.9667ZM22.0529 18.2934H23.0529C23.0529 16.9792 22.5852 15.8309 21.66 14.9103L20.9547 15.6192L20.2493 16.328C20.7886 16.8646 21.0529 17.499 21.0529 18.2934H22.0529ZM20.9547 15.6192L21.66 14.9103C20.735 13.9898 19.5827 13.5263 18.2657 13.5263V14.5263V15.5263C19.0697 15.5263 19.7101 15.7914 20.2493 16.328L20.9547 15.6192ZM18.2657 14.5263V13.5263C16.9491 13.5263 15.7967 13.9892 14.871 14.9086L15.5757 15.6181L16.2804 16.3276C16.8204 15.7913 17.4614 15.5263 18.2657 15.5263V14.5263ZM15.5757 15.6181L14.871 14.9086C13.9448 15.8286 13.4765 16.9769 13.4765 18.2914H14.4765H15.4765C15.4765 17.4973 15.7409 16.8635 16.2804 16.3276L15.5757 15.6181ZM14.4765 18.2914H13.4765C13.4765 19.6056 13.9443 20.7539 14.8694 21.6745L15.5747 20.9656L16.2801 20.2568C15.7409 19.7202 15.4765 19.0858 15.4765 18.2914H14.4765ZM15.5747 20.9656L14.8694 21.6745C15.7944 22.595 16.9467 23.0585 18.2637 23.0585V22.0585V21.0585C17.4597 21.0585 16.8193 20.7934 16.2801 20.2568L15.5747 20.9656ZM0.947059 21.386V22.386H7.17059V21.386V20.386H0.947059V21.386ZM7.17059 21.386H8.17059V15.1988H7.17059H6.17059V21.386H7.17059ZM7.17059 15.1988V14.1988H0.947059V15.1988V16.1988H7.17059V15.1988ZM0.947059 15.1988H-0.0529412V21.386H0.947059H1.94706V15.1988H0.947059ZM7.44118 7.26316V8.26316H14.2059V7.26316V6.26316H7.44118V7.26316ZM14.2059 7.26316L15.0525 6.73092L11.6701 1.35081L10.8235 1.88304L9.97693 2.41528L13.3593 7.79539L14.2059 7.26316ZM10.8235 1.88304L9.97693 1.35081L6.59458 6.73092L7.44118 7.26316L8.28777 7.79539L11.6701 2.41528L10.8235 1.88304Z" fill="#E11F27" mask="url(#path-1-inside-1_1_1310)"/>
</svg>
