<svg width="88" height="58" viewBox="0 0 88 58" fill="none" xmlns="http://www.w3.org/2000/svg">
<path d="M9.08911 48.7989H1V7.92066C1 6.06581 1.60314 4.53198 2.80941 3.31919C4.01568 2.1064 5.54125 1.5 7.38614 1.5H62.7327V16.4815H71.6733L87 37.2417M9.08911 48.7989C9.08911 46.6587 9.83416 44.8395 11.3243 43.3413C12.8144 41.8432 14.6238 41.0941 16.7525 41.0941C18.8812 41.0941 20.6906 41.8432 22.1807 43.3413C23.6708 44.8395 24.4158 46.6587 24.4158 48.7989M9.08911 48.7989C9.08911 50.9391 9.83416 52.7583 11.3243 54.2565C12.8144 55.7546 14.6238 56.5037 16.7525 56.5037C18.8812 56.5037 20.6906 55.7546 22.1807 54.2565C23.6708 52.7583 24.4158 50.9391 24.4158 48.7989M87 37.2417V48.7989H77.6337M87 37.2417L79.8079 27.5L72 17.5H62.7327V48.7989V37.2417H72.5H87ZM77.6337 48.7989C77.6337 50.9391 76.8886 52.7583 75.3985 54.2565C73.9084 55.7546 72.099 56.5037 69.9703 56.5037C67.8416 56.5037 66.0322 55.7546 64.5421 54.2565C63.052 52.7583 62.3069 50.9391 62.3069 48.7989C62.3069 46.6587 63.052 44.8395 64.5421 43.3413C66.0322 41.8432 67.8416 41.0941 69.9703 41.0941C72.099 41.0941 73.9084 41.8432 75.3985 43.3413C76.8886 44.8395 77.6337 46.6587 77.6337 48.7989ZM62 48.7989H24.4158" stroke="black" stroke-width="1.5"/>
</svg>
