<svg width="58" height="59" viewBox="0 0 58 59" fill="none" xmlns="http://www.w3.org/2000/svg">
<path d="M25.1416 1.25C27.712 1.26217 30.2832 1.26164 32.8525 1.25195C32.882 1.85077 32.9173 2.44777 32.9531 3.04004C32.9744 3.39059 32.9958 3.73987 33.0156 4.08789L33.0693 5.13086L33.0703 5.13184C33.0806 5.34996 33.1148 5.68384 33.3369 5.97559C33.5124 6.20606 33.7424 6.33211 33.9619 6.40625L34.1758 6.46484C36.8489 7.0568 39.3427 8.09075 41.6455 9.56836V9.56738C41.8751 9.71501 42.1874 9.85705 42.5615 9.80176C42.9101 9.75016 43.1592 9.54627 43.3086 9.41016C43.8239 8.94272 44.3457 8.48091 44.8711 8.01562C45.3264 7.61242 45.7827 7.20431 46.2383 6.79395C48.0477 8.62435 49.8675 10.447 51.7031 12.2549C51.2934 12.7083 50.8747 13.178 50.459 13.6475L49.0645 15.2139C48.952 15.3385 48.747 15.5746 48.6885 15.9102C48.6236 16.2823 48.7613 16.596 48.9092 16.8262V16.8252C50.294 18.9857 51.2969 21.3098 51.9043 23.793L52.0205 24.292C52.083 24.575 52.2072 24.9123 52.5186 25.1514C52.7418 25.3227 52.9905 25.3872 53.2012 25.4131L53.3965 25.4287H53.3975C54.0696 25.4573 54.742 25.4999 55.4238 25.542C56.025 25.5791 56.6335 25.6139 57.2441 25.6406C57.2283 28.2117 57.2267 30.7833 57.2451 33.3555C56.6405 33.3832 56.0228 33.4187 55.4082 33.4561L53.376 33.5732C53.2007 33.5819 52.8699 33.6 52.5752 33.7949C52.2818 33.9891 52.1369 34.2738 52.0596 34.5469L52.0303 34.6621V34.6631C51.471 37.185 50.516 39.5495 49.1729 41.748L48.8994 42.1855V42.1865C48.7738 42.383 48.6323 42.6711 48.6729 43.0244C48.7023 43.28 48.8177 43.4798 48.9277 43.624L49.0332 43.75L49.0342 43.751C49.8911 44.699 50.8166 45.7625 51.6992 46.7402L48.0498 50.374L48.0371 50.3867C47.7197 50.7182 47.3924 51.0421 47.0557 51.376C46.7844 51.645 46.509 51.9213 46.2363 52.2041C45.7796 51.7886 45.3195 51.379 44.8623 50.9746C44.5991 50.7418 44.3372 50.5102 44.0771 50.2783L43.3027 49.5801L43.3008 49.5791L43.1543 49.457C42.991 49.3336 42.7762 49.2154 42.5059 49.1895C42.2323 49.1632 41.9963 49.2395 41.8086 49.335L41.6367 49.4336C39.4875 50.804 37.1809 51.7992 34.7168 52.4043L34.2217 52.5205C33.9858 52.5732 33.6548 52.6729 33.4023 52.9492C33.2035 53.167 33.1178 53.4206 33.083 53.6562L33.0635 53.8838V53.8848C33.0162 55.1963 32.9162 56.4164 32.8486 57.749C30.2782 57.7353 27.7081 57.7359 25.1387 57.7471C25.1105 57.1482 25.0753 56.5515 25.0391 55.9609C25.0178 55.6151 24.9971 55.2712 24.9775 54.9287L24.9258 53.9033C24.9163 53.6705 24.88 53.3292 24.6553 53.0312C24.477 52.7949 24.242 52.6643 24.0146 52.5869L23.793 52.5254H23.792C21.1224 51.9323 18.6329 50.8881 16.3262 49.4121H16.3271C16.1056 49.27 15.7976 49.1292 15.4277 49.1875C15.1727 49.2277 14.9743 49.3526 14.835 49.4629L14.7148 49.5645C14.1984 50.0322 13.6761 50.4954 13.1504 50.9609C12.6857 51.3725 12.2184 51.787 11.7539 52.2051C9.9475 50.3697 8.1239 48.5501 6.29395 46.7412C6.71052 46.2793 7.12346 45.8157 7.53125 45.3545C8.00273 44.8213 8.47154 44.2929 8.94727 43.7734L8.94629 43.7725C9.1153 43.5882 9.30717 43.3179 9.32129 42.9502C9.3313 42.6894 9.24714 42.4688 9.15918 42.3037L9.07324 42.1572L9.07227 42.1562L8.80176 41.7217C7.56086 39.6809 6.65393 37.4998 6.08496 35.1816L5.96875 34.6836L5.96777 34.6816L5.91016 34.4727C5.83748 34.2565 5.71432 34.0272 5.48828 33.8506C5.27032 33.6803 5.02776 33.6157 4.82422 33.5898L4.63672 33.5742H4.63574C3.95268 33.5424 3.26925 33.4994 2.57715 33.4561C1.9728 33.4182 1.36245 33.3814 0.75 33.3535C0.765291 30.7828 0.76294 28.2128 0.75293 25.6455C1.34791 25.6175 1.94088 25.5829 2.52637 25.5459C2.87191 25.5241 3.21496 25.5019 3.55664 25.4824L4.5791 25.4316H4.58008C4.85627 25.4205 5.21231 25.368 5.5127 25.1162C5.73775 24.9274 5.85898 24.6874 5.93066 24.4639L5.98828 24.248C6.53333 21.7635 7.48697 19.4402 8.80859 17.2686L9.07812 16.8369C9.19807 16.6486 9.34704 16.3617 9.31836 16.0059C9.28943 15.6475 9.09352 15.3888 8.94141 15.2217H8.94238C8.46759 14.6999 7.99939 14.1705 7.52734 13.6367C7.12099 13.1772 6.71018 12.715 6.29492 12.2559C8.12545 10.4447 9.94615 8.62282 11.7568 6.79395C12.2152 7.20908 12.676 7.61971 13.1348 8.02539L14.7207 9.43945C14.8786 9.58275 15.1307 9.77816 15.4824 9.81445C15.8411 9.85137 16.1339 9.70665 16.334 9.5791L16.333 9.57812C18.6282 8.11776 21.0944 7.06757 23.7422 6.49121L23.7432 6.49219C24.0726 6.42102 24.4317 6.27551 24.6729 5.93164C24.838 5.69609 24.8953 5.43522 24.918 5.21973L24.9316 5.02246V5.02148C24.9827 3.74894 25.0729 2.53977 25.1416 1.25ZM0.4375 25.6543H0.436523L0.425781 25.373H0.426758L0.4375 25.6543Z" stroke="black" stroke-width="1.5"/>
<path d="M19.6504 12.8047C30.2611 6.68257 43.7619 12.022 47.4102 23.6318L47.5771 24.1895C50.3217 33.9184 44.888 44.1694 35.3584 47.4082L34.9023 47.5566C34.851 47.5725 34.816 47.5803 34.7236 47.6055C34.6854 47.6159 34.6394 47.6291 34.5889 47.6455L34.4268 47.7061L34.4238 47.707C34.3316 47.7472 33.8072 47.9314 33.248 48.0947C33.2423 46.8809 33.238 45.6756 33.2588 44.4746L33.29 43.251C33.3306 42.0851 33.8795 41.1663 34.8779 40.4541L34.877 40.4531C35.1859 40.2329 35.4703 40.0789 35.8584 39.8301L35.8574 39.8291C42.996 35.2724 43.628 25.1437 37.208 19.7412L36.8975 19.4873C36.2387 18.9667 35.5051 18.4491 34.5781 18.0801L33.5508 17.6709V19.5117C33.5508 21.1442 33.5494 22.7784 33.5498 24.4131L33.5605 29.3174C33.5607 29.3477 33.5569 29.3709 33.5557 29.3887L33.5166 29.4111L33.5156 29.4121C32.7991 29.7554 32.0864 30.1067 31.3779 30.4629L29.2627 31.54H29.2617C29.2188 31.5621 29.1945 31.5688 29.1846 31.5713L29.1113 31.54C28.0583 30.9954 26.9974 30.4552 25.9277 29.9307L24.8545 29.4111C24.8374 29.4029 24.8246 29.3939 24.8135 29.3877L24.8096 29.3213V29.3184C24.8176 27.6734 24.8201 26.0283 24.8203 24.3838L24.8174 19.4512C24.8173 19.2215 24.7958 18.956 24.7852 18.7373L24.7305 17.6191L23.7168 18.0947C22.4137 18.7057 21.3713 19.5066 20.4277 20.3965L21.457 21.4883C22.0398 20.9386 22.6446 20.4464 23.3174 20.0225C23.3193 23.1202 23.3247 26.2143 23.3096 29.3086C23.3075 29.5629 23.337 29.8731 23.5107 30.166C23.6437 30.3902 23.8261 30.5465 24.0166 30.6621L24.209 30.7646L24.21 30.7656C24.9167 31.1022 25.6204 31.4484 26.3223 31.8008L28.4238 32.873L28.4258 32.874C28.6501 32.9891 28.9043 33.0741 29.1914 33.0732C29.4774 33.0724 29.7272 32.9858 29.9453 32.874L29.9463 32.875C31.3514 32.1548 32.7504 31.4415 34.1631 30.7646L34.1621 30.7637C34.4202 30.6406 34.6845 30.4618 34.8604 30.1621C34.9887 29.9433 35.0378 29.7155 35.0537 29.5088L35.0605 29.3105V29.3096L35.0498 24.4121C35.0494 22.9429 35.0495 21.4733 35.0498 20.0029C35.2049 20.1011 35.3564 20.2054 35.5068 20.3145L35.9678 20.6641C41.8128 25.2828 41.4491 34.2071 35.3447 38.3721L35.0498 38.5664L35.0488 38.5674C34.8361 38.7038 34.5477 38.8732 34.2734 39.0518L34.0068 39.2334C32.7665 40.1181 31.9557 41.3384 31.8105 42.8848L31.791 43.1982C31.7623 44.0305 31.7493 44.8633 31.7451 45.6934L31.749 48.1738V48.2637C30.0431 48.4855 28.3421 48.4766 26.625 48.2686C26.6331 47.5592 26.6309 46.8505 26.6289 46.1484C26.6279 45.7873 26.6273 45.4278 26.6279 45.0693L26.6357 43.9961C26.6527 42.8692 26.4207 41.8619 25.916 40.9766C25.4126 40.0936 24.6629 39.3762 23.7129 38.7881H23.7139C21.7169 37.5505 20.2879 36.0464 19.3936 34.2949C18.555 32.6526 18.1669 30.7543 18.2568 28.5869L18.2803 28.1504H18.2812C18.382 26.699 18.8302 25.3216 19.5645 24.0381L18.9131 23.666L18.2627 23.293C17.4801 24.6609 16.9695 26.1477 16.8115 27.7285L16.7842 28.0459C16.6042 30.6234 17.0205 32.9464 18.0576 34.9775C19.03 36.8817 20.5286 38.4914 22.5186 39.8047L22.9238 40.0635C23.7085 40.5493 24.258 41.0983 24.6123 41.7197C24.921 42.2612 25.1008 42.8915 25.1318 43.6436L25.1357 43.9736V43.9746C25.1252 44.7037 25.1269 45.4315 25.1289 46.1523C25.1308 46.8327 25.132 47.5064 25.125 48.1787C24.8655 48.0895 24.6011 47.9922 24.3643 47.9004C24.0828 47.7912 23.7987 47.6767 23.6582 47.6289H23.6592C16.7759 45.2812 12.343 40.7144 10.6455 33.7822L10.4893 33.1045C8.79108 25.1974 12.4269 17.1599 19.3193 13L19.6504 12.8047Z" stroke="black" stroke-width="1.5"/>
<path d="M18.9281 23.6887L21.1788 20.7145" stroke="black" stroke-width="1.5"/>
</svg>
