<svg width="106" height="42" viewBox="0 0 106 42" fill="none" xmlns="http://www.w3.org/2000/svg">
<path d="M1.323 37.3509V40.5H20.7019V35.2919C20.7019 34.0807 20.8432 32.8494 21.1258 31.5978C21.4084 30.3463 21.8727 29.1149 22.5187 27.9037C21.5497 27.7422 20.6615 27.6211 19.8541 27.5404C19.0466 27.4596 18.3199 27.4193 17.6739 27.4193C12.91 27.4193 8.9938 28.368 5.92548 30.2655C2.85716 32.163 1.323 34.5248 1.323 37.3509Z" stroke="white" stroke-width="2"/>
<path d="M30.3913 35.7764V40.5H75.9317V35.7764C75.9317 34.0129 75.4068 32.4012 74.3572 30.9414C73.3075 29.4815 71.7329 28.2267 69.6336 27.177C67.5342 26.1273 65.1118 25.3401 62.3665 24.8152C59.6211 24.2904 56.5367 24.028 53.1131 24.028C49.7541 24.028 46.7019 24.2904 43.9565 24.8152C41.2112 25.3401 38.7888 26.1273 36.6895 27.177C34.5901 28.2267 33.0155 29.4815 31.9659 30.9414C30.9162 32.4012 30.3913 34.0129 30.3913 35.7764Z" stroke="white" stroke-width="2"/>
<path d="M85.6211 35.3283V40.5H105V37.3509C105 34.5248 103.486 32.163 100.458 30.2655C97.4301 28.368 93.5342 27.4193 88.7702 27.4193C88.1242 27.4193 87.4177 27.4596 86.6506 27.5404C85.8836 27.6211 84.9752 27.7422 83.9255 27.9037C84.4907 29.0342 84.9146 30.2094 85.1972 31.4295C85.4798 32.6495 85.6211 33.9491 85.6211 35.3283Z" stroke="white" stroke-width="2"/>
<path d="M13.3742 21.1587C14.545 22.3448 15.9674 22.9379 17.6412 22.9379C19.3668 22.9379 20.8129 22.3323 21.9797 21.1211C23.1464 19.9099 23.7298 18.509 23.7298 16.9183C23.7298 15.2792 23.1242 13.8742 21.9131 12.7034C20.7019 11.5326 19.2888 10.9472 17.6739 10.9472C16.009 10.9472 14.5834 11.5326 13.3973 12.7034C12.2111 13.8742 11.618 15.2671 11.618 16.882C11.618 18.547 12.2034 19.9725 13.3742 21.1587Z" stroke="white" stroke-width="2"/>
<path d="M84.5311 21.1211C85.7422 22.3323 87.1553 22.9379 88.7702 22.9379C90.486 22.9379 91.9245 22.3448 93.0856 21.1587C94.2459 19.9725 94.8261 18.547 94.8261 16.882C94.8261 15.2671 94.2407 13.8742 93.0699 12.7034C91.8991 11.5326 90.4735 10.9472 88.7932 10.9472C87.163 10.9472 85.7422 11.5326 84.5311 12.7034C83.3199 13.8742 82.7143 15.2792 82.7143 16.9183C82.7143 18.509 83.3199 19.9099 84.5311 21.1211Z" stroke="white" stroke-width="2"/>
<path d="M46.5 17.639C48.3572 19.4759 50.5918 20.3944 53.2039 20.3944C55.8685 20.3944 58.1023 19.4658 59.9054 17.6087C61.7076 15.7516 62.6087 13.5169 62.6087 10.9048C62.6087 8.24022 61.7036 6.0064 59.8932 4.20335C58.0821 2.40112 55.8382 1.5 53.1615 1.5C50.5373 1.5 48.3067 2.40515 46.4697 4.21546C44.6328 6.02658 43.7143 8.2705 43.7143 10.9472C43.7143 13.5714 44.6429 15.802 46.5 17.639Z" stroke="white" stroke-width="2"/>
</svg>
