<svg width="17" height="12" viewBox="0 0 17 12" fill="none" xmlns="http://www.w3.org/2000/svg">
<path d="M6.75014 8.2712L10.876 5.9999L6.75014 3.7286V8.2712ZM15.9398 2.3431C16.0432 2.69894 16.1147 3.17591 16.1624 3.78159C16.2181 4.38727 16.2419 4.90967 16.2419 5.36393L16.2896 5.9999C16.2896 7.65795 16.1624 8.87688 15.9398 9.65669C15.7411 10.3381 15.28 10.7772 14.5646 10.9665C14.1909 11.0649 13.5073 11.133 12.4579 11.1785C11.4245 11.2315 10.4785 11.2542 9.60403 11.2542L8.34005 11.2996C5.00919 11.2996 2.93436 11.1785 2.11556 10.9665C1.4001 10.7772 0.939022 10.3381 0.740283 9.65669C0.636939 9.30085 0.565393 8.82388 0.517696 8.2182C0.462049 7.61252 0.4382 7.09012 0.4382 6.63586L0.390503 5.9999C0.390503 4.34185 0.517696 3.12292 0.740283 2.3431C0.939022 1.66171 1.4001 1.22259 2.11556 1.03332C2.48918 0.934896 3.17285 0.866757 4.22219 0.821331C5.25563 0.768334 6.20162 0.745621 7.07608 0.745621L8.34005 0.700195C11.6709 0.700195 13.7457 0.821331 14.5646 1.03332C15.28 1.22259 15.7411 1.66171 15.9398 2.3431Z" fill="white"/>
</svg>
