<svg id="ekJcvdI10TP1" xmlns="http://www.w3.org/2000/svg" xmlns:xlink="http://www.w3.org/1999/xlink" viewBox="0 0 54 52" shape-rendering="geometricPrecision" text-rendering="geometricPrecision" project-id="51c4fcd44e564ee68c3bc7845c48f4f5" export-id="a88c7c887712448881e1851b7bdb21a1" cached="false">
<style><![CDATA[
#ekJcvdI10TP2 {animation: ekJcvdI10TP2_s_do 9677.41935483871ms linear infinite normal forwards}@keyframes ekJcvdI10TP2_s_do { 0% {stroke-dashoffset: 307.35} 73.333333% {stroke-dashoffset: 0} 100% {stroke-dashoffset: 0}}
]]></style>
<path id="ekJcvdI10TP2" d="M1.8599,50.9418c-.11658-.0004-.23188-.0243-.33893-.0704s-.20364-.1133-.28392-.1978-.14258-.1842-.18315-.2933-.058556-.2254-.05288-.3416L3.2981,1.81903c.01086-.22158.10694-.43042.2682-.583s.37526-.237129.59741-.23602h6.40279c.221.00062.4333.08594.5932.23834.1598.15241.2549.36027.2657.58068l1.29,27.82817l20.8539-8.2877c.1309-.0526.2728-.0722.4132-.0573s.2749.0642.3918.1432.2126.1856.2786.3102c.0661.1245.1005.2634.1003.4044v6.9407l16.9754-7.4435c.1313-.058.2751-.0823.4182-.0707.1432.0116.2812.0587.4014.1371.1203.0783.2191.1854.2874.3116s.104.2673.1038.4107v9.9796v17.6502c.0007.1139-.0213.2268-.0646.3322s-.1072.2011-.1879.2817-.1766.1443-.2821.1876-.2186.0652-.3327.0646h-.8588-5.9061m-43.4473,0h10.9414h24.2574h7.3897.8588m-43.4473,0h9.7431h2.0775h6.46v-12.9934c.0009-.2272.0917-.4448.2525-.6055s.3788-.2513.6064-.2522h7.3896c.2287-.0008.4484.089.6107.2499.1623.1608.2541.3795.255.6078v12.9121m6.9383,0v-12.9121c.0009-.2283.0927-.447.255-.6078.1623-.1609.382-.2507.6106-.2499h7.3897c.2276.0009.4455.0916.6064.2522s.2516.3783.2525.6055v11.2695v1.7239" fill="none" stroke="#e11f27" stroke-width="2" stroke-dashoffset="307.35" stroke-dasharray="307.35"/></svg>
