<svg id="ebMYmz3GH7N1" xmlns="http://www.w3.org/2000/svg" xmlns:xlink="http://www.w3.org/1999/xlink" viewBox="0 0 53 52" shape-rendering="geometricPrecision" text-rendering="geometricPrecision" project-id="5a821550b9744e7b9c5d0ae521f18bd2" export-id="6ce6c4489c7f4b2187a22053bce4f767" cached="false">
<style><![CDATA[
#ebMYmz3GH7N2 {animation: ebMYmz3GH7N2_s_do 3000ms linear infinite normal forwards}@keyframes ebMYmz3GH7N2_s_do { 0% {stroke-dashoffset: 211.76} 50% {stroke-dashoffset: 423.52} 100% {stroke-dashoffset: 423.52}} #ebMYmz3GH7N3 {animation: ebMYmz3GH7N3_c_o 3000ms linear infinite normal forwards}@keyframes ebMYmz3GH7N3_c_o { 0% {opacity: 0} 50% {opacity: 0} 66.666667% {opacity: 1} 100% {opacity: 1}} #ebMYmz3GH7N4 {animation: ebMYmz3GH7N4_c_o 3000ms linear infinite normal forwards}@keyframes ebMYmz3GH7N4_c_o { 0% {opacity: 0} 50% {opacity: 0} 66.666667% {opacity: 1} 100% {opacity: 1}} #ebMYmz3GH7N5 {animation: ebMYmz3GH7N5_c_o 3000ms linear infinite normal forwards}@keyframes ebMYmz3GH7N5_c_o { 0% {opacity: 0} 50% {opacity: 0} 66.666667% {opacity: 1} 100% {opacity: 1}} #ebMYmz3GH7N6 {animation: ebMYmz3GH7N6_c_o 3000ms linear infinite normal forwards}@keyframes ebMYmz3GH7N6_c_o { 0% {opacity: 0} 50% {opacity: 0} 66.666667% {opacity: 1} 100% {opacity: 1}} #ebMYmz3GH7N7 {animation: ebMYmz3GH7N7_c_o 3000ms linear infinite normal forwards}@keyframes ebMYmz3GH7N7_c_o { 0% {opacity: 0} 66.666667% {opacity: 0} 83.333333% {opacity: 1} 100% {opacity: 1}} #ebMYmz3GH7N8_ts {animation: ebMYmz3GH7N8_ts__ts 3000ms linear infinite normal forwards}@keyframes ebMYmz3GH7N8_ts__ts { 0% {transform: translate(26.136801px,21.760901px) scale(0.7,0.7)} 10.333333% {transform: translate(26.136801px,21.760901px) scale(0.7,0.7)} 66.666667% {transform: translate(26.136801px,21.760901px) scale(1,1)} 100% {transform: translate(26.136801px,21.760901px) scale(1,1)}}
]]></style>
<path id="ebMYmz3GH7N2" d="M32.8759,50.9543h-11.3843-2.2768m13.6611,0v-13.6621c0-3.7662-3.0647-6.831-6.8306-6.831s-6.8305,3.0648-6.8305,6.831v13.6621m13.6611,0h17.2147c.5523,0,1-.4478,1-1v-25.3242c0-.5522-.4477-1-1-1h-10.4394c-.2596,0-.509-.1009-.6955-.2814L26.7408,11.5248c-.3877-.3753-1.0033-.3753-1.391,0L13.135,23.3487c-.1866.1805-.436.2814-.6956.2814h-10.4394c-.55228,0-1,.4478-1,1v25.3242c0,.5522.44772,1,1,1h17.2148" transform="translate(-.0047 0)" fill="none" stroke="#e11f27" stroke-width="2" stroke-dashoffset="211.76" stroke-dasharray="211.76"/><path id="ebMYmz3GH7N3" d="M44.7174,34.8828h-5.4645" opacity="0" fill="none" stroke="#e11f27" stroke-width="2" stroke-linecap="round"/><path id="ebMYmz3GH7N4" d="M11.9283,43.625h-5.46443" opacity="0" fill="none" stroke="#e11f27" stroke-width="2" stroke-linecap="round"/><path id="ebMYmz3GH7N5" d="M11.9283,34.8828h-5.46443" opacity="0" fill="none" stroke="#e11f27" stroke-width="2" stroke-linecap="round"/><path id="ebMYmz3GH7N6" d="M44.7174,43.625h-5.4645" opacity="0" fill="none" stroke="#e11f27" stroke-width="2" stroke-linecap="round"/><path id="ebMYmz3GH7N7" d="M26.1367,7.56195l6.2041-3.10209c.1474-.0737.1474-.28406,0-.35777L26.4262,1.14472c-.133-.06649-.2895.03021-.2895.17889v6.23834Zm0,0v3.82055" opacity="0" fill="none" stroke="#e11f27" stroke-width="2"/><g id="ebMYmz3GH7N8_ts" transform="translate(26.136801,21.760901) scale(0.7,0.7)"><ellipse rx="1.09289" ry="1.0929" transform="translate(-0.000001,-0.000001)" fill="none" stroke="#e11f27" stroke-width="2"/></g></svg>
