<svg id="exDdhZynFWc1" xmlns="http://www.w3.org/2000/svg" xmlns:xlink="http://www.w3.org/1999/xlink" viewBox="0 0 32 45" shape-rendering="geometricPrecision" text-rendering="geometricPrecision" project-id="756342025af445f7928804575455bda3" export-id="f914188027084963bca955d6f48ec57e" cached="false">
<style><![CDATA[
#exDdhZynFWc2_to {animation: exDdhZynFWc2_to__to 3000ms linear infinite alternate-reverse forwards}@keyframes exDdhZynFWc2_to__to { 0% {transform: translate(16px,14.54591px)} 33.333333% {transform: translate(16px,22.54591px)} 100% {transform: translate(16px,22.54591px)}} #exDdhZynFWc3_to {animation: exDdhZynFWc3_to__to 3000ms linear infinite alternate-reverse forwards}@keyframes exDdhZynFWc3_to__to { 0% {transform: translate(16px,7.62957px)} 33.333333% {transform: translate(16px,15.62957px)} 100% {transform: translate(16px,15.62957px)}}
]]></style>
<g id="exDdhZynFWc2_to" transform="translate(16,22.54591)"><path d="M1,15.6296C1,26.5384,13.8531,43.4609,13.8531,43.4609c.7632.667,2.01.6743,2.7675,0c0,0,14.3794-16.9225,14.3794-27.8313c0-3.8461-1.5804-7.53466-4.3934-10.25424s-6.6284-4.24743-10.6066-4.24743-7.79356,1.52785-10.6066,4.24743-4.3934,6.40814-4.3934,10.25424Z" transform="translate(-16,-22.54591)" fill="none" stroke="#e11f27" stroke-width="1.5" stroke-linecap="round" stroke-miterlimit="10"/></g><g id="exDdhZynFWc3_to" transform="translate(16,15.62957)"><path d="M10.6967,20.7567c1.4065,1.3597,3.3142,2.1237,5.3033,2.1237s3.8968-.764,5.3033-2.1237s2.1967-3.2041,2.1967-5.1271-.7902-3.7674-2.1967-5.1271C19.8968,9.14266,17.9891,8.37874,16,8.37874s-3.8968.76392-5.3033,2.12376C9.29018,11.8622,8.5,13.7065,8.5,15.6296s.79018,3.7673,2.1967,5.1271Z" transform="translate(-16,-15.62957)" fill="none" stroke="#e11f27" stroke-width="1.5" stroke-linecap="round" stroke-miterlimit="10"/></g></svg>
