<svg id="e1YwPEdRyeo1" xmlns="http://www.w3.org/2000/svg" xmlns:xlink="http://www.w3.org/1999/xlink" viewBox="0 0 32 31" shape-rendering="geometricPrecision" text-rendering="geometricPrecision" project-id="55cf3480af0b4caca6a3e59dca56d390" export-id="b87040ad92ab45dc97e77ee230447e05" cached="false">
<style><![CDATA[
#e1YwPEdRyeo2 {animation: e1YwPEdRyeo2_s_do 2500ms linear infinite normal forwards}@keyframes e1YwPEdRyeo2_s_do { 0% {stroke-dashoffset: 109.94} 40% {stroke-dashoffset: 0} 100% {stroke-dashoffset: 0}}
]]></style>
<path id="e1YwPEdRyeo2" d="M17.6316,1C24.2439,1.91658,29.4947,7.15503,30.5,13.8032M27.4207,27.024c-.3619.8006-1.1777,1.4967-2.4473,2.0884-1.2639.5917-2.3899.8876-3.378.8876-.2757,0-.5687-.0232-.8789-.0638-.3102-.0464-.5745-.087-.7871-.1276-.2183-.0464-.4998-.1219-.8559-.2321-.3562-.116-.609-.203-.7641-.261-.1551-.0639-.4424-.1683-.856-.3249s-.6721-.2553-.7755-.2901c-2.8265-1.0442-5.5955-2.9295-8.28984-5.6561-2.70008-2.7265-4.56715-5.5169-5.60122-8.3711-.03447-.1044-.12638-.3654-.28149-.7831s-.26427-.702-.32171-.8586-.14363-.4119-.25852-.7715-.18958-.644-.23554-.8644c-.04021-.2205-.08617-.4815-.12639-.7948C1.51723,10.2877,1.5,9.9918,1.5,9.71334c0-.992.29299-2.12902.87896-3.41108.58597-1.27625,1.27535-2.10002,2.06814-2.46549.91343-.38288,1.78664-.57432,2.6139-.57432.18958,0,.32746.01741.41363.05221s.22979.19144.42512.4699c.20107.27845.41362.63232.64916,1.05581.23554.42928.45959.84117.68938,1.24145.22405.40028.43661.79476.64917,1.18923.20684.39448.33894.63813.38494.74255.0517.08702.1666.24945.3389.4989.1724.24365.3045.4641.3849.65553.0862.19144.1321.37128.1321.55111c0,.26106-.178.58016-.5285.95136-.3562.3713-.74106.7194-1.16618,1.0326-.42512.3133-.81002.6498-1.1662,1.0036-.35044.3539-.52853.6498-.52853.876c0,.1218.02873.2669.09192.4293.06319.1682.1149.3017.1666.4061s.13213.2552.24703.4467c.10915.1914.18383.3132.2183.3654.9479,1.723,2.03946,3.2081,3.27456,4.4553s2.7001,2.3495,4.412,3.3067c.0517.0348.1724.1102.362.2204.1895.1103.3389.1915.4366.2495.1034.0522.2355.1102.4021.1682.1666.0638.3045.0928.4309.0928.2757,0,.6549-.29,1.1374-.8643.4826-.5743.9709-1.1487,1.4765-1.7114.4998-.5627.9019-.8469,1.2179-.8469.1723,0,.3561.0464.5457.1276.1896.087.4022.2204.6492.3945.2413.174.4021.2842.4941.3422l1.373.7542c.9134.4873,1.6775.9166,2.2922,1.2936.6089.3771.9421.6324.9938.7716.0345.087.0517.2262.0517.4177c0,.8353-.1896,1.7171-.5687,2.6395l-.023-.0174Z" fill="none" stroke="#e11f27" stroke-width="1.5" stroke-linecap="round" stroke-miterlimit="10" stroke-dashoffset="109.94" stroke-dasharray="109.94"/></svg>
