<svg id="egTw8KVeD9P1" xmlns="http://www.w3.org/2000/svg" xmlns:xlink="http://www.w3.org/1999/xlink" viewBox="0 0 43 42" shape-rendering="geometricPrecision" text-rendering="geometricPrecision" project-id="305159d75d0a49fb94293498614d8aa3" export-id="e8da35231bd643b28344254d2a5059d4" cached="false">
<style><![CDATA[
#egTw8KVeD9P2_ts {animation: egTw8KVeD9P2_ts__ts 3000ms linear infinite normal forwards}@keyframes egTw8KVeD9P2_ts__ts { 0% {transform: translate(33.726601px,32.832001px) scale(0.5,0.5)} 33.333333% {transform: translate(33.726601px,32.832001px) scale(1,1)} 100% {transform: translate(33.726601px,32.832001px) scale(1,1)}} #egTw8KVeD9P2 {animation: egTw8KVeD9P2_c_o 3000ms linear infinite normal forwards}@keyframes egTw8KVeD9P2_c_o { 0% {opacity: 0} 33.333333% {opacity: 1} 100% {opacity: 1}} #egTw8KVeD9P3 {animation: egTw8KVeD9P3_c_o 3000ms linear infinite normal forwards}@keyframes egTw8KVeD9P3_c_o { 0% {opacity: 0} 16.666667% {opacity: 1} 100% {opacity: 1}} #egTw8KVeD9P4 {animation: egTw8KVeD9P4_s_do 3000ms linear infinite normal forwards}@keyframes egTw8KVeD9P4_s_do { 0% {stroke-dashoffset: 37.87} 16.666667% {stroke-dashoffset: 75.74} 100% {stroke-dashoffset: 75.74}}
]]></style>
<g id="egTw8KVeD9P2_ts" transform="translate(33.726601,32.832001) scale(0.5,0.5)"><path id="egTw8KVeD9P2" d="M33.7266,25.832l2.17,4.6l4.83.747-3.489,3.591.815,5.062-4.326-2.379-4.326,2.379.815-5.061-3.489-3.592l4.83-.747l2.17-4.6Z" transform="translate(-33.726601,-32.832001)" opacity="0" fill="none" stroke="#e11f27" stroke-width="2" stroke-linecap="square" stroke-miterlimit="10"/></g><path id="egTw8KVeD9P3" d="M20.2266,18.832c4.6944,0,8.5-3.8055,8.5-8.5c0-4.69439-3.8056-8.49997-8.5-8.49997-4.6945,0-8.5,3.80558-8.5,8.49997c0,4.6945,3.8055,8.5,8.5,8.5Z" opacity="0" fill="none" stroke="#e11f27" stroke-width="2" stroke-miterlimit="10"/><path id="egTw8KVeD9P4" d="M28.0656,24.6111c-2.4574-1.127-5.1315-1.7034-7.835-1.689-5.0298,0-9.8536,1.9981-13.41026,5.5548-3.55662,3.5566-5.55471,8.3804-5.55472,13.4102" fill="none" stroke="#e11f27" stroke-width="2" stroke-dashoffset="37.87" stroke-dasharray="37.87"/></svg>
