<svg width="43" height="42" viewBox="0 0 43 42" fill="none" xmlns="http://www.w3.org/2000/svg">
<path d="M33.7266 25.832L35.8966 30.432L40.7266 31.179L37.2376 34.77L38.0526 39.832L33.7266 37.453L29.4006 39.832L30.2156 34.771L26.7266 31.179L31.5566 30.432L33.7266 25.832Z" stroke="#E11F27" stroke-width="2" stroke-miterlimit="10" stroke-linecap="square"/>
<path d="M20.2266 18.832C24.921 18.832 28.7266 15.0265 28.7266 10.332C28.7266 5.63761 24.921 1.83203 20.2266 1.83203C15.5321 1.83203 11.7266 5.63761 11.7266 10.332C11.7266 15.0265 15.5321 18.832 20.2266 18.832Z" stroke="#E11F27" stroke-width="2" stroke-miterlimit="10"/>
<path d="M28.0656 24.6111C25.6082 23.4841 22.9341 22.9077 20.2306 22.9221C15.2008 22.9221 10.377 24.9202 6.82034 28.4769C3.26372 32.0335 1.26563 36.8573 1.26562 41.8871" stroke="#E11F27" stroke-width="2"/>
</svg>
