<svg width="58" height="53" viewBox="0 0 58 53" fill="none" xmlns="http://www.w3.org/2000/svg">
<path d="M38.3333 11.0558H46.5C52.289 11.0558 57 15.6444 57 21.283V41.7376C57 47.3762 52.289 51.9648 46.5 51.9648H11.5C5.711 51.9648 1 47.3762 1 41.7376V21.283C1 15.6444 5.711 11.0558 11.5 11.0558H19.6667M38.3333 11.0558V7.64666C38.3333 4.51484 35.7177 1.96484 32.5 1.96484H25.5C22.2823 1.96484 19.6667 4.51484 19.6667 7.64666V11.0558M38.3333 11.0558H29H19.6667" stroke="#E11F27" stroke-width="2"/>
<path d="M29 21.9648V40.9648" stroke="#E11F27" stroke-width="2"/>
<path d="M39 30.9648H20" stroke="#E11F27" stroke-width="2"/>
</svg>
