<svg width="149" height="165" viewBox="0 0 149 165" fill="none" xmlns="http://www.w3.org/2000/svg">
<path d="M11.5095 0.944336C31.3693 0.944336 46.6169 8.0517 57.3542 22.2354L57.8621 22.916L57.865 22.9199C68.8063 37.6044 74.3152 57.2324 74.3152 81.877C74.3152 106.136 68.9775 125.679 58.3699 140.571L57.8611 141.277L57.8601 141.278C47.0966 156.06 31.6814 163.465 11.5095 163.465C-8.49264 163.465 -23.8846 156.288 -34.7659 141.962L-35.2805 141.274C-46.0782 126.444 -51.5139 106.668 -51.5139 81.877C-51.5139 57.6153 -46.2457 38.2151 -35.7815 23.6074L-35.2795 22.916C-24.5194 8.28229 -8.96069 0.94439 11.5095 0.944336ZM147.28 3.7832V160.626H118.64V42.251H84.5701V23.2021C90.7716 23.0513 95.5786 22.7665 98.9783 22.3418L98.9792 22.3428C102.678 21.8989 106.374 21.0111 110.064 19.6826L110.063 19.6816C113.941 18.338 117.042 16.384 119.327 13.7949L119.326 13.7939C121.635 11.1952 123.717 7.8522 125.58 3.7832H147.28ZM11.5095 22.1582C0.787773 22.1583 -7.49082 27.0286 -13.2708 36.6621L-13.8225 37.6094L-13.8264 37.6162C-19.4485 47.8248 -22.219 62.6064 -22.219 81.877C-22.219 100.548 -19.6183 115.135 -14.3489 125.57L-13.8313 126.566L-13.8254 126.578C-8.02805 136.984 0.436474 142.251 11.5095 142.251C17.0198 142.251 21.8933 140.947 26.1033 138.315C30.0476 135.85 33.3742 132.243 36.0945 127.528L36.6296 126.57L36.6326 126.566C42.2495 116.071 45.0203 101.15 45.0203 81.877C45.0203 63.2086 42.42 48.7533 37.1462 38.5869L36.6277 37.6162C33.8111 32.502 30.3064 28.6289 26.0994 26.0371C21.8899 23.4438 17.0179 22.1582 11.5095 22.1582Z" stroke="#E11F27" stroke-width="1.5"/>
</svg>
