<svg width="201" height="165" viewBox="0 0 201 165" fill="none" xmlns="http://www.w3.org/2000/svg">
<path d="M63.7734 0.75C83.6332 0.75 98.8808 7.85737 109.618 22.041L110.126 22.7217L110.129 22.7256C121.07 37.4101 126.579 57.0381 126.579 81.6826C126.579 105.941 121.241 125.485 110.634 140.377L110.125 141.083L110.124 141.084C99.3605 155.866 83.9453 163.271 63.7734 163.271C43.7713 163.27 28.3793 156.094 17.498 141.768L16.9834 141.08C6.18574 126.249 0.75 106.473 0.75 81.6826C0.750012 57.421 6.0182 38.0207 16.4824 23.4131L16.9844 22.7217C27.7445 8.08796 43.3032 0.750054 63.7734 0.75ZM199.544 3.58887V160.432H170.904V42.0566H136.834V23.0078C143.036 22.857 147.842 22.5722 151.242 22.1475L151.243 22.1484C154.942 21.7045 158.638 20.8168 162.328 19.4883L162.327 19.4873C166.205 18.1437 169.306 16.1897 171.591 13.6006L171.59 13.5996C173.899 11.0008 175.98 7.65787 177.844 3.58887H199.544ZM63.7734 21.9639C53.0517 21.9639 44.7731 26.8343 38.9932 36.4678L38.4414 37.415L38.4375 37.4219C32.8154 47.6304 30.0449 62.412 30.0449 81.6826C30.0449 100.354 32.6456 114.941 37.915 125.376L38.4326 126.372L38.4385 126.384C44.2359 136.789 52.7004 142.057 63.7734 142.057C69.2837 142.057 74.1572 140.752 78.3672 138.121C82.3115 135.656 85.6381 132.049 88.3584 127.334L88.8936 126.376L88.8965 126.372C94.5134 115.877 97.2842 100.955 97.2842 81.6826C97.2842 63.0143 94.684 48.5589 89.4102 38.3926L88.8916 37.4219C86.075 32.3076 82.5703 28.4346 78.3633 25.8428C74.1538 23.2495 69.2818 21.9639 63.7734 21.9639Z" stroke="#E11F27" stroke-width="1.5"/>
</svg>
