<svg width="206" height="165" viewBox="0 0 206 165" fill="none" xmlns="http://www.w3.org/2000/svg">
<path d="M11.5097 164.215C-9.02013 164.215 -24.8179 156.716 -35.8837 141.719C-46.8038 126.722 -52.2639 106.775 -52.2639 81.877C-52.2639 57.1247 -46.8038 37.3228 -35.8837 22.4714C-24.9635 7.62004 -9.16573 0.194336 11.5097 0.194336C31.894 0.194336 47.5462 7.62004 58.4664 22.4714C69.5321 37.3228 75.065 57.1247 75.065 81.877C75.065 106.629 69.5321 126.577 58.4664 141.719C47.5462 156.716 31.894 164.215 11.5097 164.215ZM-13.1698 126.213C-7.49131 136.405 0.735202 141.501 11.5097 141.501C22.2843 141.501 30.438 136.405 35.9709 126.213C41.5038 115.875 44.2702 101.096 44.2702 81.877C44.2702 62.6576 41.5038 48.0246 35.9709 37.9781C30.438 27.9315 22.2843 22.9082 11.5097 22.9082C0.735202 22.9082 -7.49131 27.9315 -13.1698 37.9781C-18.7027 48.0246 -21.4691 62.6576 -21.4691 81.877C-21.4691 101.096 -18.7027 115.875 -13.1698 126.213ZM149.559 0.194336C165.721 0.194336 178.388 3.90719 187.561 11.3329C196.88 18.613 201.539 29.0963 201.539 42.7829C201.539 70.4473 175.695 101.533 124.006 136.041H205.252V161.376H88.8432V136.915C103.84 124.83 115.416 115.293 123.569 108.304C131.869 101.169 140.168 93.4524 148.467 85.1531C156.766 76.8538 162.591 69.5009 165.939 63.0944C169.434 56.6879 171.181 50.427 171.181 44.3117C171.181 37.3228 169.143 31.9356 165.066 28.1499C160.989 24.3643 155.238 22.4714 147.812 22.4714C140.241 22.4714 133.834 25.0195 128.592 30.1155C123.496 35.2116 120.948 43.2197 120.948 54.1399H91.6824C91.3912 37.978 96.5601 24.9467 107.189 15.0457C117.818 5.1448 131.941 0.194336 149.559 0.194336Z" fill="#E11F27"/>
</svg>
