<svg width="206" height="165" viewBox="0 0 206 165" fill="none" xmlns="http://www.w3.org/2000/svg">
<mask id="path-1-inside-1_2_689" fill="white">
<path d="M11.5098 164.215C-9.0201 164.215 -24.8179 156.717 -35.8837 141.72C-46.8038 126.723 -52.2639 106.775 -52.2639 81.8773C-52.2639 57.125 -46.8038 37.3231 -35.8837 22.4717C-24.9635 7.6203 -9.1657 0.1946 11.5098 0.1946C31.8941 0.1946 47.5463 7.6203 58.4664 22.4717C69.5322 37.3231 75.065 57.125 75.065 81.8773C75.065 106.63 69.5322 126.577 58.4664 141.72C47.5463 156.717 31.8941 164.215 11.5098 164.215ZM-13.1698 126.213C-7.49128 136.405 0.735234 141.501 11.5098 141.501C22.2843 141.501 30.438 136.405 35.9709 126.213C41.5038 115.875 44.2702 101.097 44.2702 81.8773C44.2702 62.6578 41.5038 48.0248 35.9709 37.9783C30.438 27.9318 22.2843 22.9085 11.5098 22.9085C0.735234 22.9085 -7.49128 27.9318 -13.1698 37.9783C-18.7026 48.0248 -21.4691 62.6578 -21.4691 81.8773C-21.4691 101.097 -18.7026 115.875 -13.1698 126.213ZM149.559 0.1946C165.721 0.1946 178.388 3.90745 187.561 11.3331C196.88 18.6132 201.539 29.0966 201.539 42.7832C201.539 70.4475 175.695 101.534 124.006 136.041H205.252V161.376H88.8432V136.915C103.84 124.83 115.416 115.293 123.569 108.304C131.869 101.17 140.168 93.4527 148.467 85.1533C156.766 76.854 162.591 69.5011 165.939 63.0947C169.434 56.6882 171.181 50.4273 171.181 44.312C171.181 37.3231 169.143 31.9358 165.066 28.1502C160.989 24.3645 155.238 22.4717 147.812 22.4717C140.241 22.4717 133.834 25.0197 128.593 30.1158C123.496 35.2119 120.948 43.22 120.948 54.1401H91.6824C91.3912 37.9783 96.5601 24.9469 107.189 15.046C117.818 5.14507 131.941 0.1946 149.559 0.1946Z"/>
</mask>
<path d="M-35.8837 141.72L-37.0963 142.603L-37.0907 142.61L-35.8837 141.72ZM-35.8837 22.4717L-37.0921 21.5831L-35.8837 22.4717ZM58.4664 22.4717L57.2579 23.3603L57.2636 23.3679L58.4664 22.4717ZM58.4664 141.72L57.2553 140.835L57.2538 140.837L58.4664 141.72ZM-13.1698 126.213L-14.4923 126.921L-14.4863 126.932L-14.4801 126.943L-13.1698 126.213ZM35.9709 126.213L37.2892 126.929L37.2934 126.921L35.9709 126.213ZM35.9709 37.9783L37.2848 37.2547L35.9709 37.9783ZM-13.1698 37.9783L-14.4756 37.2402L-14.4797 37.2474L-14.4837 37.2547L-13.1698 37.9783ZM11.5098 162.715C-8.59979 162.715 -23.9253 155.4 -34.6767 140.829L-37.0907 142.61C-25.7105 158.033 -9.44041 165.715 11.5098 165.715V162.715ZM-34.6711 140.837C-45.3499 126.171 -50.7639 106.565 -50.7639 81.8773H-53.7639C-53.7639 106.985 -48.2577 127.274 -37.0963 142.603L-34.6711 140.837ZM-50.7639 81.8773C-50.7639 57.3364 -45.3505 37.8788 -34.6752 23.3603L-37.0921 21.5831C-48.2571 36.7674 -53.7639 56.9136 -53.7639 81.8773H-50.7639ZM-34.6752 23.3603C-24.0751 8.94413 -8.75538 1.6946 11.5098 1.6946V-1.3054C-9.57602 -1.3054 -25.852 6.29646 -37.0921 21.5831L-34.6752 23.3603ZM11.5098 1.6946C31.4753 1.6946 46.6533 8.93803 57.2579 23.3603L59.6749 21.5831C48.4392 6.30257 32.3128 -1.3054 11.5098 -1.3054V1.6946ZM57.2636 23.3679C68.0807 37.8856 73.565 57.3402 73.565 81.8773H76.565C76.565 56.9098 70.9837 36.7606 59.6692 21.5755L57.2636 23.3679ZM73.565 81.8773C73.565 106.413 68.0814 126.02 57.2553 140.835L59.6775 142.605C70.9829 127.134 76.565 106.847 76.565 81.8773H73.565ZM57.2538 140.837C46.6469 155.404 31.4695 162.715 11.5098 162.715V165.715C32.3187 165.715 48.4457 158.03 59.679 142.603L57.2538 140.837ZM-14.4801 126.943C-8.56372 137.562 0.138008 143.001 11.5098 143.001V140.001C1.33246 140.001 -6.41883 135.248 -11.8594 125.483L-14.4801 126.943ZM11.5098 143.001C17.1433 143.001 22.1578 141.666 26.501 138.951C30.8384 136.24 34.4247 132.206 37.2892 126.929L34.6526 125.497C31.9843 130.413 28.7272 134.022 24.911 136.407C21.1005 138.789 16.6508 140.001 11.5098 140.001V143.001ZM37.2934 126.921C42.9947 116.269 45.7702 101.204 45.7702 81.8773H42.7702C42.7702 100.99 40.0129 115.482 34.6484 125.505L37.2934 126.921ZM45.7702 81.8773C45.7702 62.5555 42.9962 47.6253 37.2848 37.2547L34.657 38.7019C40.0114 48.4244 42.7702 62.7602 42.7702 81.8773H45.7702ZM37.2848 37.2547C34.4181 32.0494 30.83 28.0709 26.4928 25.3989C22.1507 22.7239 17.1392 21.4085 11.5098 21.4085V24.4085C16.6549 24.4085 21.1075 25.6048 24.9192 27.9531C28.7356 30.3043 31.9908 33.8607 34.657 38.7019L37.2848 37.2547ZM11.5098 21.4085C0.148876 21.4085 -8.55421 26.7639 -14.4756 37.2402L-11.8639 38.7164C-6.42834 29.0996 1.32159 24.4085 11.5098 24.4085V21.4085ZM-14.4837 37.2547C-20.195 47.6253 -22.9691 62.5555 -22.9691 81.8773H-19.9691C-19.9691 62.7602 -17.2102 48.4244 -11.8558 38.7019L-14.4837 37.2547ZM-22.9691 81.8773C-22.9691 101.204 -20.1935 116.269 -14.4923 126.921L-11.8473 125.505C-17.2118 115.482 -19.9691 100.99 -19.9691 81.8773H-22.9691ZM187.561 11.3331L186.618 12.499L186.628 12.5072L186.638 12.5152L187.561 11.3331ZM124.006 136.041L123.173 134.794L119.058 137.541H124.006V136.041ZM205.252 136.041H206.752V134.541H205.252V136.041ZM205.252 161.376V162.876H206.752V161.376H205.252ZM88.8432 161.376H87.3432V162.876H88.8432V161.376ZM88.8432 136.915L87.902 135.747L87.3432 136.197V136.915H88.8432ZM123.569 108.304L124.545 109.443L124.547 109.442L123.569 108.304ZM148.467 85.1534L149.528 86.214L148.467 85.1534ZM165.939 63.0947L164.623 62.3764L164.616 62.388L164.61 62.3998L165.939 63.0947ZM165.066 28.1502L164.045 29.2494V29.2494L165.066 28.1502ZM128.593 30.1158L127.547 29.0403L127.539 29.0477L127.532 29.0551L128.593 30.1158ZM120.948 54.1401V55.6401H122.448V54.1401H120.948ZM91.6824 54.1401L90.1827 54.1672L90.2092 55.6401H91.6824V54.1401ZM107.189 15.046L108.211 16.1436L107.189 15.046ZM149.559 1.6946C165.503 1.6946 177.795 5.35734 186.618 12.499L188.505 10.1673C178.981 2.45756 165.939 -1.3054 149.559 -1.3054V1.6946ZM186.638 12.5152C195.532 19.4641 200.039 29.4763 200.039 42.7832H203.039C203.039 28.7169 198.227 17.7624 188.485 10.1511L186.638 12.5152ZM200.039 42.7832C200.039 56.1348 193.801 70.4925 181.002 85.887C168.208 101.276 148.955 117.582 123.173 134.794L124.839 137.289C150.746 119.993 170.259 103.502 183.309 87.8049C196.355 72.1134 203.039 57.0959 203.039 42.7832H200.039ZM124.006 137.541H205.252V134.541H124.006V137.541ZM203.752 136.041V161.376H206.752V136.041H203.752ZM205.252 159.876H88.8432V162.876H205.252V159.876ZM90.3432 161.376V136.915H87.3432V161.376H90.3432ZM89.7844 138.083C104.786 125.995 116.375 116.447 124.545 109.443L122.593 107.165C114.456 114.139 102.895 123.665 87.902 135.747L89.7844 138.083ZM124.547 109.442C132.877 102.281 141.204 94.5381 149.528 86.214L147.407 84.0927C139.132 92.3673 130.86 100.058 122.591 107.167L124.547 109.442ZM149.528 86.214C157.877 77.8653 163.819 70.3883 167.269 63.7895L164.61 62.3998C161.362 68.614 155.656 75.8428 147.407 84.0927L149.528 86.214ZM167.256 63.8129C170.848 57.2286 172.681 50.7226 172.681 44.312H169.681C169.681 50.132 168.02 56.1477 164.623 62.3764L167.256 63.8129ZM172.681 44.312C172.681 37.02 170.544 31.1897 166.086 27.051L164.045 29.2494C167.742 32.6819 169.681 37.6262 169.681 44.312H172.681ZM166.086 27.051C161.65 22.9314 155.487 20.9717 147.812 20.9717V23.9717C154.988 23.9717 160.328 25.7976 164.045 29.2494L166.086 27.051ZM147.812 20.9717C139.866 20.9717 133.079 23.6614 127.547 29.0403L129.638 31.1913C134.589 26.3781 140.616 23.9717 147.812 23.9717V20.9717ZM127.532 29.0551C122.038 34.5487 119.448 43.0239 119.448 54.1401H122.448C122.448 43.4161 124.955 35.875 129.653 31.1765L127.532 29.0551ZM120.948 52.6401H91.6824V55.6401H120.948V52.6401ZM93.1822 54.1131C92.8977 38.3234 97.9311 25.7198 108.211 16.1436L106.167 13.9484C95.1891 24.1741 89.8848 37.6332 90.1827 54.1672L93.1822 54.1131ZM108.211 16.1436C118.506 6.55404 132.236 1.6946 149.559 1.6946V-1.3054C131.647 -1.3054 117.13 3.7361 106.167 13.9484L108.211 16.1436Z" fill="#E11F27" mask="url(#path-1-inside-1_2_689)"/>
</svg>
