<svg width="210" height="165" viewBox="0 0 210 165" fill="none" xmlns="http://www.w3.org/2000/svg">
<path d="M11.5097 164.215C-9.02013 164.215 -24.8179 156.716 -35.8837 141.719C-46.8038 126.722 -52.2639 106.775 -52.2639 81.877C-52.2639 57.1247 -46.8038 37.3228 -35.8837 22.4714C-24.9635 7.62004 -9.16573 0.194336 11.5097 0.194336C31.894 0.194336 47.5462 7.62004 58.4664 22.4714C69.5321 37.3228 75.065 57.1247 75.065 81.877C75.065 106.629 69.5321 126.577 58.4664 141.719C47.5462 156.716 31.894 164.215 11.5097 164.215ZM-13.1698 126.213C-7.49131 136.405 0.735202 141.501 11.5097 141.501C22.2843 141.501 30.438 136.405 35.9709 126.213C41.5038 115.875 44.2702 101.096 44.2702 81.877C44.2702 62.6576 41.5038 48.0246 35.9709 37.9781C30.438 27.9315 22.2843 22.9082 11.5097 22.9082C0.735202 22.9082 -7.49131 27.9315 -13.1698 37.9781C-18.7027 48.0246 -21.4691 62.6576 -21.4691 81.877C-21.4691 101.096 -18.7027 115.875 -13.1698 126.213ZM149.122 141.501C157.567 141.501 164.629 139.244 170.307 134.731C175.986 130.071 178.825 124.102 178.825 116.822C178.825 107.94 175.185 101.388 167.905 97.1652C160.771 92.9428 151.161 90.8316 139.076 90.8316H132.742V67.244H137.984C149.486 67.244 158.514 65.2784 165.066 61.3472C171.618 57.2703 174.894 51.519 174.894 44.0933C174.894 37.5412 172.419 32.3724 167.468 28.5867C162.663 24.8011 156.766 22.9082 149.778 22.9082C140.75 22.9082 133.47 25.4563 127.937 30.5523C122.404 35.6484 119.274 42.4189 118.546 50.8638H89.9352C91.6824 34.8476 97.8705 22.3986 108.499 13.5169C119.128 4.63519 133.47 0.194336 151.525 0.194336C160.843 0.194336 169.434 1.65035 177.296 4.56239C185.159 7.32883 191.784 12.0609 197.171 18.7586C202.558 25.3107 205.252 33.3188 205.252 42.7829C205.252 50.2086 203.286 56.9791 199.355 63.0944C195.424 69.2097 190.255 74.0145 183.848 77.509C191.857 80.8578 198.117 86.0995 202.631 93.234C207.145 100.223 209.402 107.794 209.402 115.948C209.402 131.382 203.577 143.321 191.929 151.766C180.427 160.065 165.867 164.215 148.249 164.215C130.777 164.215 116.653 159.264 105.879 149.364C95.2496 139.317 89.4984 126.722 88.6247 111.58H117.017C118.328 120.316 121.676 127.523 127.064 133.202C132.451 138.735 139.804 141.501 149.122 141.501Z" fill="#E11F27"/>
</svg>
