<svg width="210" height="165" viewBox="0 0 210 165" fill="none" xmlns="http://www.w3.org/2000/svg">
<path d="M11.5095 0.944336C31.3693 0.944336 46.6169 8.0517 57.3542 22.2354L57.8621 22.916L57.865 22.9199C68.8063 37.6044 74.3152 57.2324 74.3152 81.877C74.3152 106.136 68.9775 125.679 58.3699 140.571L57.8611 141.277L57.8601 141.278C47.0966 156.06 31.6814 163.465 11.5095 163.465C-8.49264 163.465 -23.8846 156.288 -34.7659 141.962L-35.2805 141.274C-46.0782 126.444 -51.5139 106.668 -51.5139 81.877C-51.5139 57.6153 -46.2457 38.2151 -35.7815 23.6074L-35.2795 22.916C-24.5194 8.28229 -8.96069 0.94439 11.5095 0.944336ZM151.525 0.944336C160.476 0.944371 168.734 2.29889 176.305 5L177.036 5.26562L177.048 5.26953C184.533 7.90313 190.876 12.3476 196.086 18.6162L196.587 19.2285L196.592 19.2354C201.856 25.6376 204.502 33.4715 204.502 42.7832C204.502 50.0681 202.576 56.6971 198.724 62.6885C194.861 68.6976 189.786 73.4161 183.489 76.8506L182.118 77.5986L183.559 78.2012C191.184 81.3896 197.183 86.3151 201.577 92.9844L201.997 93.6348L202.001 93.6406C206.438 100.511 208.651 107.942 208.651 115.948C208.651 130.924 203.104 142.5 192.021 150.768L191.489 151.159C180.143 159.345 165.747 163.465 148.249 163.465C131.196 163.465 117.432 158.713 106.885 149.265L106.386 148.812C96.0928 139.079 90.4426 126.932 89.4275 112.33H116.377C117.728 120.638 120.932 127.595 126.01 133.169L126.519 133.718L127.053 134.252C132.558 139.606 139.943 142.251 149.123 142.251C157.44 142.251 164.489 140.095 170.223 135.745L170.774 135.317L170.783 135.311C176.633 130.51 179.575 124.328 179.575 116.821C179.575 107.692 175.809 100.885 168.286 96.5195H168.287C160.996 92.2043 151.237 90.082 139.076 90.082H133.492V67.9941H137.984C149.197 67.9941 158.162 66.1402 164.815 62.3623L165.452 61.9902L165.462 61.9844C172.223 57.7772 175.644 51.7905 175.644 44.0938C175.644 37.5338 173.229 32.2653 168.399 28.3643L167.924 27.9912C162.969 24.0913 156.905 22.1582 149.777 22.1582C140.888 22.1583 133.596 24.593 127.969 29.5166L127.429 30.001C121.893 35.1005 118.714 41.8237 117.864 50.1143H90.7791C92.6002 34.9053 98.5152 23.0586 108.493 14.5049L108.98 14.0928C119.438 5.3542 133.592 0.944336 151.525 0.944336ZM11.5095 22.1582C0.787773 22.1583 -7.49082 27.0286 -13.2708 36.6621L-13.8225 37.6094L-13.8264 37.6162C-19.4485 47.8248 -22.219 62.6064 -22.219 81.877C-22.219 100.548 -19.6183 115.135 -14.3489 125.57L-13.8313 126.566L-13.8254 126.578C-8.02805 136.984 0.436474 142.251 11.5095 142.251C17.0198 142.251 21.8933 140.947 26.1033 138.315C30.0476 135.85 33.3742 132.243 36.0945 127.528L36.6296 126.57L36.6326 126.566C42.2495 116.071 45.0203 101.15 45.0203 81.877C45.0203 63.2086 42.42 48.7533 37.1462 38.5869L36.6277 37.6162C33.8111 32.502 30.3064 28.6289 26.0994 26.0371C21.8899 23.4438 17.0179 22.1582 11.5095 22.1582Z" stroke="#E11F27" stroke-width="1.5"/>
</svg>
