<svg width="221" height="165" viewBox="0 0 221 165" fill="none" xmlns="http://www.w3.org/2000/svg">
<path d="M11.5097 164.215C-9.02013 164.215 -24.8179 156.716 -35.8837 141.719C-46.8038 126.722 -52.2639 106.775 -52.2639 81.877C-52.2639 57.1247 -46.8038 37.3228 -35.8837 22.4714C-24.9635 7.62004 -9.16573 0.194336 11.5097 0.194336C31.894 0.194336 47.5462 7.62004 58.4664 22.4714C69.5321 37.3228 75.065 57.1247 75.065 81.877C75.065 106.629 69.5321 126.577 58.4664 141.719C47.5462 156.716 31.894 164.215 11.5097 164.215ZM-13.1698 126.213C-7.49131 136.405 0.735202 141.501 11.5097 141.501C22.2843 141.501 30.438 136.405 35.9709 126.213C41.5038 115.875 44.2702 101.096 44.2702 81.877C44.2702 62.6576 41.5038 48.0246 35.9709 37.9781C30.438 27.9315 22.2843 22.9082 11.5097 22.9082C0.735202 22.9082 -7.49131 27.9315 -13.1698 37.9781C-18.7027 48.0246 -21.4691 62.6576 -21.4691 81.877C-21.4691 101.096 -18.7027 115.875 -13.1698 126.213ZM163.755 41.2541L118.546 97.8205H163.755V41.2541ZM220.759 97.8205V123.374H193.677V161.376H163.755V123.374H85.5671V99.7861L164.192 3.03358H193.677V97.8205H220.759Z" fill="#E11F27"/>
</svg>
