<svg width="48" height="52" viewBox="0 0 48 52" fill="none" xmlns="http://www.w3.org/2000/svg">
<path d="M24.2492 37.2709C24.4348 37.2709 24.586 37.1196 24.586 36.9341C24.586 36.9341 24.586 28.6346 24.586 26.8328L24.942 26.7308C25.8078 26.4835 26.4714 25.8182 26.7163 24.9516L26.8032 24.6424H37.1251C37.2154 24.6424 37.2998 24.6073 37.3633 24.5438C37.4268 24.4803 37.4619 24.3958 37.4619 24.3056C37.4619 24.1201 37.3106 23.9696 37.1259 23.9688H26.8232L26.7405 23.637C26.4547 22.4904 25.4309 21.689 24.2509 21.689C24.042 21.689 23.833 21.7149 23.6283 21.7658C22.9631 21.9313 22.4015 22.3467 22.048 22.9342C21.6945 23.5217 21.5908 24.212 21.7571 24.8781C21.9794 25.7714 22.6681 26.481 23.5548 26.73L23.9133 26.8303V36.9333C23.9133 37.1188 24.0645 37.27 24.2501 37.27L24.2492 37.2709ZM22.3513 24.2605C22.3513 23.2167 23.2004 22.3684 24.2434 22.3684C25.2864 22.3684 26.1354 23.2175 26.1354 24.2605C26.1354 25.3034 25.2864 26.1525 24.2434 26.1525C23.2004 26.1525 22.3513 25.3034 22.3513 24.2605Z" fill="white" stroke="white" stroke-width="0.7"/>
<path d="M45.7166 15.3392C44.5424 12.5045 42.8443 9.97057 40.6681 7.80523C36.2789 3.41689 30.4431 1 24.2371 1C18.031 1 12.1944 3.41689 7.80607 7.80607C3.41689 12.1944 1 18.0302 1 24.2371C1 30.4439 3.41689 36.2789 7.8069 40.6689C9.96221 42.8359 12.4869 44.5291 15.3091 45.7024C18.1313 46.8758 21.1115 47.4708 24.1677 47.4708H24.2454C25.8475 47.4708 27.4546 47.3045 29.0224 46.9769L29.0341 46.9744C29.2163 46.941 29.3383 46.7654 29.3048 46.5824C29.2756 46.4228 29.1369 46.3066 28.9747 46.3066C28.9547 46.3066 28.9338 46.3083 28.9137 46.3125L28.8836 46.3192C27.6351 46.5791 26.3556 46.7345 25.0811 46.7805L24.5655 46.7989V40.9915C24.5655 40.9012 24.5304 40.8168 24.4669 40.7533C24.4034 40.6898 24.319 40.6547 24.2287 40.6547C24.0432 40.6547 23.8919 40.806 23.8919 40.9923V46.7997L23.3754 46.7805C11.6504 46.3351 2.12738 36.8029 1.69448 25.0786L1.67526 24.5622H7.48265C7.66817 24.5622 7.81944 24.4117 7.81944 24.2262C7.81944 24.0407 7.66901 23.8894 7.48181 23.8894H1.67442L1.69364 23.3729C2.1349 11.6479 11.6671 2.12487 23.3947 1.69114L23.9111 1.67192V7.4793C23.9111 7.66483 24.0624 7.8161 24.2479 7.8161C24.4335 7.8161 24.5847 7.66483 24.5847 7.4793V1.67275L25.1012 1.69197C36.8246 2.13574 46.3476 11.6671 46.7813 23.3922L46.8006 23.9086H40.994C40.9037 23.9086 40.8193 23.9437 40.7558 24.0072C40.6923 24.0708 40.6572 24.1552 40.6572 24.2454C40.6572 24.431 40.8085 24.5814 40.9932 24.5822H46.7997L46.7805 25.0987C46.7312 26.4133 46.5665 27.7329 46.2908 29.019L46.2883 29.0299C46.2448 29.2104 46.3568 29.3926 46.5381 29.4352C46.564 29.4411 46.5908 29.4444 46.6167 29.4444C46.773 29.4444 46.9067 29.3383 46.9435 29.1845L46.9485 29.1611C47.2961 27.5457 47.4725 25.8884 47.4725 24.2346C47.4808 21.1667 46.89 18.1731 45.7158 15.3384L45.7166 15.3392Z" stroke="white" stroke-width="0.7"/>
<path d="M15.9003 9.12473L15.4356 8.35588H15.4573L14.9475 7.47253C14.8874 7.3689 14.7754 7.30371 14.655 7.30371C14.5957 7.30371 14.5397 7.31875 14.4871 7.34884C14.3258 7.4416 14.2706 7.64803 14.3634 7.80932L15.3102 9.44899C15.3696 9.5568 15.4824 9.62366 15.6061 9.62366C15.6629 9.62366 15.7172 9.60945 15.7674 9.58187C15.9303 9.49245 15.9897 9.2877 15.9003 9.12473Z" stroke="white" stroke-width="0.7"/>
<path d="M9.30773 15.2009C9.28433 15.114 9.22834 15.0413 9.15062 14.9962L7.51094 14.0493C7.45746 14.0167 7.39896 14 7.33712 14C7.21761 14 7.1098 14.061 7.04879 14.1621C6.95269 14.3209 7.00283 14.5282 7.16162 14.6243L8.81466 15.5795C8.86647 15.6096 8.9233 15.6246 8.98264 15.6246C9.10298 15.6246 9.21497 15.5603 9.27514 15.4558C9.32027 15.3781 9.33197 15.287 9.30857 15.2001L9.30773 15.2009Z" stroke="white" stroke-width="0.7"/>
<path d="M39.3432 15.6238C39.4017 15.6238 39.4593 15.6088 39.5095 15.5795L41.1492 14.6318C41.3121 14.5424 41.3715 14.3376 41.282 14.1747C41.2227 14.0669 41.1099 14 40.9862 14C40.9294 14 40.875 14.0142 40.8257 14.0418L39.1685 14.9962C39.0081 15.0889 38.9521 15.2954 39.0448 15.4558C39.105 15.5594 39.217 15.6246 39.3365 15.6246H39.3423L39.3432 15.6238Z" stroke="white" stroke-width="0.7"/>
<path d="M8.98663 33C8.9273 33 8.8713 33.015 8.81865 33.0451L8.70332 33.1095L7.1748 33.9928C7.09624 34.0363 7.03858 34.1073 7.01351 34.1934C6.98844 34.2795 6.99847 34.3706 7.04192 34.45C7.10126 34.5578 7.21408 34.6246 7.33777 34.6246C7.39459 34.6246 7.44892 34.6104 7.49822 34.5828L9.15545 33.6285C9.23317 33.5833 9.28916 33.5106 9.31256 33.4237C9.33596 33.3368 9.32426 33.2457 9.27913 33.168C9.21896 33.0644 9.10698 33 8.98663 33Z" stroke="white" stroke-width="0.7"/>
<path d="M32.879 10.1064H32.878H32.877H32.879Z" fill="white" stroke="white" stroke-width="0.7"/>
<path d="M33.3377 9.3049C33.4572 9.3049 33.5683 9.24055 33.6285 9.13609L34.5704 7.50561C34.6155 7.42789 34.6272 7.33679 34.6038 7.24988C34.5804 7.16296 34.5244 7.09026 34.4467 7.04513C34.3949 7.01504 34.338 7 34.2787 7C34.1584 7 34.0464 7.06435 33.9862 7.16881L33.0452 8.7993C33.0001 8.87702 32.9884 8.96811 33.0118 9.05502C33.0352 9.14194 33.0903 9.21465 33.1689 9.25977C33.2199 9.28902 33.2784 9.3049 33.3377 9.3049Z" stroke="white" stroke-width="0.7"/>
<path d="M15.4467 39.0451C15.3949 39.015 15.338 39 15.2795 39C15.16 39 15.0481 39.0644 14.9887 39.168L14.0452 40.8001C14.0001 40.8779 13.9884 40.9689 14.0118 41.0559C14.0352 41.1428 14.0912 41.2155 14.1689 41.2606C14.2207 41.2907 14.2775 41.3057 14.3369 41.3057C14.4572 41.3057 14.5692 41.2414 14.6294 41.1369L15.5712 39.5064C15.6163 39.4287 15.628 39.3376 15.6046 39.2507C15.5812 39.1638 15.5261 39.0911 15.4475 39.046L15.4467 39.0451Z" stroke="white" stroke-width="0.7"/>
<path d="M46.1842 41.4386H42.589V29.5255C42.589 29.2915 42.3984 29.1018 42.1644 29.1018H34.4708C34.2368 29.1018 34.0463 29.2923 34.0463 29.5255V41.4386H30.4511C30.2171 41.4386 30.0265 41.6292 30.0273 41.8632C30.0273 41.9685 30.0658 42.0688 30.136 42.1465L38.0051 50.8597C38.0853 50.9482 38.1998 51.0001 38.3193 51.0001C38.4388 51.0001 38.5542 50.9491 38.6335 50.8605L46.5018 42.1465C46.5779 42.0621 46.6163 41.9534 46.6104 41.8406C46.6046 41.7278 46.5553 41.6233 46.4709 41.5473C46.3923 41.4771 46.292 41.4386 46.1842 41.4386ZM38.3151 50.2036L31.0093 42.1131H34.7199V29.7754H41.9154V42.1131H45.626L38.3151 50.2036Z" stroke="white" stroke-width="0.7"/>
</svg>
