<svg id="e0xBkEAbs141" xmlns="http://www.w3.org/2000/svg" xmlns:xlink="http://www.w3.org/1999/xlink" viewBox="0 0 52 52" shape-rendering="geometricPrecision" text-rendering="geometricPrecision" project-id="fc06a98ab4254841b10ccce856a21492" export-id="00082084c4ac4d5abb91ce1d37ca15c9" cached="false">
<style><![CDATA[
#e0xBkEAbs142_to {animation: e0xBkEAbs142_to__to 3000ms linear infinite alternate-reverse forwards}@keyframes e0xBkEAbs142_to__to { 0% {transform: translate(24.103363px,19.5217px)} 66.666667% {transform: translate(29.103363px,15.5217px)} 100% {transform: translate(29.103363px,15.5217px)}} #e0xBkEAbs143_to {animation: e0xBkEAbs143_to__to 3000ms linear infinite alternate-reverse forwards}@keyframes e0xBkEAbs143_to__to { 0% {transform: translate(33.798849px,32.158374px)} 66.666667% {transform: translate(38.798849px,28.158374px)} 100% {transform: translate(38.798849px,28.158374px)}} #e0xBkEAbs144_to {animation: e0xBkEAbs144_to__to 3000ms linear infinite alternate-reverse forwards}@keyframes e0xBkEAbs144_to__to { 0% {transform: translate(28.607143px,22.151387px)} 66.666667% {transform: translate(33.607143px,18.151387px)} 100% {transform: translate(33.607143px,18.151387px)}} #e0xBkEAbs146_to {animation: e0xBkEAbs146_to__to 3000ms linear infinite alternate-reverse forwards}@keyframes e0xBkEAbs146_to__to { 0% {transform: translate(38.371876px,45.0079px)} 66.666667% {transform: translate(43.371876px,41.0079px)} 100% {transform: translate(43.371876px,41.0079px)}} #e0xBkEAbs146 {animation: e0xBkEAbs146_c_o 3000ms linear infinite alternate-reverse forwards}@keyframes e0xBkEAbs146_c_o { 0% {opacity: 0} 10% {opacity: 0} 43.333333% {opacity: 1} 100% {opacity: 1}} #e0xBkEAbs147_to {animation: e0xBkEAbs147_to__to 3000ms linear infinite alternate-reverse forwards}@keyframes e0xBkEAbs147_to__to { 0% {transform: translate(24.380975px,38.843824px)} 66.666667% {transform: translate(29.380975px,34.843824px)} 100% {transform: translate(29.380975px,34.843824px)}} #e0xBkEAbs147 {animation: e0xBkEAbs147_c_o 3000ms linear infinite alternate-reverse forwards}@keyframes e0xBkEAbs147_c_o { 0% {opacity: 0} 10% {opacity: 0} 43.333333% {opacity: 1} 100% {opacity: 1}} #e0xBkEAbs148_to {animation: e0xBkEAbs148_to__to 3000ms linear infinite alternate-reverse forwards}@keyframes e0xBkEAbs148_to__to { 0% {transform: translate(6.7331px,14.801437px)} 66.666667% {transform: translate(11.7331px,10.801437px)} 100% {transform: translate(11.7331px,10.801437px)}} #e0xBkEAbs148 {animation: e0xBkEAbs148_c_o 3000ms linear infinite alternate-reverse forwards}@keyframes e0xBkEAbs148_c_o { 0% {opacity: 0} 10% {opacity: 0} 43.333333% {opacity: 1} 100% {opacity: 1}} #e0xBkEAbs149_to {animation: e0xBkEAbs149_to__to 3000ms linear infinite alternate-reverse forwards}@keyframes e0xBkEAbs149_to__to { 0% {transform: translate(6.90276px,45.783075px)} 66.666667% {transform: translate(11.90276px,41.783075px)} 100% {transform: translate(11.90276px,41.783075px)}} #e0xBkEAbs1410_to {animation: e0xBkEAbs1410_to__to 3000ms linear infinite alternate-reverse forwards}@keyframes e0xBkEAbs1410_to__to { 0% {transform: translate(21.789312px,44.272909px)} 66.666667% {transform: translate(26.789312px,40.272909px)} 100% {transform: translate(26.789312px,40.272909px)}} #e0xBkEAbs1411_to {animation: e0xBkEAbs1411_to__to 3000ms linear infinite alternate-reverse forwards}@keyframes e0xBkEAbs1411_to__to { 0% {transform: translate(30.615549px,28.2145px)} 66.666667% {transform: translate(35.615549px,24.2145px)} 100% {transform: translate(35.615549px,24.2145px)}} #e0xBkEAbs1412_to {animation: e0xBkEAbs1412_to__to 3000ms linear infinite alternate-reverse forwards}@keyframes e0xBkEAbs1412_to__to { 0% {transform: translate(16.212014px,27.882943px)} 66.666667% {transform: translate(21.212014px,23.882943px)} 100% {transform: translate(21.212014px,23.882943px)}} #e0xBkEAbs1413_to {animation: e0xBkEAbs1413_to__to 3000ms linear infinite alternate-reverse forwards}@keyframes e0xBkEAbs1413_to__to { 0% {transform: translate(18.458425px,28.573088px)} 66.666667% {transform: translate(23.458425px,24.573088px)} 100% {transform: translate(23.458425px,24.573088px)}}
]]></style>
<g id="e0xBkEAbs142_to" transform="translate(29.103363,15.5217)"><path d="M28.2135,19.6259c-.1061,0-.2133-.0404-.2941-.1223-.1618-.1628-.1618-.4256,0-.5883l2.8021-2.795c.4266-.4266.6621-.9957.6621-1.6043s-.2355-1.1776-.6621-1.6042c-.8876-.8855-2.3311-.8855-3.2176,0l-2.8021,2.796c-.1627.1628-.4256.1618-.5883,0-.1617-.1627-.1617-.4256,0-.5883l2.8021-2.796c1.211-1.208,3.1812-1.208,4.3922,0c.5843.5832.9067,1.3616.9067,2.1925s-.3214,1.6093-.9067,2.1926l-2.8021,2.795c-.0809.0809-.188.1213-.2942.1213l.002.001Z" transform="translate(-28.103363,-15.5217)" fill="#fff" stroke="#fff" stroke-width="0.8"/></g><g id="e0xBkEAbs143_to" transform="translate(38.798849,28.158374)"><path d="M36.0177,32.7003c-.7096,0-1.4182-.2689-1.959-.8087-.5216-.5206-.8087-1.215-.8087-1.956s.2871-1.4354.8087-1.956l3.5592-3.5542c1.0816-1.0786,2.8395-1.0786,3.9211,0c.5216.5206.8087,1.215.8087,1.956s-.2871,1.4354-.8087,1.956l-3.5622,3.5542c-.5398.5388-1.2494.8087-1.9591.8087Zm3.5603-8.2517c-.4974,0-.9947.1891-1.3728.5661L34.646,28.5689c-.3639.3639-.5651.8491-.5651,1.3677s.2012,1.0038.5651,1.3667c.7561.7551,1.9873.7551,2.7435,0l3.5622-3.5542c.3639-.3629.5651-.8491.5651-1.3667s-.2001-1.0038-.5651-1.3667c-.378-.378-.8754-.566-1.3727-.566l-.001-.0011Z" transform="translate(-37.798849,-28.158374)" fill="#fff" stroke="#fff" stroke-width="0.8"/></g><g id="e0xBkEAbs144_to" transform="translate(33.607143,18.151387)"><path d="M34.3732,21.0845c-.0353,0-.0737-.005-.1152-.0161-.1435-.0395-.2557-.1517-.2931-.2962-.0395-.1527-.0546-.2073.1122-.3963l-.0031-.003.0829-.0819c.094-.098.2244-.2264.4044-.4033.8491-.8764.837-2.3038-.0344-3.1751-.8865-.8855-2.33-.8845-3.2176,0l-1.402,1.399c-.1628.1617-.4256.1617-.5884,0s-.1617-.4256,0-.5883l1.4021-1.3991c1.211-1.2079,3.1822-1.2079,4.3922,0c1.1908,1.1918,1.207,3.1428.0364,4.3498l-.4893.4882-.002-.002c-.0819.0718-.1698.1243-.2851.1243Z" transform="translate(-32.607143,-18.151387)" fill="#fff" stroke="#fff" stroke-width="0.8"/></g><g><g id="e0xBkEAbs146_to" transform="translate(43.371876,41.0079)"><path id="e0xBkEAbs146" d="M34.1973,45.8589c.4.779.919,1.491,1.544,2.118c1.595,1.592,3.747,2.461,5.971,2.461.528,0,1.06-.049,1.589-.149.981-.184,1.524-.522,1.661-1.032.197-.737-.56-1.387-.966-1.737-.052-.044-.094-.079-.12-.105l-3.415-3.407c-1.027-1.026-1.09-2.68-.147-3.779c1.103-.942,2.761-.879,3.789.147l3.415,3.407c.026.025.061.067.106.119.35.406,1.002,1.161,1.74.963.51-.137.848-.679,1.033-1.657.522-2.755-.344-5.576-2.318-7.545-2.419-2.413-6.106-3.121-9.257-1.805l-1.4328-1.292951" transform="translate(-42.371876,-41.0079)" fill="none" stroke="#fff" stroke-width="2" stroke-linecap="round"/></g><g id="e0xBkEAbs147_to" transform="translate(29.380975,34.843824)"><path id="e0xBkEAbs147" d="M23.072976,26.643776l9.998469,10.9222c.122.122.072001-.156,0,0-1.002028.873282-1.781432,3.957745-.549668,5.6514" transform="translate(-28.688251,-34.2783)" fill="none" stroke="#fff" stroke-width="2" stroke-linecap="round"/></g><g id="e0xBkEAbs148_to" transform="translate(11.7331,10.801437)"><path id="e0xBkEAbs148" d="M15.7522,20.6019l-3.029-3.022c-3.15204,1.316-6.83804.608-9.25704-1.805-1.973-1.969-2.839001-4.79-2.317-7.54502.185-.978.523-1.52,1.033-1.657.737-.198,1.39.557,1.741.963.045.052.08.094.106.119l3.415,3.40702c1.028,1.026,2.68704,1.089,3.79004.147.942-1.099.88-2.75302-.148-3.77802l-3.41504-3.407c-.026-.026-.068-.061-.119-.105-.407-.35-1.164-1-.966-1.737.137-.51.68-.848,1.661-1.032c2.76204-.520995,5.58704.343,7.56004,2.312c2.419,2.414,3.13,6.093,1.81,9.23802l2.849,2.846" transform="translate(-10.7331,-10.801437)" fill="none" stroke="#fff" stroke-width="2"/></g></g><g id="e0xBkEAbs149_to" transform="translate(11.90276,41.783075)"><path d="M14.2411,51.0012c-.5398,0-1.0796-.2052-1.491-.6156L2.28163,39.9404c-.39727-.3962-.61561-.9259-.61561-1.489s.21834-1.0927.61561-1.489l3.79072-3.7826c.82183-.8198,2.16021-.8198,2.98204,0L12.8037,36.92c.1627.1617.1627.4256,0,.5883-.1618.1617-.4256.1627-.5884,0L8.46708,33.7681c-.49836-.4973-1.30907-.4973-1.80742,0L2.86894,37.5508c-.23958.2395-.372.559-.372.9006c0,.3417.13242.6611.372.9007L13.3374,49.7973c.4984.4974,1.3091.4974,1.8074,0l3.7907-3.7826c.2396-.2396.372-.559.372-.9007s-.1324-.6611-.372-.9007l-4.2638-4.2537c-.1627-.1617-.1627-.4255,0-.5883.1618-.1627.4246-.1637.5884,0l4.2627,4.2537c.3973.3963.6167.926.6167,1.489c0,.5631-.2184,1.0927-.6156,1.489l-3.7908,3.7826c-.4114.4104-.9512.6146-1.491.6156h-.001Z" transform="translate(-10.90276,-41.783075)" fill="#fff" stroke="#fff" stroke-width="0.8"/></g><g id="e0xBkEAbs1410_to" transform="translate(26.789312,40.272909)"><path d="M19.2299,44.3361c-.1061,0-.2133-.0404-.2941-.1223-.1618-.1627-.1618-.4256,0-.5883l5.0492-5.0381c1.7053-1.7013,2.328-1.6932,4.0414-1.4061.2396.0404.5044.0839.8036.1273.7946.1122.9052-.276762,2.1172-1.020762.1951-.1203.6641.632162.6641.632162s.658499-.0779.4634.0424c-.527701.3245-1.8729,1.3824-3.3619,1.1691-.3053-.0435-.5762-.089-.8218-.1294-1.4809-.2477-1.8327-.3063-3.3177,1.1746l-5.0492,5.0381c-.0809.0809-.188.1213-.2942.1213Z" transform="translate(-25.789312,-40.272909)" fill="#fff" stroke="#fff" stroke-width="0.8"/></g><g id="e0xBkEAbs1411_to" transform="translate(35.615549,24.2145)"><path d="M33.2206,28.7054c-.8319,0-1.6123-.3215-2.1966-.9068-.5853-.5822-.9078-1.3596-.9088-2.1895c0-.8309.3225-1.6103.9088-2.1956l2.791-2.7839c1.211-1.208,3.1812-1.208,4.3922,0c.5863.5833.9087,1.3627.9087,2.1936s-.3224,1.6103-.9087,2.1935l-2.79,2.784c-.5843.5842-1.3647.9047-2.1966.9047Zm2.79-8.1516c-.5833,0-1.1656.2214-1.6093.6641l-2.79,2.7839c-.4296.4276-.6651.9988-.6641,1.6063c0,.6065.2365,1.1756.6641,1.6012.4286.4286.9997.6641,1.6093.6641s1.1817-.2355,1.6083-.6631l2.791-2.7849c.4286-.4266.6641-.9957.6641-1.6042c0-.6086-.2355-1.1777-.6641-1.6033-.4438-.4427-1.0261-.6641-1.6093-.6641Z" transform="translate(-34.615549,-24.2145)" fill="#fff" stroke="#fff" stroke-width="0.8"/></g><g id="e0xBkEAbs1412_to" transform="translate(21.212014,23.882943)"><path d="M8.75921,33.8887c-.10614,0-.21329-.0405-.29416-.1223-.16173-.1628-.16173-.4256,0-.5884l3.14885-3.1427c2.6717-2.6636,3.7573-4.6945,3.63-6.792-.0961-1.6022.4822-3.1933,1.5466-4.2547l4.5772-4.5671c.7258-.7247,1.9064-.7258,2.6312-.003l5.9307,5.9156c1.2485,1.2342,2.234,2.2097,2.1451,3.073-.0233.2284-.2264.3972-.4559.371-.2285-.0233-.3942-.2275-.371-.4559.0485-.4671-1.0331-1.5376-1.9024-2.3968l-.3892-.3861-5.5436-5.5315c-.4003-.4003-1.0543-.3982-1.4566.0031l-4.5772,4.567c-.8845.8825-1.3849,2.2684-1.304,3.6159.1435,2.3593-1.0149,4.5822-3.8726,7.4308L9.05337,33.7674c-.08087.0808-.18802.1213-.29416.1213ZM28.8591,25.3459c-1.7821,0-3.6623-.9967-4.7065-2.0055-.0233-.0233-1.9287-1.9207-1.9843-1.9793-.1577-.1668-.1496-.4306.0171-.5873s.4287-.1496.5863.0151c.0839.087,1.9156,1.9116,1.9631,1.9591c1.3546,1.308,4.1547,2.4736,5.8741,1.2474.187-.1334.4468-.09.5803.097s.0899.4468-.0971.5803c-.6702.4781-1.4415.6742-2.2319.6742l-.0011-.001Z" transform="translate(-20.212014,-23.882943)" fill="#fff" stroke="#fff" stroke-width="0.8"/></g><g id="e0xBkEAbs1413_to" transform="translate(23.458425,24.573088)"><path d="M21.4506,28.4853c-.1061,0-.2133-.0404-.2941-.1223-.1618-.1627-.1618-.4256,0-.5883c1.1847-1.1827,1.8923-2.7233,1.8923-4.1223c0-.9239-.3012-1.7134-.8714-2.2815-.1627-.1617-.1627-.4256,0-.5883.1618-.1618.4256-.1628.5883,0c.7299.7278,1.116,1.7205,1.116,2.8708c0,1.6396-.7783,3.3561-2.1359,4.7106-.0809.0809-.189.1213-.2952.1213Z" transform="translate(-22.458425,-24.573088)" fill="#fff" stroke="#fff" stroke-width="0.8"/></g></svg>
