<svg id="eWqe6cEP7JM1" xmlns="http://www.w3.org/2000/svg" xmlns:xlink="http://www.w3.org/1999/xlink" viewBox="0 0 50 53" shape-rendering="geometricPrecision" text-rendering="geometricPrecision" project-id="3a603c66f434453cad622c15a5b1c1ef" export-id="014fd5d270ae49c3a89674d823227772" cached="false">
<style><![CDATA[
#eWqe6cEP7JM2 {animation: eWqe6cEP7JM2__m 3000ms linear infinite normal forwards}@keyframes eWqe6cEP7JM2__m { 0% {d: path('M35.711437,20.077941L26.5426,24.637M25,36.313214L24.6199,26.5597M26.5426,24.637C26.5426,23.5772,25.6798,22.7144,24.6199,22.7144C23.5601,22.7144,22.6973,23.5763,22.6973,24.637C22.6973,25.6969,23.5601,26.5597,24.6199,26.5597M26.5426,24.637C26.5426,25.6969,25.6798,26.5597,24.6199,26.5597')} 11.666667% {d: path('M35.711437,20.077941L26.5426,24.637M25,36.313214L24.6199,26.5597M26.5426,24.637C26.5426,23.5772,25.6798,22.7144,24.6199,22.7144C23.5601,22.7144,22.6973,23.5763,22.6973,24.637C22.6973,25.6969,23.5601,26.5597,24.6199,26.5597M26.5426,24.637C26.5426,25.6969,25.6798,26.5597,24.6199,26.5597')} 46.666667% {d: path('M36.864238,24.3723L26.5426,24.637M25,36.313214L24.6199,26.5597M26.5426,24.637C26.5426,23.5772,25.6798,22.7144,24.6199,22.7144C23.5601,22.7144,22.6973,23.5763,22.6973,24.637C22.6973,25.6969,23.5601,26.5597,24.6199,26.5597M26.5426,24.637C26.5426,25.6969,25.6798,26.5597,24.6199,26.5597')} 100% {d: path('M36.864238,24.3723L26.5426,24.637M25,36.313214L24.6199,26.5597M26.5426,24.637C26.5426,23.5772,25.6798,22.7144,24.6199,22.7144C23.5601,22.7144,22.6973,23.5763,22.6973,24.637C22.6973,25.6969,23.5601,26.5597,24.6199,26.5597M26.5426,24.637C26.5426,25.6969,25.6798,26.5597,24.6199,26.5597')}} #eWqe6cEP7JM3 {animation: eWqe6cEP7JM3_s_do 3000ms linear infinite normal forwards}@keyframes eWqe6cEP7JM3_s_do { 0% {stroke-dashoffset: 121.29} 33.333333% {stroke-dashoffset: 0} 100% {stroke-dashoffset: 0}} #eWqe6cEP7JM11_to {animation: eWqe6cEP7JM11_to__to 3000ms linear infinite normal forwards}@keyframes eWqe6cEP7JM11_to__to { 0% {transform: translate(38.9227px,38.620649px)} 33.333333% {transform: translate(38.9227px,38.620649px)} 50% {transform: translate(38.9227px,40.620649px)} 100% {transform: translate(38.9227px,40.620649px)}} #eWqe6cEP7JM13 {animation: eWqe6cEP7JM13_s_do 3000ms linear infinite normal forwards}@keyframes eWqe6cEP7JM13_s_do { 0% {stroke-dashoffset: 22.36} 3.333333% {stroke-dashoffset: 22.36} 10% {stroke-dashoffset: 0} 100% {stroke-dashoffset: 0}}
]]></style>
<path id="eWqe6cEP7JM2" d="M35.711437,20.077941L26.5426,24.637M25,36.313214L24.6199,26.5597m1.9227-1.9227c0-1.0598-.8628-1.9226-1.9227-1.9226s-1.9226.8619-1.9226,1.9226c0,1.0599.8628,1.9227,1.9226,1.9227m1.9227-1.9227c0,1.0599-.8628,1.9227-1.9227,1.9227" fill="none" stroke="#fff" stroke-width="2" stroke-linecap="round"/><path id="eWqe6cEP7JM3" d="M29.4878,47.7185l-.0119.0025c-1.5932.3329-3.2262.5019-4.8542.5019h-.079c-3.1057,0-6.1341-.6046-9.002-1.797-2.8679-1.1923-5.4334-2.9129-7.62362-5.1149C3.45601,36.8499,1,30.9205,1,24.6132s2.45601-12.2376,6.91623-16.69697C12.3756,3.45601,18.3067,1,24.6132,1s12.2367,2.45601,16.6969,6.91538c2.2114,2.20042,3.9371,4.77532,5.1303,7.65592l-.0009-.0009c1.1932,2.8807,1.7936,5.9227,1.7851,9.0402c0,1.6807-.1791,3.3647-.5324,5.0063l-.0051.0238" fill="none" stroke="#fff" stroke-width="2" stroke-linecap="round" stroke-dashoffset="121.29" stroke-dasharray="121.29"/><path d="M14.7051,7.45166l1.301,2.26917" fill="none" stroke="#fff" stroke-width="2" stroke-linecap="round"/><path d="M7.44727,14.688l2.26598,1.3083" fill="none" stroke="#fff" stroke-width="2" stroke-linecap="round"/><path d="M41.791,14.7014l-2.2734,1.3019" fill="none" stroke="#fff" stroke-width="2" stroke-linecap="round"/><path d="M7.43359,34.5208l2.71111-1.511" fill="none" stroke="#fff" stroke-width="2" stroke-linecap="round"/><path d="M33.3946,10.2539h-.001-.001.002Z" fill="none" stroke="#fff" stroke-width="2"/><path d="M34.5211,7.45093L33.2227,9.70142" fill="none" stroke="#fff" stroke-width="2" stroke-linecap="round"/><path d="M14.7051,41.771l1.2993-2.2505" fill="none" stroke="#fff" stroke-width="2" stroke-linecap="round"/><g id="eWqe6cEP7JM11_to" transform="translate(38.9227,38.620649)"><path d="M31.4961,42.7786l7.4241,8.2215l7.4291-8.2215h-3.7706v-12.5374h-7.312v12.5374h-3.7706Z" transform="translate(-38.9227,-40.620649)" fill="none" stroke="#fff" stroke-width="2"/></g><path d="M24.3887,7.60521c0,.55228.4477,1,1,1s1-.44772,1-1h-2ZM25.3887,1h-1v6.60521h1h1v-6.60521h-1Z" fill="#fff"/><path id="eWqe6cEP7JM13" d="M24.3887,41.6475c0-.5523.4477-1,1-1s1,.4477,1,1h-2Zm1,6.6052h-1v-6.6052h1h1v6.6052h-1Z" fill="#fff" stroke-dashoffset="22.36" stroke-dasharray="22.36"/><path d="M41.6465,23.3723c-.5523,0-1,.4477-1,1s.4477,1,1,1v-2Zm6.6052,1v-1h-6.6052v1v1h6.6052v-1Z" fill="#fff"/><path d="M7.60547,23.3723c.55228,0,1,.4477,1,1s-.44772,1-1,1v-2Zm-6.60521,1v-1h6.60521v1v1h-6.60521v-1Z" fill="#fff"/></svg>
