<svg width="56" height="52" viewBox="0 0 56 52" fill="none" xmlns="http://www.w3.org/2000/svg">
<path d="M49.086 36.7932L48.9223 36.6274L48.8437 36.4282C48.8211 36.3711 48.7877 36.3205 48.7436 36.2763C48.7005 36.2333 48.6488 36.1999 48.5917 36.1762L48.3904 36.0965L39.397 27.1365L38.8101 27.8213L47.7034 36.6801L40.898 43.4855L32.5302 35.1522L31.9434 35.837L41.0121 44.8724C42.3851 46.2453 48.2611 48.61 53.4761 50.3458C53.5213 50.3608 53.5698 50.3684 53.6171 50.3684C53.7377 50.3684 53.8497 50.3221 53.9348 50.237L54.4549 49.7169C54.5755 49.5963 54.6175 49.4208 54.5636 49.2582C52.8289 44.0443 50.4632 38.1683 49.086 36.791V36.7932ZM51.6369 48.7618C50.0928 48.2115 44.8757 46.3078 42.5767 44.923L41.4278 44.2306L48.4464 37.2121L49.1387 38.361C50.5246 40.66 52.4284 45.8771 52.9786 47.4212L53.7205 49.5048L51.6369 48.7618Z" fill="white" stroke="white" stroke-width="0.7"/>
<path d="M54.4356 6.78563C55.6879 5.51501 55.6922 3.46802 54.4474 2.22216L54.1534 1.9282C53.5547 1.3295 52.7515 1 51.8922 1C51.0232 1 50.2048 1.33381 49.59 1.94004L49.5781 1.95189L31.2015 18.9082L19.0186 6.72533L18.9389 6.52397C18.9163 6.4669 18.8829 6.41629 18.8399 6.37322C18.7957 6.33015 18.7451 6.29569 18.687 6.27308L18.4856 6.19339L14.8579 2.56566C13.8478 1.55563 12.5062 1 11.0783 1C9.65049 1 8.3088 1.55563 7.29984 2.56566L6.78082 3.08468C4.69722 5.16828 4.69722 8.55912 6.78082 10.6427L22.7982 26.6601L16.7154 32.2734C16.2276 32.7612 15.9756 33.3545 15.9659 34.0372L15.9476 35.3089L14.7028 35.0505C14.3496 34.9773 13.9997 34.9396 13.6626 34.9396C12.252 34.9396 10.9653 35.562 9.83785 36.7884C8.2948 38.4672 7.6638 40.3042 7.05325 42.0809C6.13474 44.7557 5.26577 47.2818 1.27301 48.9853C1.13518 49.0445 1.03611 49.1673 1.00811 49.3137C0.980116 49.4602 1.02534 49.6109 1.13194 49.7165C1.87601 50.4605 4.35588 51 7.02956 51C9.9143 51 15.3694 50.383 19.4989 46.2535C20.5488 45.2036 21.0796 43.989 21.0764 42.643C21.0764 42.3178 21.0408 41.9775 20.9741 41.6319L20.7124 40.2816L22.0843 40.386C22.1736 40.3925 22.2447 40.3957 22.3061 40.3957C23.0082 40.3957 23.6176 40.1427 24.1151 39.6452L54.4119 6.8104L54.4356 6.78563ZM7.41721 10.0074C5.68464 8.27484 5.68357 5.45471 7.41721 3.72107L7.93623 3.20205C8.77613 2.36215 9.89169 1.9002 11.0794 1.9002C12.2671 1.9002 13.3837 2.36215 14.2226 3.20205L17.7986 6.77809L10.9933 13.5835L7.41721 10.0074ZM11.6296 14.2188L18.435 7.4134L30.5404 19.5188L23.4615 26.0506L11.6296 14.2188ZM18.8636 45.6192C14.9634 49.5194 9.7754 50.102 7.03064 50.102C6.3318 50.102 5.65019 50.0653 5.00518 49.9943L2.53393 49.7218L4.45386 48.1411C6.50301 46.4538 7.21585 44.3799 7.90608 42.3716C8.48647 40.6821 9.08732 38.9356 10.5022 37.3968C11.453 36.3631 12.5169 35.8387 13.6648 35.8387C15.6967 35.8387 17.4637 37.4668 17.7975 37.7931L17.8277 37.8243C17.8751 37.8749 17.9106 37.9105 17.93 37.9298L17.9881 37.9891C18.3532 38.367 20.173 40.3688 20.1773 42.6462C20.1794 43.7445 19.7379 44.7449 18.8636 45.6192ZM23.4712 39.0196L23.4475 39.0422C23.1266 39.3491 22.753 39.4987 22.3061 39.4987C21.1119 39.4987 19.6798 38.3993 19.0832 37.8125L18.5944 37.3225C18.5653 37.2924 18.5211 37.245 18.4619 37.1868L18.4339 37.1578C18.1723 36.8767 16.8683 35.4058 16.8661 34.0814C16.8661 33.6377 17.0136 33.2673 17.3205 32.9464L17.3431 32.9227L50.2081 2.59366C50.656 2.14571 51.2536 1.89913 51.8922 1.89913C52.5113 1.89913 53.0896 2.13494 53.5181 2.56351L53.811 2.8564C54.2428 3.28819 54.4851 3.89551 54.4754 4.5222C54.4657 5.14567 54.2191 5.72929 53.7819 6.16647L23.4712 39.0174V39.0196Z" fill="white" stroke="white" stroke-width="0.7"/>
</svg>
