<svg id="e75HuE8ek1y1" xmlns="http://www.w3.org/2000/svg" xmlns:xlink="http://www.w3.org/1999/xlink" viewBox="0 0 50 52" shape-rendering="geometricPrecision" text-rendering="geometricPrecision" project-id="d14d798cdf5f416f82d1c07f9fcc395c" export-id="1c6e18ce0e1a4aa3bb515055ac4c85c5" cached="false">
<style><![CDATA[
#e75HuE8ek1y4_ts {animation: e75HuE8ek1y4_ts__ts 3000ms linear infinite normal forwards}@keyframes e75HuE8ek1y4_ts__ts { 0% {transform: translate(31.868002px,14.455745px) rotate(361deg) scale(0.2,0.2)} 33.333333% {transform: translate(31.868002px,14.455745px) rotate(361deg) scale(1,1)} 100% {transform: translate(31.868002px,14.455745px) rotate(361deg) scale(1,1)}} #e75HuE8ek1y5 {animation: e75HuE8ek1y5_c_o 3000ms linear infinite normal forwards}@keyframes e75HuE8ek1y5_c_o { 0% {opacity: 0} 38.333333% {opacity: 0} 50% {opacity: 1} 100% {opacity: 1}} #e75HuE8ek1y6 {animation: e75HuE8ek1y6_c_o 3000ms linear infinite normal forwards}@keyframes e75HuE8ek1y6_c_o { 0% {opacity: 0} 38.333333% {opacity: 0} 50% {opacity: 1} 100% {opacity: 1}} #e75HuE8ek1y7 {animation: e75HuE8ek1y7_c_o 3000ms linear infinite normal forwards}@keyframes e75HuE8ek1y7_c_o { 0% {opacity: 0} 38.333333% {opacity: 0} 50% {opacity: 1} 100% {opacity: 1}} #e75HuE8ek1y8 {animation: e75HuE8ek1y8_c_o 3000ms linear infinite normal forwards}@keyframes e75HuE8ek1y8_c_o { 0% {opacity: 0} 38.333333% {opacity: 0} 50% {opacity: 1} 100% {opacity: 1}} #e75HuE8ek1y9 {animation: e75HuE8ek1y9_c_o 3000ms linear infinite normal forwards}@keyframes e75HuE8ek1y9_c_o { 0% {opacity: 0} 38.333333% {opacity: 0} 50% {opacity: 1} 100% {opacity: 1}} #e75HuE8ek1y10 {animation: e75HuE8ek1y10_c_o 3000ms linear infinite normal forwards}@keyframes e75HuE8ek1y10_c_o { 0% {opacity: 0} 38.333333% {opacity: 0} 50% {opacity: 1} 100% {opacity: 1}} #e75HuE8ek1y11 {animation: e75HuE8ek1y11_c_o 3000ms linear infinite normal forwards}@keyframes e75HuE8ek1y11_c_o { 0% {opacity: 0} 38.333333% {opacity: 0} 50% {opacity: 1} 100% {opacity: 1}}
]]></style>
<rect width="67.768715" height="52" rx="0" ry="0" transform="translate(-7.941815 0)" fill="#d2dbed" stroke-width="0"/><path d="M12.4755,51.0001c-.5397,0-1.045-.2092-1.4245-.5886L1.59134,40.9509C1.21009,40.5696,1,40.0634,1,39.5255s.21009-1.0442.59134-1.4254l2.83357-2.8336c.37672-.3767.87841-.5841,1.4127-.5841.36314,0,.71994.0969,1.03236.2808l.30247.1784l6.47036-5.4055c.6158-.5143,1.2488-.9073,1.8809-1.1682c1.2162-.5026,2.5402-.757,3.9338-.757c1.8891,0,3.5363.4636,4.5868.853.7824.2898,1.6138.4374,2.4722.4374h6.3409c1.3176,0,2.5193.6122,3.2972,1.6781l.327.4491l6.4006-5.8328c.7942-.7236,1.8311-1.122,2.9196-1.122c1.007,0,1.9841.3477,2.752.9798.4275.3523.6774.8522.7037,1.4064s-.1748,1.074-.566,1.4652L38.5571,38.2595c-1.0794,1.0794-3.0074,1.8944-5.7323,2.4224-2.7158.5261-5.5675.6366-7.4819.6366-.9898,0-1.9778-.0308-2.8571-.0878-.1395-.0091-.2825-.0145-.4238-.0145-1.7568,0-3.4376.7136-4.7335,2.0095l-1.0459,1.0459.4519.4519c.3803.3803.5895.8866.5895,1.4254s-.2092,1.045-.5895,1.4254l-2.8336,2.8344c-.3803.3795-.8866.5887-1.4263.5887l.0009.0027ZM1.95629,40.4718l9.51581,9.5177c.2681.2671.6249.4138,1.0034.4138s.7353-.1467,1.0034-.4148l2.8336-2.8335c.5506-.5524.5515-1.4508.0027-2.0032-.0516-.0516-9.17355-9.1744-9.46243-9.4624-.26896-.268-.62485-.4156-1.00339-.4156s-.73442.1476-1.00247.4147L2.01334,38.5221c-.26895.2698-.41656.6266-.41566,1.0061c0,.3486.12588.6774.35499.9354l.00362.0073v.0009ZM15.8588,43.8523l1.0468-1.0468c1.3874-1.3874,3.2764-2.1825,5.1827-2.1825.1458,0,.2925.0046.4374.0136.8249.0534,1.7803.0824,2.7611.0824c2.9974,0,10.2484-.2807,12.8474-2.8797L48.2686,27.7049c.268-.2689.4111-.6393.393-1.0169-.019-.3768-.1965-.7299-.489-.9699-.6629-.5461-1.5069-.8476-2.3735-.8476-.9373,0-1.8302.3441-2.5157.9698l-6.5727,5.9886.0778.2925c.0924.3469.1386.7073.1359,1.0732-.0082,1.0993-.9165,1.994-2.0249,1.994h-14.2511c-.1648,0-.2989-.134-.2989-.2988s.1341-.2988.2989-.2988h14.252c.7815,0,1.4227-.6285,1.4272-1.401.0073-.9282-.3495-1.8039-1.0061-2.465-.6556-.661-1.5304-1.0242-2.465-1.0242h-6.3409c-.9291,0-1.831-.1594-2.6805-.4745-1.0034-.3722-2.5764-.8159-4.3739-.8159-1.3167,0-2.5655.24-3.7093.7118-.575.2372-1.1564.5985-1.726,1.0749L7.61527,35.5518l.39936.4021c.15576.1566,7.84417,7.9002,7.84417,7.9002v-.0018Z" fill="#fff" stroke="#fff"/><g id="e75HuE8ek1y4_ts" transform="translate(31.868002,14.455745) rotate(361) scale(0.2,0.2)"><path d="M27.8399,22.9193c-.6557,0-1.305-.3061-1.7369-.8196-.4311-.5116-.605-1.1609-.4909-1.8301l.4211-2.4569c.0924-.5406-.086-1.0921-.479-1.4743l-1.7768-1.7278c-.6312-.6131-.8458-1.4797-.5741-2.3183.2717-.8377.9536-1.4136,1.8238-1.5404l2.4569-.3586c.5406-.0788,1.0079-.41837,1.2506-.90738l1.1066-2.23588c.3894-.78786,1.1474-1.25785,2.0276-1.25785s1.6382.47181,2.0276,1.26147L34.9958,9.4832c.2408.49083.709.8313,1.2515.911l2.4613.3586c.8703.1268,1.5522.7018,1.8239,1.5395.2717.8368.0579,1.7034-.5714,2.3174l-1.775,1.7306c-.3912.3812-.5696.9309-.479,1.4697l.4183,2.4632c.1132.6683-.0606,1.3176-.4917,1.8275-.4329.5125-1.0822.8186-1.7378.8186-.364,0-.7199-.0906-1.0559-.2681L32.6485,21.493c-.2391-.1259-.5071-.192-.777-.192s-.537.0661-.7761.1911l-2.2005,1.1601c-.3369.1774-.6919.2671-1.0559.2671h.0009Zm4.028-16.33033c-.6375,0-1.209.35498-1.4915.9255L29.2698,9.75035c-.3297.66555-.9654,1.12745-1.6998,1.23335l-2.4568.3587c-.633.0932-1.1483.5279-1.3448,1.1347-.1965.6058-.0335,1.2587.4238,1.7052L25.968,15.911c.5343.5189.7788,1.2678.6529,2.0032l-.421,2.4568c-.0834.4854.0489.978.3622,1.3511.3197.3795.7842.5968,1.275.5968.2708,0,.5325-.0661.7788-.1956l2.1997-1.1591c.3242-.1712.6882-.2618,1.0541-.2618.3658,0,.7317.0906,1.0559.2627l2.1924,1.1582c.2472.1295.5089.1947.7788.1947.4908,0,.9554-.2173,1.2751-.5959.3187-.3767.4473-.8558.364-1.3493l-.4175-2.4632c-.124-.7317.1187-1.4788.6512-1.9968l1.774-1.7305c.4564-.4456.6185-1.0985.4229-1.7034-.1965-.6068-.7118-1.0415-1.3439-1.1347l-2.4614-.3586c-.7371-.1078-1.3737-.5706-1.7015-1.23706L33.3603,7.519c-.2826-.57324-.8549-.93003-1.4924-.93003Z" transform="translate(-31.868002,-14.455745)" fill="#fff" stroke="#fff"/></g><path id="e75HuE8ek1y5" d="M31.8672,2.74505c-.1648,0-.2988-.13402-.2988-.29884v-1.14737c0-.16481.134-.29884.2988-.29884s.2988.13403.2988.29884v1.14737c0,.16482-.134.29884-.2988.29884Z" opacity="0" fill="#fff" stroke="#fff"/><path id="e75HuE8ek1y6" d="M25.8636,4.35373c-.1087,0-.2056-.05615-.259-.14852l-.5741-.99432c-.0399-.06883-.0507-.14942-.0299-.2273.0208-.07698.0697-.14127.1395-.18112.047-.02717.0959-.04075.1485-.04075.1068,0,.2055.05705.259.14942l.5741.99433c.0399.06882.0507.14942.0299.22639s-.0697.14127-.1395.18112c-.0452.02626-.096.03984-.1485.03984v.00091Z" opacity="0" fill="#fff" stroke="#fff"/><path id="e75HuE8ek1y7" d="M21.4648,8.7488c-.0526,0-.1024-.01359-.1486-.03985l-.9934-.57323c-.1422-.08241-.1911-.26534-.1096-.40842.0535-.09237.1522-.14942.259-.14942.0526,0,.1024.01358.1486.04075l.9943.57323c.1422.08241.1911.26534.1096.40842-.0535.09146-.1531.14852-.2599.14852Z" opacity="0" fill="#fff" stroke="#fff"/><path id="e75HuE8ek1y8" d="M18.711,14.7542c-.1649,0-.2989-.134-.2989-.2989c0-.1648.134-.2988.2989-.2988h1.1473c.1648,0,.2989.134.2989.2988c0,.1649-.1341.2989-.2989.2989h-1.1473Z" opacity="0" fill="#fff" stroke="#fff"/><path id="e75HuE8ek1y9" d="M43.877,14.7542c-.1648,0-.2989-.134-.2989-.2989c0-.1648.1341-.2988.2989-.2988h1.1473c.1649,0,.2989.134.2989.2988c0,.1649-.134.2989-.2989.2989h-1.1473Z" opacity="0" fill="#fff" stroke="#fff"/><path id="e75HuE8ek1y10" d="M42.27,8.74873c-.1087,0-.2056-.05615-.2599-.15033-.0815-.14218-.0326-.3251.1105-.40751l.9934-.57323c.0462-.02717.096-.04076.1485-.04076.1069,0,.2065.05796.2608.15033.0815.14127.0326.3251-.1105.40751l-.9934.57323c-.0462.02627-.096.03985-.1485.03985l-.0009.00091Z" opacity="0" fill="#fff" stroke="#fff"/><path id="e75HuE8ek1y11" d="M37.8726,4.35356c-.0526,0-.1024-.01359-.1486-.03985-.0688-.03984-.1186-.10414-.1394-.18112s-.19273.14144-.15283.07262l.75683-1.29243c.0543-.09418.1503-.15033.2581-.15033.0525,0,.1023.01358.1485.04075.1431.08241.192.26624.1096.40842l-.5742.99342c-.0543.09328-.1512.14942-.2589.14942l.0009-.0009Z" opacity="0" fill="#fff" stroke="#fff"/></svg>
