<svg width="48" height="52" viewBox="0 0 48 52" fill="none" xmlns="http://www.w3.org/2000/svg">
<path d="M24.2492 37.2709C24.4348 37.2709 24.586 37.1196 24.586 36.9341C24.586 36.9341 24.586 28.6346 24.586 26.8328L24.942 26.7308C25.8078 26.4835 26.4714 25.8182 26.7163 24.9516L26.8032 24.6424H37.1251C37.2154 24.6424 37.2998 24.6073 37.3633 24.5438C37.4268 24.4803 37.4619 24.3958 37.4619 24.3056C37.4619 24.1201 37.3106 23.9696 37.1259 23.9688H26.8232L26.7405 23.637C26.4547 22.4904 25.4309 21.689 24.2509 21.689C24.042 21.689 23.833 21.7149 23.6283 21.7658C22.9631 21.9313 22.4015 22.3467 22.048 22.9342C21.6945 23.5217 21.5908 24.212 21.7571 24.8781C21.9794 25.7714 22.6681 26.481 23.5548 26.73L23.9133 26.8303V36.9333C23.9133 37.1188 24.0645 37.27 24.2501 37.27L24.2492 37.2709ZM22.3513 24.2605C22.3513 23.2167 23.2004 22.3684 24.2434 22.3684C25.2864 22.3684 26.1354 23.2175 26.1354 24.2605C26.1354 25.3034 25.2864 26.1525 24.2434 26.1525C23.2004 26.1525 22.3513 25.3034 22.3513 24.2605Z" fill="white" stroke="white" stroke-width="0.7"/>
<path d="M45.7166 15.3392C44.5424 12.5045 42.8443 9.97057 40.6681 7.80523C36.2789 3.41689 30.4431 1 24.2371 1C18.031 1 12.1944 3.41689 7.80607 7.80607C3.41689 12.1944 1 18.0302 1 24.2371C1 30.4439 3.41689 36.2789 7.8069 40.6689C9.96221 42.8359 12.4869 44.5291 15.3091 45.7024C18.1313 46.8758 21.1115 47.4708 24.1677 47.4708H24.2454C25.8475 47.4708 27.4546 47.3045 29.0224 46.9769L29.0341 46.9744C29.2163 46.941 29.3383 46.7654 29.3048 46.5824C29.2756 46.4228 29.1369 46.3066 28.9747 46.3066C28.9547 46.3066 28.9338 46.3083 28.9137 46.3125L28.8836 46.3192C27.6351 46.5791 26.3556 46.7345 25.0811 46.7805L24.5655 46.7989V40.9915C24.5655 40.9012 24.5304 40.8168 24.4669 40.7533C24.4034 40.6898 24.319 40.6547 24.2287 40.6547C24.0432 40.6547 23.8919 40.806 23.8919 40.9923V46.7997L23.3754 46.7805C11.6504 46.3351 2.12738 36.8029 1.69448 25.0786L1.67526 24.5622H7.48265C7.66817 24.5622 7.81944 24.4117 7.81944 24.2262C7.81944 24.0407 7.66901 23.8894 7.48181 23.8894H1.67442L1.69364 23.3729C2.1349 11.6479 11.6671 2.12487 23.3947 1.69114L23.9111 1.67192V7.4793C23.9111 7.66483 24.0624 7.8161 24.2479 7.8161C24.4335 7.8161 24.5847 7.66483 24.5847 7.4793V1.67275L25.1012 1.69197C36.8246 2.13574 46.3476 11.6671 46.7813 23.3922L46.8006 23.9086H40.994C40.9037 23.9086 40.8193 23.9437 40.7558 24.0072C40.6923 24.0708 40.6572 24.1552 40.6572 24.2454C40.6572 24.431 40.8085 24.5814 40.9932 24.5822H46.7997L46.7805 25.0987C46.7312 26.4133 46.5666 27.7329 46.2908 29.019L46.2883 29.0299C46.2448 29.2104 46.3568 29.3926 46.5381 29.4352C46.564 29.4411 46.5908 29.4444 46.6167 29.4444C46.773 29.4444 46.9067 29.3383 46.9435 29.1845L46.9485 29.1611C47.2961 27.5457 47.4725 25.8884 47.4725 24.2346C47.4808 21.1667 46.89 18.1731 45.7158 15.3384L45.7166 15.3392Z" fill="white" stroke="white" stroke-width="0.7"/>
<path d="M15.9003 9.12473L15.4356 8.35588H15.4573L14.9475 7.47253C14.8874 7.3689 14.7754 7.30371 14.655 7.30371C14.5957 7.30371 14.5397 7.31875 14.4871 7.34884C14.3258 7.4416 14.2706 7.64803 14.3634 7.80932L15.3102 9.44899C15.3696 9.5568 15.4824 9.62366 15.6061 9.62366C15.6629 9.62366 15.7172 9.60945 15.7674 9.58187C15.9303 9.49245 15.9897 9.2877 15.9003 9.12473Z" fill="white" stroke="white" stroke-width="0.7"/>
<path d="M9.60265 15.5088C9.57925 15.4219 9.52326 15.3492 9.44554 15.304L7.80587 14.3572C7.75238 14.3246 7.69388 14.3079 7.63204 14.3079C7.51253 14.3079 7.40472 14.3689 7.34372 14.47C7.24761 14.6288 7.29775 14.836 7.45654 14.9321L9.10958 15.8874C9.1614 15.9174 9.21823 15.9325 9.27756 15.9325C9.3979 15.9325 9.50989 15.8681 9.57006 15.7637C9.61519 15.686 9.62689 15.5949 9.60349 15.5079L9.60265 15.5088Z" fill="white" stroke="white" stroke-width="0.7"/>
<path d="M39.2026 15.9324C39.2611 15.9324 39.3187 15.9173 39.3689 15.8881L41.0085 14.9404C41.1715 14.851 41.2308 14.6462 41.1414 14.4833C41.0821 14.3755 40.9693 14.3086 40.8456 14.3086C40.7887 14.3086 40.7344 14.3228 40.6851 14.3504L39.0279 15.3048C38.8674 15.3975 38.8114 15.604 38.9042 15.7644C38.9644 15.868 39.0764 15.9332 39.1959 15.9332H39.2017L39.2026 15.9324Z" fill="white" stroke="white" stroke-width="0.7"/>
<path d="M9.27765 32.5377C9.21831 32.5377 9.16232 32.5527 9.10967 32.5828L8.99434 32.6472L7.46582 33.5305C7.38726 33.574 7.3296 33.645 7.30452 33.7311C7.27945 33.8172 7.28948 33.9083 7.33294 33.9877C7.39227 34.0955 7.5051 34.1623 7.62878 34.1623C7.68561 34.1623 7.73993 34.1481 7.78924 34.1205L9.44646 33.1662C9.52418 33.121 9.58018 33.0483 9.60358 32.9614C9.62698 32.8745 9.61528 32.7834 9.57015 32.7057C9.50998 32.6021 9.39799 32.5377 9.27765 32.5377Z" fill="white" stroke="white" stroke-width="0.7"/>
<path d="M32.879 10.1064H32.878H32.877H32.879Z" fill="white" stroke="white" stroke-width="0.7"/>
<path d="M32.8787 9.60788C32.9982 9.60788 33.1094 9.54353 33.1695 9.43907L34.1114 7.80859C34.1565 7.73087 34.1682 7.63977 34.1448 7.55286C34.1214 7.46594 34.0654 7.39324 33.9877 7.34811C33.9359 7.31802 33.8791 7.30298 33.8197 7.30298C33.6994 7.30298 33.5874 7.36733 33.5272 7.47179L32.5862 9.10227C32.5411 9.18 32.5294 9.27109 32.5528 9.358C32.5762 9.44492 32.6313 9.51762 32.7099 9.56275C32.7609 9.592 32.8194 9.60788 32.8787 9.60788Z" fill="white" stroke="white" stroke-width="0.7"/>
<path d="M15.765 38.9069C15.7132 38.8769 15.6564 38.8618 15.5979 38.8618C15.4784 38.8618 15.3664 38.9262 15.3071 39.0298L14.3636 40.6619C14.3184 40.7397 14.3067 40.8308 14.3301 40.9177C14.3535 41.0046 14.4095 41.0773 14.4872 41.1224C14.5391 41.1525 14.5959 41.1676 14.6552 41.1676C14.7756 41.1676 14.8875 41.1032 14.9477 40.9987L15.8896 39.3683C15.9347 39.2905 15.9464 39.1994 15.923 39.1125C15.8996 39.0256 15.8444 38.9529 15.7659 38.9078L15.765 38.9069Z" fill="white" stroke="white" stroke-width="0.7"/>
<path d="M46.1842 41.4386H42.589V29.5255C42.589 29.2915 42.3984 29.1018 42.1644 29.1018H34.4708C34.2368 29.1018 34.0463 29.2923 34.0463 29.5255V41.4386H30.4511C30.2171 41.4386 30.0265 41.6292 30.0273 41.8632C30.0273 41.9685 30.0658 42.0688 30.136 42.1465L38.0051 50.8597C38.0853 50.9482 38.1998 51.0001 38.3193 51.0001C38.4388 51.0001 38.5542 50.9491 38.6335 50.8605L46.5018 42.1465C46.5779 42.0621 46.6163 41.9534 46.6104 41.8406C46.6046 41.7278 46.5553 41.6233 46.4709 41.5473C46.3923 41.4771 46.292 41.4386 46.1842 41.4386ZM38.3151 50.2036L31.0093 42.1131H34.7199V29.7754H41.9154V42.1131H45.626L38.3151 50.2036Z" fill="white" stroke="white" stroke-width="0.7"/>
</svg>
