<svg id="eLPNjuYaXqt1" xmlns="http://www.w3.org/2000/svg" xmlns:xlink="http://www.w3.org/1999/xlink" viewBox="0 0 57 52" shape-rendering="geometricPrecision" text-rendering="geometricPrecision" project-id="2b56488b6a4c4b4c96f3f3741d4135e7" export-id="5cdc9e5bba924b608bde194e64a47990" cached="false">
<style><![CDATA[
#eLPNjuYaXqt2_tk {animation: eLPNjuYaXqt2_tk__tk 3000ms linear infinite normal forwards}@keyframes eLPNjuYaXqt2_tk__tk { 0% {transform: translate(39.976501px,37.245501px) skewX(0deg) skewY(0deg)} 33.333333% {transform: translate(39.976501px,37.245501px) skewX(0deg) skewY(0deg)} 66.666667% {transform: translate(39.976501px,37.245501px) skewX(3deg) skewY(0deg)} 100% {transform: translate(39.976501px,37.245501px) skewX(3deg) skewY(0deg)}} #eLPNjuYaXqt3_tk {animation: eLPNjuYaXqt3_tk__tk 3000ms linear infinite normal forwards}@keyframes eLPNjuYaXqt3_tk__tk { 0% {transform: translate(13.167514px,9.1436px) skewX(0deg) skewY(0deg)} 33.333333% {transform: translate(13.167514px,9.1436px) skewX(0deg) skewY(0deg)} 66.666667% {transform: translate(13.167514px,9.1436px) skewX(3deg) skewY(0deg)} 100% {transform: translate(13.167514px,9.1436px) skewX(3deg) skewY(0deg)}} #eLPNjuYaXqt4_tk {animation: eLPNjuYaXqt4_tk__tk 3000ms linear infinite normal forwards}@keyframes eLPNjuYaXqt4_tk__tk { 0% {transform: translate(21.6221px,17.466914px) skewX(0deg) skewY(0deg)} 33.333333% {transform: translate(21.6221px,17.466914px) skewX(0deg) skewY(0deg)} 66.666667% {transform: translate(21.6221px,17.466914px) skewX(3deg) skewY(0deg)} 100% {transform: translate(21.6221px,17.466914px) skewX(3deg) skewY(0deg)}} #eLPNjuYaXqt5_to {animation: eLPNjuYaXqt5_to__to 3000ms linear infinite normal forwards}@keyframes eLPNjuYaXqt5_to__to { 0% {transform: translate(15.683804px,38.60235px)} 33.333333% {transform: translate(10.683804px,43.60235px)} 100% {transform: translate(10.683804px,43.60235px)}} #eLPNjuYaXqt6_to {animation: eLPNjuYaXqt6_to__to 3000ms linear infinite normal forwards}@keyframes eLPNjuYaXqt6_to__to { 0% {transform: translate(40.906343px,15.50075px)} 33.333333% {transform: translate(35.906343px,20.50075px)} 100% {transform: translate(35.906343px,20.50075px)}}
]]></style>
<g id="eLPNjuYaXqt2_tk" transform="translate(39.976501,37.245501) skewX(0) skewY(0)"><path d="M35.5004,25.9995l9.9955,9.7409m0,0l-7.2802,7.2803m7.2802-7.2803l.7182,1.1918c1.4375,2.3847,3.4123,7.7963,3.983,9.398l.7696,2.1613-2.1613-.7707c-1.6017-.5708-7.0133-2.5455-9.398-3.9819l-1.1917-.7182m7.2802-7.2803L41.738,39.4983l-3.5223,3.5224m0,0l-9.2294-9.417" transform="translate(-39.976501,-37.245501)" fill="none" stroke="#fff" stroke-width="1.2"/></g><g id="eLPNjuYaXqt3_tk" transform="translate(13.167514,9.1436) skewX(0) skewY(0)"><path d="M19.1319,8.55429l-.6762-.67618-3.4448-3.44483c-.808-.80908-1.8837-1.25408-3.0278-1.25408s-2.21879.445-3.02787,1.25408l-.49997.49997c-1.67003,1.67003-1.66899,4.38668,0,6.05565l3.44484,3.4449.6742.6742" transform="translate(-13.167514,-9.1436)" fill="none" stroke="#fff" stroke-width="1.2"/></g><g id="eLPNjuYaXqt4_tk" transform="translate(21.6221,17.466914) skewX(0) skewY(0)"><path d="M12.5137,15.0459l6.5556-6.55567L30.7305,20.1514l-6.8191,6.2922L12.5137,15.0459Z" transform="translate(-21.6221,-17.466914)" fill="none" stroke="#fff" stroke-width="1.2"/></g><g id="eLPNjuYaXqt5_to" transform="translate(15.683804,38.60235)"><path d="M6.19757,50.9999c2.8471,0,8.22853-.6043,12.27413-4.6498.907-.907,1.3649-1.9446,1.3627-3.0839-.0045-2.3624-1.8921-4.4388-2.2708-4.8308l-.0603-.0615c-.0201-.0201-.057-.0569-.1061-.1094l-.0313-.0324c-.3462-.3384-2.1791-2.0273-4.2868-2.0273-1.1907,0-2.2942.544-3.28049,1.6163-1.46767,1.5961-2.09092,3.4078-2.69296,5.1603-.71596,2.0831-1.45538,4.2343-3.58093,5.9846L1.5332,50.6056l2.5634.2826c.66905.0737,1.37607.1117,2.10097.1117Z" transform="translate(-10.683804,-43.60235)" fill="none" stroke="#fff" stroke-width="1.2"/></g><g id="eLPNjuYaXqt6_to" transform="translate(40.906343,15.50075)"><path d="M23.2272,39.528l.0245-.0235v-.0022L54.6927,5.42646c.4535-.45348.7092-1.05887.7193-1.70558.01-.65006-.2413-1.28002-.6892-1.72791l-.3038-.30381C53.9745,1.24461,53.3747,1,52.7324,1c-.6623,0-1.2822.25578-1.7469.72043L16.8952,33.1804l-.0235.0245c-.3183.3329-.4713.7171-.4713,1.1773.0022,1.3738,1.3548,2.8996,1.6263,3.1911l.029.0302c.0614.0603.1072.1094.1374.1407l.5071.5082c.6188.6088,2.1043,1.7491,3.343,1.7491.4635,0,.8511-.1552,1.184-.4735Z" transform="translate(-35.906343,-20.50075)" fill="none" stroke="#fff" stroke-width="1.2"/></g></svg>
