<svg width="52" height="53" viewBox="0 0 52 53" fill="none" xmlns="http://www.w3.org/2000/svg">
<path d="M5.55818 22.2279V47.2652C5.56172 49.8724 7.70748 51.9965 10.3414 51.9991L41.6568 52C44.2925 51.9965 46.4383 49.8732 46.4418 47.2669V22.2279M5.55818 22.2279L1 26.7383M5.55818 22.2279L25.9996 2L46.4418 22.2279M51 26.7383L46.4418 22.2279M24.098 45.1096C23.3199 45.1096 22.6891 44.4604 22.6891 43.6595V41.5125C22.6891 41.1649 22.3252 40.9458 22.0306 41.1164L20.3581 42.0872C20.1414 42.2141 19.8985 42.2808 19.6525 42.2808C19.1482 42.2808 18.6794 42.0038 18.4288 41.5585L16.5727 38.2495C16.1848 37.5574 16.4162 36.6684 17.0886 36.2684L18.7172 35.2993C19.004 35.1286 19.0133 34.7064 18.7341 34.523L17.0886 33.4372C16.4162 33.0372 16.1848 32.1482 16.5727 31.4561L18.4288 28.1471C18.6801 27.701 19.149 27.4232 19.6525 27.4232C19.8977 27.4232 20.1406 27.4899 20.355 27.6169L22.0075 28.5995C22.3005 28.7733 22.6668 28.5582 22.6699 28.2098L22.6891 26.0509C22.6891 25.2469 23.3214 24.5968 24.098 24.5968H27.9003C28.6783 24.5968 29.3083 25.2461 29.3083 26.0461V28.1384C29.3083 28.4813 29.663 28.7011 29.9576 28.54L31.6309 27.6248C31.8592 27.4891 32.1021 27.4224 32.3473 27.4224C32.85 27.4224 33.3189 27.7002 33.5703 28.1471L35.4248 31.4561C35.6137 31.7919 35.6646 32.1816 35.5667 32.5554C35.4726 32.9205 35.2497 33.2261 34.9359 33.4221L33.2973 34.3952C33.012 34.5643 33.0004 34.9842 33.2765 35.1699L34.8981 36.2621L34.9097 36.2692C35.2366 36.4637 35.4695 36.7764 35.5659 37.1494C35.6638 37.5249 35.6137 37.9154 35.4248 38.2503L33.5695 41.5593C33.3181 42.0046 32.8477 42.2816 32.3419 42.2816C32.0974 42.2816 31.8576 42.2157 31.6463 42.0903L30.1018 41.1712C29.9376 41.0736 29.7348 41.0752 29.5721 41.176C29.4163 41.272 29.3214 41.445 29.3199 41.6316L29.3068 43.6555C29.3068 44.458 28.6753 45.1088 27.898 45.1088H24.0956L24.098 45.1096ZM26.338 38.2424C24.2476 38.4575 22.4979 36.6557 22.7061 34.504C22.8611 32.911 24.1126 31.6228 25.6602 31.4633C27.7507 31.2482 29.5003 33.0499 29.2921 35.2017C29.1372 36.7946 27.8856 38.0829 26.338 38.2424Z" stroke="#E11F27" stroke-width="2" stroke-linecap="round"/>
</svg>
