<svg id="e8aeUYBcPqZ1" xmlns="http://www.w3.org/2000/svg" xmlns:xlink="http://www.w3.org/1999/xlink" viewBox="0 0 48 49" shape-rendering="geometricPrecision" text-rendering="geometricPrecision" project-id="72707be5cfb64ca3a878022150892052" export-id="97ccdffecb3a47638eb943318c44495c" cached="true">
<style><![CDATA[
#e8aeUYBcPqZ3_tr {animation: e8aeUYBcPqZ3_tr__tr 3000ms linear infinite normal forwards}@keyframes e8aeUYBcPqZ3_tr__tr { 0% {transform: translate(23.999969px,32.313816px) rotate(0deg)} 63.333333% {transform: translate(23.999969px,32.313816px) rotate(361deg)} 100% {transform: translate(23.999969px,32.313816px) rotate(361deg)}}
]]></style>
<path d="M5.1936,43.644c.00326,2.3986,1.97736,4.3528,4.40056,4.3552L38.4044,48c2.4248-.0032,4.3989-1.9566,4.4022-4.3544v-23.0359L23.9997,2L5.1936,20.6097v23.0343Z" fill="none" stroke="#fff" stroke-width="2" stroke-linecap="round"/><g id="e8aeUYBcPqZ3_tr" transform="translate(23.999969,32.313816) rotate(0)"><path d="M20.954,40.3267c0,.7368.5803,1.3342,1.2961,1.3342l-.0021-.0008h3.4981c.7151,0,1.2961-.5988,1.2961-1.337l.0121-1.8621c.0014-.1716.0887-.3308.232-.4191.1497-.0927.3362-.0942.4873-.0044l1.421.8456c.1944.1154.415.176.6399.176.4654,0,.8981-.2549,1.1294-.6645l1.7069-3.0443c.1738-.3082.2199-.6674.1298-1.0128-.0887-.3432-.3029-.6309-.6037-.8098l-.0107-.0066-1.4919-1.0048c-.254-.1709-.2433-.5571.0192-.7127l1.5075-.8952c.2887-.1804.4937-.4615.5803-.7974.0901-.344.0433-.7025-.1305-1.0114l-1.7062-3.0443c-.2313-.4111-.6626-.6667-1.1251-.6667-.2256,0-.4491.0614-.6591.1863l-1.5394.8419c-.271.1482-.5974-.054-.5974-.3695v-1.9249c0-.736-.5796-1.3333-1.2954-1.3333h-3.4981c-.7144,0-1.2961.598-1.2961,1.3377l-.0178,1.9862c-.0028.3206-.3398.5185-.6093.3586l-1.5203-.9041c-.1973-.1168-.4207-.1781-.6463-.1781-.4633,0-.8946.2556-1.1259.6659l-1.7075,3.0443c-.3569.6368-.1441,1.4546.4746,1.8226l1.5139.999c.2568.1687.2483.5571-.0156.7141l-1.4983.8916c-.6187.3681-.8315,1.1859-.4746,1.8227l1.7075,3.0443c.2306.4096.6619.6645,1.1259.6645.2263,0,.4498-.0614.6491-.1782l1.5387-.8931c.271-.157.6059.0446.6059.3644v1.9752Z" transform="translate(-23.999969,-32.225)" fill="none" stroke="#fff" stroke-width="2" stroke-linecap="round"/></g><path d="M20.9696,31.9036c-.1915,1.9797,1.4181,3.6373,3.3414,3.4394c1.4238-.1468,2.5752-1.332,2.7178-2.7975.1915-1.9796-1.4182-3.6372-3.3414-3.4393-1.4238.1467-2.5752,1.3319-2.7178,2.7974Z" fill="none" stroke="#fff" stroke-width="2" stroke-linecap="round"/><path d="M5.19353,20.6096L1,24.7592" fill="none" stroke="#fff" stroke-width="2" stroke-linecap="round"/><path d="M46.9999,24.7592l-4.1935-4.1496" fill="none" stroke="#fff" stroke-width="2" stroke-linecap="round"/></svg>
