<svg width="58" height="38" viewBox="0 0 58 38" fill="none" xmlns="http://www.w3.org/2000/svg">
<path d="M53.1173 16.7419C52.3646 16.1147 51.5492 15.6129 50.6711 15.2993L46.594 7.33333C44.775 3.75806 41.137 1.5 37.06 1.5H31.7284C29.1567 1.5 27.0868 3.56989 27.0868 6.14158V14.672V16.6165M53.1173 16.7419C55.1245 18.4982 56.2535 20.8817 56.2535 23.4534V25.0842C56.2535 27.5932 54.4972 29.6004 52.1764 30.1021M53.1173 16.7419H51.2356L29.0313 16.6165H27.0241H2.49903C2.12268 16.6165 1.74634 16.9301 1.74634 17.3692V25.8369C1.74634 26.8405 2.31085 27.6559 3.12627 28.095M17.3646 30.2276C16.8628 33.7401 13.8521 36.5 10.2141 36.5C6.51336 36.5 3.50261 33.6774 3.06354 30.1021L3.12627 28.095M17.3646 30.2276H28.0277H37.8754M17.3646 30.2276V28.3459C16.8628 24.8333 13.8521 22.0735 10.2141 22.0735C6.63881 22.0735 3.69078 24.7079 3.12627 28.095M37.8754 30.2276C38.3772 33.7401 41.3879 36.5 45.0259 36.5C48.7266 36.5 51.7374 33.6774 52.1764 30.1021M37.8754 30.2276V28.3459C38.3772 24.8333 41.3879 22.0735 45.0259 22.0735C48.6639 22.0735 51.6119 24.7079 52.1764 28.1577V30.1021" stroke="#E11F27" stroke-width="2"/>
</svg>
