<svg id="e5CJDzcMa7E1" xmlns="http://www.w3.org/2000/svg" xmlns:xlink="http://www.w3.org/1999/xlink" viewBox="0 0 58 38" shape-rendering="geometricPrecision" text-rendering="geometricPrecision" project-id="c3769a86e19942bfbab930f16454bc64" export-id="1fba773850df4367b79a982a963992e6" cached="false">
<style><![CDATA[
#e5CJDzcMa7E2_to {animation: e5CJDzcMa7E2_to__to 3000ms linear infinite normal forwards}@keyframes e5CJDzcMa7E2_to__to { 0% {transform: translate(-7.00008px,19px)} 66.666667% {transform: translate(87.339598px,19px)} 100% {transform: translate(87.339598px,19px)}}
]]></style>
<g id="e5CJDzcMa7E2_to" transform="translate(-7.00008,19)"><path d="M53.1173,16.7419c-.7527-.6272-1.5681-1.129-2.4462-1.4426L46.594,7.33333C44.775,3.75806,41.137,1.5,37.06,1.5h-5.3316c-2.5717,0-4.6416,2.06989-4.6416,4.64158v8.53042v1.9445m26.0305.1254c2.0072,1.7563,3.1362,4.1398,3.1362,6.7115v1.6308c0,2.509-1.7563,4.5162-4.0771,5.0179m.9409-13.3602h-1.8817l-22.2043-.1254h-2.0072-24.52507c-.37635,0-.75269.3136-.75269.7527v8.4677c0,1.0036.56451,1.819,1.37993,2.2581M17.3646,30.2276C16.8628,33.7401,13.8521,36.5,10.2141,36.5c-3.70074,0-6.71149-2.8226-7.15056-6.3979l.06273-2.0071M17.3646,30.2276h10.6631h9.8477m-20.5108,0v-1.8817c-.5018-3.5126-3.5125-6.2724-7.1505-6.2724-3.57529,0-6.52332,2.6344-7.08783,6.0215M37.8754,30.2276c.5018,3.5125,3.5125,6.2724,7.1505,6.2724c3.7007,0,6.7115-2.8226,7.1505-6.3979m-14.301.1255v-1.8817c.5018-3.5126,3.5125-6.2724,7.1505-6.2724s6.586,2.6344,7.1505,6.0842v1.9444" transform="translate(-28.99992,-19)" fill="none" stroke="#e11f27" stroke-width="2"/></g></svg>
