<svg id="e1qUknOG6ZD1" xmlns="http://www.w3.org/2000/svg" xmlns:xlink="http://www.w3.org/1999/xlink" viewBox="0 0 57 52" shape-rendering="geometricPrecision" text-rendering="geometricPrecision" project-id="7740d3e2512b4295890ee74cfb64cf02" export-id="0a2a240d6f6541d8a1cf898a35e85b63" cached="false">
<style><![CDATA[
#e1qUknOG6ZD7_to {animation: e1qUknOG6ZD7_to__to 3000ms linear infinite alternate-reverse forwards}@keyframes e1qUknOG6ZD7_to__to { 0% {transform: translate(52.551699px,20.48035px)} 33.333333% {transform: translate(52.551799px,22.43035px)} 100% {transform: translate(52.551799px,22.43035px)}} #e1qUknOG6ZD8_to {animation: e1qUknOG6ZD8_to__to 3000ms linear infinite alternate-reverse forwards}@keyframes e1qUknOG6ZD8_to__to { 0% {transform: translate(46.146749px,5.27013px)} 33.333333% {transform: translate(46.146849px,7.22013px)} 100% {transform: translate(46.146849px,7.22013px)}} #e1qUknOG6ZD9_to {animation: e1qUknOG6ZD9_to__to 3000ms linear infinite alternate-reverse forwards}@keyframes e1qUknOG6ZD9_to__to { 0% {transform: translate(52.551498px,12.958085px)} 33.333333% {transform: translate(52.551598px,14.908085px)} 100% {transform: translate(52.551598px,14.908085px)}}
]]></style>
<path d="M36.5333,5.25826c-.0002-.96611-.3234-1.92967-.9587-2.69768-1.1544-1.39577-3.1023-1.920502-4.8118-1.30721-1.6989.60932-2.7814,2.2364-2.8133,4.00489.0372,2.03814,1.4672,3.804,3.503,4.19259.3089.05816.6191.07931.9266.06873.1372-.06477.2796-.07005.4154-.03436c1.2929-.17315,2.4832-.93316,3.1582-2.07647.3889-.65939.5808-1.40569.5806-2.15049Z" fill="none" stroke="#e11f27" stroke-width="2"/><path d="M0,50.9986c1.32477,0,2.64822,0,3.97166,0c0-.2841,0-.5696,0-.8538c0-3.7749,0-7.5512,0-11.3261c0-.4295.36747-.793.79886-.793c1.26486,0,2.52972,0,3.79458,0c1.01721,0,3.6321.0013,4.6494.0013.3768,0,.7549,0,1.1317,0c3.5868,0,7.1724,0,10.7579,0c.6445,0,1.2889,0,1.9333,0c0-2.9158,0-5.8329,0-8.7486c0-1.4474,0-2.8947-.0014-4.342c0-1.6284-.2662-3.1431-1.2076-4.5257-.6907-1.0139-1.6523-1.8047-2.7467-2.3171l.7551-1.3916l4.8065-6.82954.8611-1.22817" fill="none" stroke="#e11f27" stroke-width="2"/><path d="M13.2146,38.0271c0-2.4426,0-4.8866,0-7.3291c0-1.6602,0-3.3203,0-4.9804c0-1.2609-.0347-2.4849.3874-3.7035.7935-2.2853,2.8479-4.0142,5.2245-4.4702.1452.0317.2969.0146.4407-.0687c1.3107-.1609,2.6392.0682,3.8146.6184" fill="none" stroke="#e11f27" stroke-width="2"/><path d="M40.2518,50.9986c-1.3234,0-2.6469,0-3.9717,0c0-3.5106,0-7.0225,0-10.533c0-.5485,0-1.0984,0-1.6469c0-.4283-.3661-.7931-.7988-.7931-2.2821,0-6.1619,0-8.4439,0" fill="none" stroke="#e11f27" stroke-width="2"/><path d="M36.2802,50.9988c-2.6722,0-6.9408.0013-9.6129.0013-.522,0-1.0425,0-1.5645,0-5.5134,0-11.0256,0-16.53901,0-.99858,0-3.59354,0-4.59211,0" fill="none" stroke="#e11f27" stroke-width="2"/><g id="e1qUknOG6ZD7_to" transform="translate(52.551799,22.43035)"><path d="M49.1033,23.5c0-1.368,0-4.6713,0-6.0393c1.1497,0,2.299,0,3.4484,0s2.2987,0,3.4484,0c0,1.368,0,4.6713,0,6.0393" transform="translate(-52.551699,-20.48035)" fill="none" stroke="#e11f27" stroke-width="2"/></g><g id="e1qUknOG6ZD8_to" transform="translate(46.146849,7.22013)"><path d="M49.3431,5.25823c.0009-.03359.0023-.06708.0042-.10045.0956-1.68889,1.4613-3.07306,3.2042-3.07306c1.7509,0,3.2088,1.44731,3.2088,3.18541s-1.4566,3.18541-3.2088,3.18541c-1.7814,0-3.1688-1.44599-3.2087-3.18541.0001-.00397.0002-.00793.0003-.0119Zm0,0h-11.2232-1.5867" transform="translate(-46.146749,-5.27013)" fill="none" stroke="#e11f27" stroke-width="2"/></g><g id="e1qUknOG6ZD9_to" transform="translate(52.551598,14.908085)"><path d="M52.5515,8.45557v9.00503" transform="translate(-52.551498,-12.958085)" fill="none" stroke="#e11f27" stroke-width="2"/></g><path d="M20.225,23c-1.6323,0-1.6344,2.45,0,2.45c1.6323,0,1.6344-2.45,0-2.45Z" fill="#e11f27"/><path d="M20.225,29c-1.6323,0-1.6344,2.45,0,2.45c1.6323,0,1.6344-2.45,0-2.45Z" fill="#e11f27"/></svg>
