<svg width="56" height="50" viewBox="0 0 56 50" fill="none" xmlns="http://www.w3.org/2000/svg">
<path d="M19.7314 14.7637C19.4545 15.1048 19.1775 15.4447 18.9006 15.7858C17.1876 16.1257 15.5918 17.0333 14.4621 18.3844C13.2042 19.8889 12.6113 21.709 12.6088 23.6558C12.6076 24.9191 12.6088 26.1813 12.6088 27.4446C12.6088 30.3233 12.6088 33.2021 12.6088 36.0808C11.6767 36.0808 10.7446 36.0808 9.81248 36.0808C8.65344 36.0808 7.4944 36.0808 6.33536 36.0808C5.94006 36.0808 5.60333 36.4159 5.60333 36.8118C5.60333 40.2912 5.60333 43.7717 5.60333 47.2511C5.60333 47.513 5.60333 47.7762 5.60333 48.0381C4.39061 48.0381 3.17789 48.0381 1.96394 48.0381C1.02207 48.0381 1.02085 49.5 1.96394 49.5C3.42067 49.5 4.8774 49.5 6.33536 49.5C9.02799 49.5 11.7194 49.5 14.412 49.5C14.8903 49.5 15.3673 49.5 15.8456 49.5C20.8978 49.5 25.9488 49.5 31.001 49.5C32.0905 49.5 33.18 49.5 34.2682 49.5C34.3378 49.5 34.4073 49.5 34.4769 49.5C35.9336 49.5 37.3903 49.5 38.8483 49.5C39.7901 49.5 39.7914 48.0381 38.8483 48.0381C37.6356 48.0381 36.4228 48.0381 35.2089 48.0381C35.2089 44.8024 35.2089 41.5655 35.2089 38.3298C35.2089 37.8242 35.2089 37.3174 35.2089 36.8118C35.2089 36.4171 34.8734 36.0808 34.4769 36.0808C32.3857 36.0808 30.2946 36.0808 28.2034 36.0808C28.2034 33.6285 28.2034 31.1761 28.2034 28.725C28.2034 27.2229 28.2034 25.7208 28.2034 24.2186C28.2034 22.7007 28.046 21.2485 27.3445 19.8658C27.0919 19.3675 26.7857 18.9046 26.4343 18.4818C28.3864 16.0563 30.3385 13.6295 32.2905 11.2039C33.6058 11.0054 34.8453 10.3305 35.6981 9.27422C35.8031 9.14386 35.9007 9.00985 35.9909 8.87219C39.1545 8.73209 42.3193 8.59077 45.4829 8.45067C45.8318 8.43483 46.1795 8.42022 46.5284 8.40438C47.036 9.13168 47.7595 9.70548 48.6428 10.0308C48.8856 10.1197 49.1345 10.1843 49.387 10.2269C49.387 12.0397 49.387 13.8512 49.387 15.664C48.3341 15.664 47.28 15.664 46.2271 15.664C45.8318 15.664 45.4951 15.999 45.4951 16.395C45.4951 17.8995 45.4951 19.4053 45.4951 20.9098C45.4951 21.8503 46.9591 21.8516 46.9591 20.9098C46.9591 19.6489 46.9591 18.3868 46.9591 17.1259C49.0661 17.1259 51.1719 17.1259 53.2789 17.1259C53.2789 18.3868 53.2789 19.6489 53.2789 20.9098C53.2789 21.8503 54.743 21.8516 54.743 20.9098C54.743 19.4053 54.743 17.8995 54.743 16.395C54.743 16.0002 54.4075 15.664 54.011 15.664C52.9581 15.664 51.904 15.664 50.8511 15.664C50.8511 13.8488 50.8511 12.0336 50.8511 10.2184C51.8698 10.0417 52.8263 9.51422 53.4937 8.70651C54.6613 7.29454 54.854 5.25883 53.9207 3.66899C52.9752 2.05602 51.0902 1.23978 49.2638 1.57602C48.073 1.79531 47.0933 2.50921 46.4674 3.46798C43.3197 3.29986 40.1708 3.13174 37.0231 2.96362C36.6876 2.94535 36.3521 2.92829 36.0166 2.91002C34.8173 1.1009 32.6187 0.200604 30.4763 0.589229C27.9704 1.04364 26.2013 3.29743 26.1147 5.78633C26.1122 5.81679 26.111 5.84725 26.111 5.87892C26.111 5.9106 26.1122 5.93984 26.1147 5.96907C26.1245 6.25171 26.155 6.52947 26.205 6.80115C24.0467 9.45574 21.8897 12.1103 19.7314 14.7637ZM29.687 10.9518C29.9383 11.0444 30.1945 11.115 30.4544 11.1662C28.7695 13.2604 27.0846 15.3546 25.3997 17.4488C24.2309 16.4839 22.784 15.8577 21.254 15.6847C21.1308 15.6713 21.0076 15.6603 20.8844 15.653C22.7718 13.331 24.658 11.0102 26.5454 8.68823C26.6198 8.59686 26.6942 8.50549 26.7686 8.41412C27.3835 9.56295 28.3986 10.4791 29.687 10.9518ZM33.7448 37.544C33.7448 40.7797 33.7448 44.0166 33.7448 47.2523C33.7448 47.5142 33.7448 47.7774 33.7448 48.0393C31.2962 48.0393 28.8488 48.0393 26.4002 48.0393C25.9219 48.0393 25.4449 48.0393 24.9666 48.0393C19.9144 48.0393 14.8635 48.0393 9.81126 48.0393C8.89623 48.0393 7.98119 48.0393 7.06616 48.0393C7.06616 44.8036 7.06616 41.5667 7.06616 38.331C7.06616 38.0691 7.06616 37.8059 7.06616 37.544C9.15731 37.544 11.2485 37.544 13.3396 37.544C14.1741 37.544 15.0086 37.544 15.8432 37.544C19.1287 37.544 22.4143 37.544 25.7011 37.544C26.2904 37.544 26.8809 37.544 27.4702 37.544C28.6463 37.544 29.8224 37.544 30.9985 37.544C31.9148 37.544 32.8298 37.544 33.7448 37.544ZM26.7394 28.0184C26.7394 30.7059 26.7394 33.3946 26.7394 36.0821C26.1489 36.0821 25.5584 36.0821 24.9678 36.0821C21.6823 36.0821 18.3967 36.0821 15.1099 36.0821C14.7646 36.0821 14.4181 36.0821 14.0729 36.0821C14.0729 33.8307 14.0729 31.5782 14.0729 29.3268C14.0729 27.7967 14.0729 26.2665 14.0729 24.7364C14.0729 23.5742 14.0411 22.4461 14.4279 21.3228C15.155 19.2165 17.0376 17.623 19.2153 17.2027C19.3483 17.2319 19.4874 17.2161 19.6192 17.1393C21.9385 16.853 24.3188 17.9068 25.6316 19.8451C26.4941 21.1194 26.7381 22.5155 26.7381 24.0164C26.7394 25.3504 26.7394 26.6844 26.7394 28.0184ZM50.119 2.95388C51.7234 2.95388 53.0593 4.28787 53.0593 5.88989C53.0593 7.4919 51.7246 8.8259 50.119 8.8259C48.4866 8.8259 47.2153 7.49312 47.1787 5.88989C47.2153 4.28665 48.4866 2.95388 50.119 2.95388ZM45.4207 4.87386C45.5622 4.88117 45.7049 4.88847 45.8464 4.897C45.7757 5.18573 45.7318 5.48421 45.7183 5.78633C45.7147 5.81923 45.7135 5.85334 45.7135 5.88867C45.7122 5.93253 45.7159 5.97395 45.7208 6.01293C45.7366 6.34186 45.7854 6.66226 45.8672 6.97048C42.911 7.10206 39.9549 7.23363 36.9987 7.3652C36.8925 7.37007 36.7852 7.37495 36.679 7.37982C36.9572 6.41496 36.9694 5.38187 36.6986 4.40848C39.6071 4.5632 42.5145 4.71914 45.4207 4.87386ZM30.153 2.18759C31.7196 1.62232 33.5045 2.10597 34.5623 3.39245C35.5932 4.64604 35.7274 6.46491 34.9088 7.86103C34.2902 8.91483 33.1995 9.61533 32.0148 9.77492C31.8904 9.74203 31.7598 9.7469 31.6342 9.8066C31.3523 9.81634 31.0681 9.79685 30.785 9.74325C28.9196 9.38508 27.6092 7.75748 27.5751 5.87892C27.6044 4.24889 28.5963 2.74921 30.153 2.18759Z" fill="#E11F27" stroke="#E11F27" stroke-width="0.8"/>
</svg>
