<svg id="esf9vnRrkai1" xmlns="http://www.w3.org/2000/svg" xmlns:xlink="http://www.w3.org/1999/xlink" viewBox="0 0 82 82" shape-rendering="geometricPrecision" text-rendering="geometricPrecision" project-id="cd3500aa9acb4e9a9ee82dcc415a5969" export-id="334c5f76e0f34bb1ba6b4fec2f323878" cached="false">
<style><![CDATA[
#esf9vnRrkai2 {animation: esf9vnRrkai2_s_do 3000ms linear infinite normal forwards}@keyframes esf9vnRrkai2_s_do { 0% {stroke-dashoffset: 218.91} 36.666667% {stroke-dashoffset: 218.91} 73.333333% {stroke-dashoffset: 0} 100% {stroke-dashoffset: 0}} #esf9vnRrkai3 {animation: esf9vnRrkai3_s_do 3000ms linear infinite normal forwards}@keyframes esf9vnRrkai3_s_do { 0% {stroke-dashoffset: 141.05} 16.666667% {stroke-dashoffset: 141.05} 36.666667% {stroke-dashoffset: 0} 100% {stroke-dashoffset: 0}} #esf9vnRrkai4 {animation: esf9vnRrkai4_s_do 3000ms linear infinite normal forwards}@keyframes esf9vnRrkai4_s_do { 0% {stroke-dashoffset: 54.37} 16.666667% {stroke-dashoffset: 0} 100% {stroke-dashoffset: 0}} #esf9vnRrkai5_to {animation: esf9vnRrkai5_to__to 3000ms linear infinite normal forwards}@keyframes esf9vnRrkai5_to__to { 0% {transform: translate(72.38408px,9.746802px)} 66.666667% {transform: translate(72.38408px,9.746802px)} 83.333333% {transform: translate(63.020295px,18.51606px)} 100% {transform: translate(63.020295px,18.51606px)}} #esf9vnRrkai5 {animation: esf9vnRrkai5_c_o 3000ms linear infinite normal forwards}@keyframes esf9vnRrkai5_c_o { 0% {opacity: 0} 73.333333% {opacity: 0} 80% {opacity: 1} 100% {opacity: 1}}
]]></style>
<path id="esf9vnRrkai2" d="M55.7791,3.8342C40.918,-2.06852,24.0138,1.41726,12.7107,12.7204C5.1595,20.2713,1,30.3178,1,40.9998s4.15983,20.7251,11.7172,28.2762c7.5509,7.5601,17.5974,11.7196,28.2794,11.7196L40.988,81c10.6852,0,20.7284-4.1685,28.2794-11.7196c11.3282-11.332,14.8075-28.2706,8.8613-43.1469" fill="none" stroke="#fff" stroke-width="2" stroke-dashoffset="218.91" stroke-dasharray="218.91"/><path id="esf9vnRrkai3" d="M49.6507,16.2681c-9.4406-3.2882-20.1045-.8557-27.1729,6.2126-10.2093,10.2183-10.2093,26.8287,0,37.0469c4.9463,4.9431,11.5192,7.6701,18.5187,7.6701l-.0031.0056c6.99,0,13.5754-2.727,18.5186-7.6702c7.0683-7.0678,9.5102-17.7314,6.2126-27.1729" transform="translate(0 0.148632)" fill="none" stroke="#fff" stroke-width="2" stroke-dashoffset="141.05" stroke-dasharray="141.05"/><path id="esf9vnRrkai4" d="M38.9682,28.7812c-2.5703.4232-4.8929,1.6143-6.7392,3.4606-4.8333,4.8306-4.8333,12.6918,0,17.5251c2.348,2.3477,5.4543,3.6329,8.7675,3.6329l-.0129-.0003c3.3133,0,6.429-1.2944,8.7674-3.6328c1.8462-1.8368,3.0467-4.1752,3.4699-6.7392" fill="none" stroke="#fff" stroke-width="2" stroke-dashoffset="54.37" stroke-dasharray="54.37"/><g id="esf9vnRrkai5_to" transform="translate(72.38408,9.746802)"><path id="esf9vnRrkai5" d="M40.9939,41.0021L61.085,20.911m0,0l-.0048-.0014-1.6049-5.6168l9.1558-9.15584l1.561,4.53874c.1818.5172.5799.9215,1.0971,1.1127L76.1288,13.55l-9.0523,9.0523L61.085,20.911Z" transform="translate(-58.56135,-23.569531)" opacity="0" fill="none" stroke="#fff" stroke-width="2"/></g></svg>
