<svg id="e7Dpx8PcfSy1" xmlns="http://www.w3.org/2000/svg" xmlns:xlink="http://www.w3.org/1999/xlink" viewBox="0 0 47 47" shape-rendering="geometricPrecision" text-rendering="geometricPrecision" project-id="02f2d57709e64290a9f722879890177d" export-id="8d2b3e83487e4c3aa5604f06d69a8f62" cached="false">
<style><![CDATA[
#e7Dpx8PcfSy2 {animation: e7Dpx8PcfSy2_c_o 3000ms linear infinite alternate-reverse forwards}@keyframes e7Dpx8PcfSy2_c_o { 0% {opacity: 0} 33.333333% {opacity: 0} 66.666667% {opacity: 1} 100% {opacity: 1}} #e7Dpx8PcfSy3 {animation: e7Dpx8PcfSy3_c_o 3000ms linear infinite alternate-reverse forwards}@keyframes e7Dpx8PcfSy3_c_o { 0% {opacity: 0} 16.666667% {opacity: 1} 100% {opacity: 1}} #e7Dpx8PcfSy4 {animation: e7Dpx8PcfSy4_c_o 3000ms linear infinite alternate-reverse forwards}@keyframes e7Dpx8PcfSy4_c_o { 0% {opacity: 0} 50% {opacity: 0} 73.333333% {opacity: 1} 100% {opacity: 1}}
]]></style>
<path id="e7Dpx8PcfSy2" d="M16.0538,38.1077c0-3.9926,1.5861-7.8216,4.4092-10.6447s6.6521-4.4092,10.6447-4.4092c-3.9926,0-7.8216-1.586-10.6447-4.4091s-4.4092-6.6522-4.4092-10.6447c0,3.9925-1.586,7.8215-4.4091,10.6447s-6.65218,4.4091-10.6447,4.4091c3.99252,0,7.82153,1.5861,10.6447,4.4092s4.4091,6.6521,4.4091,10.6447Z" fill="none" stroke="#fff" stroke-width="2" stroke-linecap="round" stroke-linejoin="round"/><path id="e7Dpx8PcfSy3" d="M35,33.0179c1.3308,0,2.6072.5287,3.5482,1.4698s1.4697,2.2173,1.4697,3.5482c0-1.3309.5287-2.6072,1.4698-3.5482s2.2173-1.4698,3.5482-1.4698c-1.3309,0-2.6072-.5286-3.5482-1.4697s-1.4698-2.2174-1.4698-3.5482c0,1.3308-.5286,2.6072-1.4697,3.5482s-2.2174,1.4697-3.5482,1.4697Z" transform="translate(0 0.170383)" fill="none" stroke="#fff" stroke-width="2" stroke-linecap="round" stroke-linejoin="round"/><path id="e7Dpx8PcfSy4" d="M35,33.0179c1.3308,0,2.6072.5287,3.5482,1.4698s1.4697,2.2173,1.4697,3.5482c0-1.3309.5287-2.6072,1.4698-3.5482s2.2173-1.4698,3.5482-1.4698c-1.3309,0-2.6072-.5286-3.5482-1.4697s-1.4698-2.2174-1.4698-3.5482c0,1.3308-.5286,2.6072-1.4697,3.5482s-2.2174,1.4697-3.5482,1.4697Z" transform="translate(0-20)" fill="none" stroke="#fff" stroke-width="2" stroke-linecap="round" stroke-linejoin="round"/></svg>
