<svg id="ecFY6gzOXAh1" xmlns="http://www.w3.org/2000/svg" xmlns:xlink="http://www.w3.org/1999/xlink" viewBox="0 0 73 82" shape-rendering="geometricPrecision" text-rendering="geometricPrecision" project-id="3be1e1f02ef446b1a883067eeef89dd5" export-id="2c14327186ea4699990d12bb12a7813f" cached="false">
<style><![CDATA[
#ecFY6gzOXAh2_ts {animation: ecFY6gzOXAh2_ts__ts 3000ms linear infinite alternate-reverse forwards}@keyframes ecFY6gzOXAh2_ts__ts { 0% {transform: translate(36.857151px,40.857149px) scale(0.7,0.7)} 33.333333% {transform: translate(36.857151px,40.857149px) scale(0.7,0.7)} 56.666667% {transform: translate(36.857151px,40.857149px) scale(1,1)} 100% {transform: translate(36.857151px,40.857149px) scale(1,1)}} #ecFY6gzOXAh3_ts {animation: ecFY6gzOXAh3_ts__ts 3000ms linear infinite alternate-reverse forwards}@keyframes ecFY6gzOXAh3_ts__ts { 0% {transform: translate(37px,41px) scale(0.5,0.5)} 16.666667% {transform: translate(37px,41px) scale(0.5,0.5)} 33.333333% {transform: translate(37px,41px) scale(1,1)} 100% {transform: translate(37px,41px) scale(1,1)}} #ecFY6gzOXAh4_ts {animation: ecFY6gzOXAh4_ts__ts 3000ms linear infinite alternate-reverse forwards}@keyframes ecFY6gzOXAh4_ts__ts { 0% {transform: translate(37px,41px) scale(0.5,0.5)} 16.666667% {transform: translate(37px,41px) scale(1,1)} 100% {transform: translate(37px,41px) scale(1,1)}} #ecFY6gzOXAh5 {animation: ecFY6gzOXAh5_s_do 3000ms linear infinite alternate-reverse forwards}@keyframes ecFY6gzOXAh5_s_do { 0% {stroke-dashoffset: 64.88} 46.666667% {stroke-dashoffset: 64.88} 73.333333% {stroke-dashoffset: 0} 100% {stroke-dashoffset: 0}}
]]></style>
<g id="ecFY6gzOXAh2_ts" transform="translate(36.857151,40.857149) scale(1,1)"><path d="M36.8571,63.7143c22.5898-.5649,34.4543-21.6294,34.8572-22.8604C71.2801,39.6261,60.1346,18.5649,36.8571,18C14.2118,18.5649,2.39942,39.6327,2,40.8669c.45499,1.2311,11.2845,22.2858,34.8571,22.8474Z" transform="translate(-36.857151,-40.857149)" fill="none" stroke="#fff" stroke-width="2"/></g><g id="ecFY6gzOXAh3_ts" transform="translate(37,41) scale(1,1)"><path d="M37,54c7.1695,0,13-5.8305,13-13s-5.8305-13-13-13-13,5.8305-13,13s5.8305,13,13,13Z" transform="translate(-37,-41)" fill="none" stroke="#fff" stroke-width="2"/></g><g id="ecFY6gzOXAh4_ts" transform="translate(37,41) scale(1,1)"><path d="M37,46c2.7575,0,5-2.2425,5-5s-2.2425-5-5-5-5,2.2425-5,5s2.2425,5,5,5Z" transform="translate(-37,-41)" fill="none" stroke="#fff" stroke-width="2"/></g><path id="ecFY6gzOXAh5" d="M14.7673,16.85C14.7673,16.85,9,7.22667,9,7.22667M34.7442,1v5v5M63.8571,7.22667L58.0898,16.85m-2.8971,50l2.8836,4.8117L60.96,76.4733M34.7442,81v-10M9,74.7733L14.7673,65.15" fill="none" stroke="#fff" stroke-width="2" stroke-linecap="round" stroke-dasharray="64.88"/></svg>
