<svg width="73" height="82" viewBox="0 0 73 82" fill="none" xmlns="http://www.w3.org/2000/svg">
<path d="M36.8571 63.7143C59.4469 63.1494 71.3114 42.0849 71.7143 40.8539C71.2801 39.6261 60.1346 18.5649 36.8571 18C14.2118 18.5649 2.39942 39.6327 2 40.8669C2.45499 42.098 13.2845 63.1527 36.8571 63.7143Z" stroke="white" stroke-width="2"/>
<path d="M37 54C44.1695 54 50 48.1695 50 41C50 33.8305 44.1695 28 37 28C29.8305 28 24 33.8305 24 41C24 48.1695 29.8305 54 37 54Z" stroke="white" stroke-width="2"/>
<path d="M37 46C39.7575 46 42 43.7575 42 41C42 38.2425 39.7575 36 37 36C34.2425 36 32 38.2425 32 41C32 43.7575 34.2425 46 37 46Z" stroke="white" stroke-width="2"/>
<path d="M14.7673 16.85L9 7.22667M34.7442 1V6V11M63.8571 7.22667L58.0898 16.85M55.1927 66.85L58.0763 71.6617L60.96 76.4733M34.7442 81V71M9 74.7733L14.7673 65.15" stroke="white" stroke-width="2" stroke-linecap="round"/>
</svg>
