<svg id="eS3Hb5kBz4o1" xmlns="http://www.w3.org/2000/svg" xmlns:xlink="http://www.w3.org/1999/xlink" viewBox="0 0 106 41" shape-rendering="geometricPrecision" text-rendering="geometricPrecision" project-id="fc0507bec2014f09965e52a801634b77" export-id="515dd14b10d24cbe870a5470e549b04b" cached="false">
<style><![CDATA[
#eS3Hb5kBz4o3_to {animation: eS3Hb5kBz4o3_to__to 3000ms linear infinite alternate-reverse forwards}@keyframes eS3Hb5kBz4o3_to__to { 0% {transform: translate(22.252691px,33.459451px)} 33.333333% {transform: translate(12.252691px,33.459451px)} 100% {transform: translate(12.252691px,33.459451px)}} #eS3Hb5kBz4o5_to {animation: eS3Hb5kBz4o5_to__to 3000ms linear infinite alternate-reverse forwards}@keyframes eS3Hb5kBz4o5_to__to { 0% {transform: translate(83.139751px,33.459551px)} 33.333333% {transform: translate(93.139751px,33.459551px)} 100% {transform: translate(93.139751px,33.459551px)}} #eS3Hb5kBz4o6_to {animation: eS3Hb5kBz4o6_to__to 3000ms linear infinite alternate-reverse forwards}@keyframes eS3Hb5kBz4o6_to__to { 0% {transform: translate(28.005641px,16.4425px)} 33.333333% {transform: translate(18.005641px,16.4425px)} 100% {transform: translate(18.005641px,16.4425px)}} #eS3Hb5kBz4o7_to {animation: eS3Hb5kBz4o7_to__to 3000ms linear infinite alternate-reverse forwards}@keyframes eS3Hb5kBz4o7_to__to { 0% {transform: translate(77.4473px,16.4426px)} 33.333333% {transform: translate(87.4473px,16.4426px)} 100% {transform: translate(87.4473px,16.4426px)}} #eS3Hb5kBz4o8_to {animation: eS3Hb5kBz4o8_to__to 3000ms linear infinite alternate-reverse forwards}@keyframes eS3Hb5kBz4o8_to__to { 0% {transform: translate(52.8386px,11.4472px)} 33.333333% {transform: translate(52.8386px,11.4472px)} 50% {transform: translate(52.8386px,10.4472px)} 100% {transform: translate(52.8386px,10.4472px)}}
]]></style>
<rect width="106.391722" height="41" rx="0" ry="0" fill="#d2dbed" stroke-width="0"/><g id="eS3Hb5kBz4o3_to" transform="translate(12.252691,33.459451)"><path d="M1,36.8509v3.149h19.3789v-5.208c0-1.2112.1413-2.4426.4239-3.6941s.7469-2.483,1.3929-3.6941c-.969-.1615-1.8572-.2826-2.6646-.3634s-1.5342-.1211-2.1802-.1211c-4.7639,0-8.68009.9487-11.74842,2.8463s-4.60248,4.2593-4.60248,7.0854Z" transform="translate(-11.59785,-33.459551)" fill="none" stroke="#fff" stroke-width="2"/></g><path d="M30.0684,35.2763v4.7236h45.5403v-4.7236c0-1.7635-.5248-3.3752-1.5745-4.8351-1.0497-1.4598-2.6242-2.7146-4.7236-3.7643s-4.5217-1.837-7.2671-2.3618-5.8298-.7873-9.2534-.7873c-3.359,0-6.4112.2625-9.1565.7873-2.7454.5248-5.1677,1.3121-7.2671,2.3618s-3.6739,2.3045-4.7236,3.7643c-1.0497,1.4599-1.5745,3.0716-1.5745,4.8351Z" fill="none" stroke="#fff" stroke-width="2"/><g id="eS3Hb5kBz4o5_to" transform="translate(93.139751,33.459551)"><path d="M85.2982,34.8282v5.1717h19.3788v-3.149c0-2.8261-1.514-5.1879-4.542-7.0854-3.0278-1.8976-6.9238-2.8463-11.6877-2.8463-.646,0-1.3525.0404-2.1196.1211s-1.6755.2019-2.7252.3634c.5653,1.1304.9892,2.3056,1.2718,3.5257s.4239,2.5197.4239,3.8988Z" transform="translate(-94.139751,-33.459551)" fill="none" stroke="#fff" stroke-width="2"/></g><g id="eS3Hb5kBz4o6_to" transform="translate(18.005641,16.4425)"><path d="M13.0511,20.6587c1.1708,1.1862,2.5932,1.7792,4.267,1.7792c1.7255,0,3.1717-.6055,4.3385-1.8167c1.1667-1.2112,1.7501-2.6121,1.7501-4.2028c0-1.6391-.6056-3.0441-1.8167-4.2149s-2.6243-1.7562-4.2392-1.7562c-1.6649,0-3.0905.5854-4.2767,1.7562-1.1861,1.1708-1.7792,2.5636-1.7792,4.1785c0,1.665.5854,3.0906,1.7562,4.2767Z" transform="translate(-17.3508,-16.4426)" fill="none" stroke="#fff" stroke-width="2"/></g><g id="eS3Hb5kBz4o7_to" transform="translate(87.4473,16.4426)"><path d="M84.2081,20.6212c1.2112,1.2112,2.6243,1.8167,4.2392,1.8167c1.7158,0,3.1543-.593,4.3154-1.7792c1.1603-1.1861,1.7405-2.6117,1.7405-4.2767c0-1.6149-.5854-3.0077-1.7563-4.1785-1.1708-1.1708-2.5963-1.7562-4.2766-1.7562-1.6303,0-3.051.5854-4.2622,1.7562s-1.8167,2.5758-1.8167,4.2149c0,1.5907.6055,2.9916,1.8167,4.2028Z" transform="translate(-88.4473,-16.4426)" fill="none" stroke="#fff" stroke-width="2"/></g><g id="eS3Hb5kBz4o8_to" transform="translate(52.8386,10.4472)"><path d="M46.1771,17.139c1.8571,1.8369,4.0917,2.7554,6.7039,2.7554c2.6646,0,4.8984-.9286,6.7014-2.7857c1.8022-1.8571,2.7034-4.0918,2.7034-6.7039c0-2.66458-.9052-4.8984-2.7155-6.70145C57.7592,1.90112,55.5153,1,52.8386,1c-2.6243,0-4.8549.90515-6.6918,2.71546-1.837,1.81112-2.7554,4.05504-2.7554,6.73174c0,2.6242.9285,4.8548,2.7857,6.6918Z" transform="translate(-52.8386,-10.4472)" fill="none" stroke="#fff" stroke-width="2"/></g></svg>
